<?xml version="1.0" encoding="UTF-8"?>
<svg id="tekst" xmlns="http://www.w3.org/2000/svg" viewBox="0 0 300.7 303.2">
  <defs>
    <style>
      .cls-1 {
        opacity: .91;
      }

      .cls-1, .cls-2 {
        fill: #81ccdb;
      }

      .cls-3 {
        fill: #de5543;
      }

      .cls-4 {
        fill: #2a5135;
      }

      .cls-5 {
        fill: #ec5f60;
      }

      .cls-6 {
        fill: #ef7c7f;
      }

      .cls-7 {
        fill: #3c414b;
      }
    </style>
  </defs>
  <path class="cls-6" d="m243.97,88.44c0,13-2.81,25.35-7.85,36.47-3.84,8.49-8.99,16.25-15.17,23.05-2.87,3.14-5.96,6.08-9.24,8.79-7.26,5.97-15.49,10.81-24.42,14.24-9.86,3.8-20.57,5.88-31.76,5.88-25.92,0-49.23-11.15-65.41-28.91-14.3-15.71-23.02-36.6-23.02-59.52C67.1,39.6,106.69,0,155.53,0c21.33,0,40.91,7.55,56.18,20.12,19.7,16.23,32.26,40.81,32.26,68.32Z"/>
  <g>
    <path class="cls-3" d="m185.63,177.27c0,27.51-12.56,52.09-32.26,68.31-15.27,12.58-34.85,20.13-56.18,20.13-48.84,0-88.43-39.6-88.43-88.44,0-22.92,8.72-43.8,23.02-59.51,16.17-17.78,39.49-28.93,65.41-28.93,11.19,0,21.9,2.08,31.76,5.88,8.93,3.43,17.16,8.28,24.42,14.25,3.29,2.71,6.38,5.65,9.24,8.8,6.19,6.79,11.33,14.56,15.17,23.04,5.04,11.12,7.85,23.47,7.85,36.47Z"/>
    <path class="cls-5" d="m300.7,177.27c0,48.84-39.6,88.44-88.44,88.44-21.33,0-40.89-7.55-56.16-20.13-19.71-16.21-32.27-40.8-32.27-68.31,0-13.01,2.81-25.36,7.85-36.48,3.85-8.48,8.99-16.24,15.17-23.03,2.87-3.15,5.96-6.1,9.25-8.8,7.26-5.98,15.48-10.82,24.41-14.25,9.86-3.8,20.56-5.88,31.75-5.88,25.92,0,49.24,11.15,65.42,28.93,14.3,15.71,23.02,36.59,23.02,59.51Z"/>
  </g>
  <path class="cls-1" d="m118.64,227.46c.16-11.68,2.58-22.81,6.85-32.96,3.18,16.28,10.84,30.98,21.67,42.76,2.49,2.73,5.18,5.3,8.01,7.7,15.1,12.78,34.57,20.59,55.9,20.88,2.92.04,5.8-.06,8.64-.3l-37.76,18.93-28.7,14.39c-1.12-.86-2.21-1.74-3.28-2.65-2.07-1.75-4.05-3.59-5.95-5.53-8.34-8.46-14.98-18.62-19.36-29.88-4.03-10.33-6.18-21.59-6.02-33.35Z"/>
  <path class="cls-1" d="m245.25,145.54c-10.24,5.62-21.11,9.01-32.05,10.3,12.6-10.8,21.6-24.71,26.5-39.94,1.15-3.52,2.06-7.12,2.75-10.76,3.67-19.44.86-40.23-9.41-58.93-1.41-2.56-2.92-5.02-4.53-7.37l35.09,23.51,26.68,17.86c-.19,1.39-.43,2.78-.68,4.16-.5,2.66-1.12,5.29-1.88,7.9-3.25,11.43-8.8,22.21-16.43,31.58-6.99,8.6-15.73,16.02-26.04,21.68Z"/>
  <path class="cls-4" d="m243.96,94.66c-.75,10.71-3.41,20.9-7.63,30.22-3.84,8.49-8.99,16.25-15.17,23.05-2.87,3.14-5.96,6.08-9.24,8.79-7.26,5.97-15.49,10.81-24.42,14.24-.68.26-1.35.51-2.04.75.12,1.83.18,3.67.18,5.53,0,26.87-11.98,50.94-30.89,67.16-18.93-16.2-30.91-40.29-30.91-67.16,0-2.1.07-4.19.22-6.25-13-4.98-24.52-12.95-33.73-23.06-13.14-14.44-21.57-33.26-22.84-54.01,9.29-3.32,19.29-5.12,29.71-5.12,11.19,0,21.9,2.08,31.76,5.88,8.93,3.43,17.16,8.28,24.42,14.25.46.38.91.76,1.36,1.15.45-.39.91-.77,1.37-1.15,7.26-5.98,15.48-10.82,24.41-14.25,9.86-3.8,20.56-5.88,31.75-5.88s21.85,2.07,31.69,5.86Z"/>
  <circle class="cls-2" cx="153.77" cy="149.18" r="35.15"/>
  <g>
    <path class="cls-7" d="m117.51,69.34l2.23-6.51h1.87l-3.43,9.12h-1.35l-3.43-9.12h1.87l2.23,6.51Z"/>
    <path class="cls-7" d="m126.93,72.08c-1.27,0-2.26-.35-2.95-1.06s-1.05-1.72-1.05-3.02v-1.03c0-1.36.33-2.41,1.01-3.16s1.62-1.12,2.83-1.12c1.15,0,2.04.42,2.67,1.27s.95,2.03.95,3.55v.6h-6.15v-1.44h4.45c-.05-.74-.25-1.32-.58-1.73s-.77-.62-1.33-.62c-.67,0-1.2.22-1.57.67s-.56,1.08-.56,1.89v1.16c0,.76.2,1.34.6,1.74s.97.61,1.69.61c.36,0,.72-.07,1.08-.22s.68-.35.96-.62l1.18,1.18c-.45.43-.96.77-1.52,1.01s-1.13.36-1.7.36Z"/>
    <path class="cls-7" d="m132.84,71.95v-9.12h1.79v9.12h-1.79Zm5.02-6.96c-.16-.19-.36-.34-.6-.44s-.52-.15-.83-.15c-.57,0-1.01.16-1.32.47-.31.31-.47.75-.47,1.31l-.18-1.76c.28-.54.64-.96,1.08-1.27.45-.3.94-.46,1.48-.46.42,0,.79.06,1.13.18.34.12.63.3.88.53l-1.17,1.58Z"/>
    <path class="cls-7" d="m140.53,71.95v-12.78h1.79v12.78h-1.79Zm.66-1.34l.11-2.13,4.69-5.66h2.11l-6.92,7.79Zm5.41,1.34l-3.18-5.26,1.15-1.2,3.98,6.46h-1.95Z"/>
    <path class="cls-7" d="m153.78,72.08c-1.27,0-2.26-.35-2.95-1.06s-1.05-1.72-1.05-3.02v-1.03c0-1.36.33-2.41,1.01-3.16s1.62-1.12,2.83-1.12c1.15,0,2.04.42,2.67,1.27s.95,2.03.95,3.55v.6h-6.15v-1.44h4.45c-.05-.74-.25-1.32-.58-1.73s-.77-.62-1.33-.62c-.67,0-1.2.22-1.57.67s-.56,1.08-.56,1.89v1.16c0,.76.2,1.34.6,1.74s.97.61,1.69.61c.36,0,.72-.07,1.08-.22s.68-.35.96-.62l1.18,1.18c-.45.43-.96.77-1.52,1.01s-1.13.36-1.7.36Z"/>
    <path class="cls-7" d="m159.69,71.95v-9.12h1.79v9.12h-1.79Zm5.54,0v-5.53c0-.64-.17-1.14-.5-1.49-.33-.35-.8-.53-1.41-.53s-1.04.16-1.36.47-.48.75-.48,1.31l-.18-1.76c.28-.55.65-.98,1.1-1.27s.96-.45,1.51-.45c.99,0,1.76.32,2.3.97.54.65.81,1.56.81,2.75v5.54h-1.79Z"/>
    <path class="cls-7" d="m169.75,71.95v-9.12h1.79v9.12h-1.79Zm5.54,0v-5.53c0-.64-.17-1.14-.5-1.49-.33-.35-.8-.53-1.41-.53s-1.04.16-1.36.47-.48.75-.48,1.31l-.18-1.76c.28-.55.65-.98,1.1-1.27s.96-.45,1.51-.45c.99,0,1.76.32,2.3.97.54.65.81,1.56.81,2.75v5.54h-1.79Z"/>
    <path class="cls-7" d="m183.54,72.08c-1.27,0-2.26-.35-2.95-1.06s-1.05-1.72-1.05-3.02v-1.03c0-1.36.33-2.41,1.01-3.16s1.62-1.12,2.83-1.12c1.15,0,2.04.42,2.67,1.27s.95,2.03.95,3.55v.6h-6.15v-1.44h4.45c-.05-.74-.25-1.32-.58-1.73s-.77-.62-1.33-.62c-.67,0-1.2.22-1.57.67s-.56,1.08-.56,1.89v1.16c0,.76.2,1.34.6,1.74s.97.61,1.69.61c.36,0,.72-.07,1.08-.22s.68-.35.96-.62l1.18,1.18c-.45.43-.96.77-1.52,1.01s-1.13.36-1.7.36Z"/>
    <path class="cls-7" d="m189.45,71.95v-9.12h1.79v9.12h-1.79Zm5.54,0v-5.53c0-.64-.17-1.14-.5-1.49-.33-.35-.8-.53-1.41-.53s-1.04.16-1.36.47-.48.75-.48,1.31l-.18-1.76c.28-.55.65-.98,1.1-1.27s.96-.45,1.51-.45c.99,0,1.76.32,2.3.97.54.65.81,1.56.81,2.75v5.54h-1.79Z"/>
  </g>
  <g>
    <path class="cls-7" d="m196.29,181.72l2.23-6.51h1.87l-3.43,9.12h-1.35l-3.43-9.12h1.87l2.23,6.51Z"/>
    <path class="cls-7" d="m205.71,184.46c-1.27,0-2.26-.35-2.95-1.06s-1.05-1.72-1.05-3.02v-1.03c0-1.36.33-2.41,1.01-3.16s1.62-1.12,2.83-1.12c1.15,0,2.04.42,2.67,1.27s.95,2.03.95,3.55v.6h-6.15v-1.44h4.45c-.05-.74-.25-1.32-.58-1.73s-.77-.62-1.33-.62c-.67,0-1.2.22-1.57.67s-.56,1.08-.56,1.89v1.16c0,.76.2,1.34.6,1.74s.97.61,1.69.61c.36,0,.72-.07,1.08-.22s.68-.35.96-.62l1.18,1.18c-.45.43-.96.77-1.52,1.01-.56.24-1.13.36-1.7.36Z"/>
    <path class="cls-7" d="m211.62,184.33v-9.12h1.79v9.12h-1.79Zm5.02-6.96c-.16-.19-.36-.34-.6-.44s-.52-.15-.83-.15c-.57,0-1.01.16-1.32.47s-.47.75-.47,1.31l-.18-1.76c.28-.54.64-.96,1.08-1.27.45-.3.94-.46,1.48-.46.42,0,.79.06,1.13.18.34.12.63.3.88.53l-1.17,1.58Z"/>
    <path class="cls-7" d="m219.31,184.33v-12.78h1.79v12.78h-1.79Zm4.09.13c-.57,0-1.06-.14-1.49-.41-.42-.27-.73-.66-.93-1.16l.12-1.91c0,.39.07.73.21,1s.34.49.61.63c.27.15.59.22.97.22.59,0,1.05-.18,1.38-.54.33-.36.49-.87.49-1.53v-1.98c0-.67-.16-1.19-.49-1.56-.32-.37-.78-.55-1.38-.55-.38,0-.71.07-.97.21-.27.14-.47.35-.61.62s-.21.6-.21.98l-.18-1.76c.28-.53.64-.94,1.08-1.24.45-.29.94-.43,1.49-.43.98,0,1.73.32,2.27.97s.8,1.56.8,2.75v1.99c0,1.17-.28,2.07-.83,2.72s-1.33.97-2.33.97Z"/>
    <path class="cls-7" d="m232.83,184.46c-1.27,0-2.26-.35-2.95-1.06s-1.05-1.72-1.05-3.02v-1.03c0-1.36.33-2.41,1.01-3.16s1.62-1.12,2.83-1.12c1.15,0,2.04.42,2.67,1.27s.95,2.03.95,3.55v.6h-6.15v-1.44h4.45c-.05-.74-.25-1.32-.58-1.73s-.77-.62-1.33-.62c-.67,0-1.2.22-1.57.67s-.56,1.08-.56,1.89v1.16c0,.76.2,1.34.6,1.74s.97.61,1.69.61c.36,0,.72-.07,1.08-.22s.68-.35.96-.62l1.18,1.18c-.45.43-.96.77-1.52,1.01-.56.24-1.13.36-1.7.36Z"/>
    <path class="cls-7" d="m242.48,184.46c-1.27,0-2.26-.35-2.95-1.06s-1.05-1.72-1.05-3.02v-1.03c0-1.36.33-2.41,1.01-3.16s1.62-1.12,2.83-1.12c1.15,0,2.04.42,2.67,1.27s.95,2.03.95,3.55v.6h-6.15v-1.44h4.45c-.05-.74-.25-1.32-.58-1.73s-.77-.62-1.33-.62c-.67,0-1.2.22-1.57.67s-.56,1.08-.56,1.89v1.16c0,.76.2,1.34.6,1.74s.97.61,1.69.61c.36,0,.72-.07,1.08-.22s.68-.35.96-.62l1.18,1.18c-.45.43-.96.77-1.52,1.01-.56.24-1.13.36-1.7.36Z"/>
    <path class="cls-7" d="m250.19,171.55v10.42c0,.22.05.39.14.51.1.12.23.18.41.18h.84v1.71h-1.05c-.67,0-1.2-.21-1.57-.63s-.56-1.02-.56-1.78v-10.41h1.79Z"/>
    <path class="cls-7" d="m256.5,184.49c-1.01,0-1.79-.32-2.33-.97-.55-.65-.82-1.56-.82-2.74v-2.01c0-1.18.27-2.1.8-2.75.54-.65,1.29-.97,2.26-.97.54,0,1.03.14,1.48.42.45.28.81.68,1.08,1.19l-.18,1.86c0-.39-.07-.72-.21-.99s-.34-.48-.61-.63c-.27-.14-.59-.21-.97-.21-.59,0-1.05.18-1.38.55-.33.37-.49.89-.49,1.56v1.99c0,.66.16,1.17.49,1.53.32.36.78.54,1.38.54.38,0,.7-.07.97-.22.27-.15.47-.36.61-.65s.21-.62.21-1.01l.12,1.92c-.16.41-.45.78-.85,1.1-.4.33-.92.49-1.57.49Zm2.29-.16v-12.78h1.79v12.78h-1.79Z"/>
    <path class="cls-7" d="m267.05,184.46c-1.27,0-2.26-.35-2.95-1.06s-1.05-1.72-1.05-3.02v-1.03c0-1.36.33-2.41,1.01-3.16s1.62-1.12,2.83-1.12c1.15,0,2.04.42,2.67,1.27s.95,2.03.95,3.55v.6h-6.15v-1.44h4.45c-.05-.74-.25-1.32-.58-1.73s-.77-.62-1.33-.62c-.67,0-1.2.22-1.57.67s-.56,1.08-.56,1.89v1.16c0,.76.2,1.34.6,1.74s.97.61,1.69.61c.36,0,.72-.07,1.08-.22s.68-.35.96-.62l1.18,1.18c-.45.43-.96.77-1.52,1.01-.56.24-1.13.36-1.7.36Z"/>
    <path class="cls-7" d="m272.96,184.33v-9.12h1.79v9.12h-1.79Zm5.54,0v-5.53c0-.64-.17-1.14-.5-1.49-.33-.35-.8-.53-1.41-.53s-1.04.16-1.36.47-.48.75-.48,1.31l-.18-1.76c.28-.55.65-.98,1.1-1.27s.96-.45,1.51-.45c.99,0,1.76.32,2.3.97.54.65.81,1.56.81,2.75v5.54h-1.79Z"/>
  </g>
  <g>
    <path class="cls-7" d="m32.15,181.72l2.23-6.51h1.87l-3.43,9.12h-1.35l-3.43-9.12h1.87l2.23,6.51Z"/>
    <path class="cls-7" d="m41.57,184.46c-1.27,0-2.26-.35-2.95-1.06s-1.05-1.72-1.05-3.02v-1.03c0-1.36.34-2.41,1.01-3.16s1.62-1.12,2.83-1.12c1.15,0,2.04.42,2.67,1.27s.94,2.03.94,3.55v.6h-6.15v-1.44h4.45c-.05-.74-.24-1.32-.58-1.73s-.77-.62-1.33-.62c-.67,0-1.2.22-1.57.67s-.56,1.08-.56,1.89v1.16c0,.76.2,1.34.6,1.74s.97.61,1.69.61c.36,0,.72-.07,1.08-.22s.68-.35.96-.62l1.18,1.18c-.45.43-.96.77-1.52,1.01-.56.24-1.13.36-1.7.36Z"/>
    <path class="cls-7" d="m47.49,184.33v-9.12h1.79v9.12h-1.79Zm5.02-6.96c-.16-.19-.36-.34-.6-.44s-.52-.15-.83-.15c-.57,0-1.01.16-1.32.47-.31.31-.47.75-.47,1.31l-.18-1.76c.28-.54.64-.96,1.09-1.27s.94-.46,1.48-.46c.42,0,.79.06,1.13.18s.63.3.88.53l-1.17,1.58Z"/>
    <path class="cls-7" d="m57.88,184.49c-1.01,0-1.79-.32-2.33-.97s-.82-1.56-.82-2.74v-2.01c0-1.18.27-2.1.8-2.75.54-.65,1.29-.97,2.26-.97.54,0,1.03.14,1.48.42s.81.68,1.09,1.19l-.18,1.86c0-.39-.07-.72-.21-.99s-.34-.48-.61-.63c-.27-.14-.59-.21-.97-.21-.59,0-1.05.18-1.38.55s-.49.89-.49,1.56v1.99c0,.66.16,1.17.49,1.53.33.36.78.54,1.38.54.38,0,.7-.07.97-.22.27-.15.47-.36.61-.65s.21-.62.21-1.01l.12,1.92c-.16.41-.45.78-.85,1.1-.4.33-.92.49-1.57.49Zm2.29-.16v-12.78h1.79v12.78h-1.79Z"/>
    <path class="cls-7" d="m64.7,173.34v-1.79h1.79v1.79h-1.79Zm0,10.99v-9.12h1.79v9.12h-1.79Z"/>
    <path class="cls-7" d="m72.95,184.46c-1.27,0-2.26-.35-2.95-1.06s-1.05-1.72-1.05-3.02v-1.03c0-1.36.34-2.41,1.01-3.16s1.62-1.12,2.83-1.12c1.15,0,2.04.42,2.67,1.27s.94,2.03.94,3.55v.6h-6.15v-1.44h4.45c-.05-.74-.24-1.32-.58-1.73s-.77-.62-1.33-.62c-.67,0-1.2.22-1.57.67s-.56,1.08-.56,1.89v1.16c0,.76.2,1.34.6,1.74s.97.61,1.69.61c.36,0,.72-.07,1.08-.22s.68-.35.96-.62l1.18,1.18c-.45.43-.96.77-1.52,1.01-.56.24-1.13.36-1.7.36Z"/>
    <path class="cls-7" d="m78.86,188.04v-12.83h1.79v12.83h-1.79Zm4.09-3.58c-.57,0-1.06-.14-1.49-.41-.42-.27-.73-.66-.93-1.16l.12-1.91c0,.39.07.73.21,1s.34.49.61.63.59.22.97.22c.59,0,1.05-.18,1.38-.54.33-.36.49-.87.49-1.53v-1.98c0-.67-.16-1.19-.49-1.56s-.78-.55-1.38-.55c-.38,0-.7.07-.97.21s-.47.35-.61.62-.21.6-.21.98l-.18-1.76c.28-.53.64-.94,1.08-1.24.45-.29.94-.43,1.49-.43.98,0,1.73.32,2.27.97s.8,1.56.8,2.75v1.99c0,1.17-.28,2.07-.83,2.72s-1.33.97-2.33.97Z"/>
    <path class="cls-7" d="m92.39,184.46c-1.27,0-2.26-.35-2.95-1.06s-1.05-1.72-1.05-3.02v-1.03c0-1.36.34-2.41,1.01-3.16s1.62-1.12,2.83-1.12c1.15,0,2.04.42,2.67,1.27s.94,2.03.94,3.55v.6h-6.15v-1.44h4.45c-.05-.74-.24-1.32-.58-1.73s-.77-.62-1.33-.62c-.67,0-1.2.22-1.57.67s-.56,1.08-.56,1.89v1.16c0,.76.2,1.34.6,1.74s.97.61,1.69.61c.36,0,.72-.07,1.08-.22s.68-.35.96-.62l1.18,1.18c-.45.43-.96.77-1.52,1.01-.56.24-1.13.36-1.7.36Z"/>
    <path class="cls-7" d="m98.3,184.33v-9.12h1.79v9.12h-1.79Zm5.54,0v-5.53c0-.64-.17-1.14-.5-1.49s-.8-.53-1.41-.53-1.04.16-1.36.47-.48.75-.48,1.31l-.18-1.76c.28-.55.65-.98,1.1-1.27s.96-.45,1.51-.45c.99,0,1.76.32,2.3.97s.81,1.56.81,2.75v5.54h-1.79Z"/>
  </g>
  <g>
    <path class="cls-2" d="m72.35,103.49c-.65-.4-1.05-.89-1.18-1.47-.14-.58,0-1.2.4-1.85l.48-.78c.4-.65.89-1.04,1.46-1.18.58-.13,1.19,0,1.84.4.37.23.67.5.89.82.22.31.34.65.37,1l-1.04.19c-.04-.23-.12-.45-.25-.64-.13-.19-.29-.35-.49-.47-.36-.22-.7-.29-1.02-.21-.32.08-.6.3-.82.67l-.48.78c-.23.38-.31.73-.24,1.05.07.33.29.6.65.82.2.12.41.2.65.22.23.02.47,0,.7-.09l.27,1.06c-.32.13-.67.17-1.05.11-.38-.06-.75-.2-1.12-.42Z"/>
    <path class="cls-2" d="m76.92,106.3c-.62-.38-.99-.86-1.11-1.43-.12-.57.02-1.19.43-1.84l.48-.77c.4-.65.88-1.05,1.44-1.19.56-.15,1.15-.03,1.77.35s.99.86,1.12,1.43c.12.57-.02,1.17-.42,1.82l-.48.79c-.4.65-.88,1.05-1.45,1.2-.56.15-1.15.03-1.78-.35Zm.55-.89c.33.2.64.25.95.16.3-.09.57-.33.8-.7l.48-.79c.23-.37.31-.71.26-1.02-.05-.31-.24-.57-.57-.77-.32-.2-.64-.25-.94-.16s-.57.32-.8.69l-.48.79c-.23.37-.31.71-.26,1.03s.24.57.57.77Z"/>
    <path class="cls-2" d="m80.24,108.25l2.92-4.75.93.58-2.92,4.75-.93-.58Zm2.84,1.75l1.77-2.88c.21-.34.28-.64.23-.93-.05-.28-.23-.52-.53-.71-.3-.19-.59-.25-.86-.19-.27.06-.49.24-.67.53l.47-.97c.32-.2.65-.3.98-.31.33-.01.64.07.93.25.5.31.78.71.85,1.22s-.09,1.07-.47,1.68l-1.77,2.88-.93-.57Zm2.84,1.75l1.77-2.88c.21-.34.28-.65.22-.94-.06-.29-.25-.53-.56-.73-.29-.18-.57-.23-.84-.15-.27.08-.5.28-.7.6l.38-1.03c.35-.22.7-.35,1.05-.37.35-.02.67.06.97.24.52.32.81.73.88,1.24.07.51-.08,1.07-.46,1.69l-1.77,2.88-.93-.57Z"/>
    <path class="cls-2" d="m87.08,115.12l4.11-6.68.93.57-4.11,6.68-.93-.57Zm3.27-.55c-.3-.18-.51-.41-.64-.69-.13-.28-.17-.58-.11-.9l.67-.95c-.13.2-.2.4-.21.59s.02.36.11.52c.09.16.24.3.44.43.31.19.6.24.89.16.28-.08.53-.3.74-.64l.63-1.03c.21-.35.29-.67.24-.97-.05-.3-.23-.54-.54-.73-.2-.12-.39-.19-.57-.2-.18-.01-.35.03-.51.12s-.3.24-.43.44l.47-.97c.31-.19.63-.29.96-.3.33,0,.63.07.91.25.51.31.8.72.87,1.23s-.08,1.07-.46,1.69l-.64,1.03c-.37.61-.81.99-1.3,1.15-.49.16-1,.08-1.52-.24Z"/>
    <path class="cls-2" d="m98.39,110.25l-3.34,5.42c-.07.11-.1.22-.09.31.01.09.06.17.15.23l.44.27-.55.89-.55-.34c-.35-.22-.56-.49-.62-.83s.03-.71.28-1.11l3.33-5.42.93.57Z"/>
    <path class="cls-2" d="m97.98,119.26c-.66-.41-1.06-.91-1.2-1.5-.14-.59,0-1.23.42-1.91l.33-.54c.44-.71.95-1.15,1.53-1.32.59-.17,1.2-.06,1.83.33.6.37.93.87.98,1.51s-.16,1.36-.65,2.15l-.19.31-3.2-1.97.46-.75,2.31,1.42c.21-.4.29-.76.25-1.08-.04-.32-.2-.57-.49-.75-.35-.21-.69-.27-1.03-.16-.34.11-.64.38-.9.8l-.37.6c-.24.39-.32.76-.24,1.1.08.34.31.62.69.86.19.12.4.19.63.23.23.04.46.03.7-.01l.24.99c-.37.08-.74.09-1.11.04s-.7-.18-1-.36Z"/>
    <path class="cls-2" d="m100.5,120.72l3.41-1.52-.08,1.14-2.29,1.02-1.03-.64Zm3.24,1.99l-.09-3.03-.15-3.67,1.04.64.05,2.97.18,3.73-1.03-.64Zm.62-2.63l.15-1.12,2.07-1.04,1.04.64-3.26,1.52Z"/>
    <path class="cls-2" d="m105.8,123.99l2.92-4.75.93.57-2.92,4.75-.93-.57Zm3.52-5.72l.57-.93.93.57-.57.93-.93-.57Z"/>
    <path class="cls-2" d="m109.37,126.22c-.39-.24-.61-.52-.65-.85s.06-.69.31-1.1l3.01-4.89.93.58-3.02,4.9c-.07.11-.1.21-.09.31,0,.09.05.17.14.22l.45.28-.55.89-.54-.33Zm.82-4.92l.52-.84,2.14,1.32-.52.84-2.14-1.32Z"/>
    <path class="cls-2" d="m113.11,128.58c-.66-.41-1.06-.91-1.2-1.5-.14-.59,0-1.23.42-1.91l.33-.54c.44-.71.95-1.15,1.53-1.32.59-.17,1.2-.06,1.83.33.6.37.93.87.98,1.51.06.64-.16,1.36-.65,2.15l-.19.31-3.2-1.97.46-.75,2.31,1.43c.21-.4.29-.76.25-1.09-.04-.32-.2-.57-.49-.75-.35-.21-.69-.27-1.03-.16-.34.11-.64.38-.9.8l-.37.6c-.24.39-.32.76-.24,1.1.08.34.31.62.69.86.19.12.4.19.63.23.23.04.46.03.7-.01l.24.99c-.37.08-.75.09-1.11.04s-.7-.18-1-.36Z"/>
    <path class="cls-2" d="m116.23,130.41l2.92-4.75.93.57-2.92,4.75-.93-.57Zm3.52-5.72l.57-.93.93.57-.57.93-.93-.57Z"/>
    <path class="cls-2" d="m119.8,132.64c-.39-.24-.61-.52-.65-.85-.04-.33.06-.69.31-1.1l3.01-4.89.93.58-3.02,4.9c-.07.11-.1.21-.09.31,0,.09.05.17.14.22l.45.28-.55.89-.54-.33Zm.82-4.91l.52-.84,2.14,1.32-.52.84-2.14-1.32Z"/>
  </g>
  <g>
    <path class="cls-2" d="m152.44,225.64c-.12.1-.21.22-.27.37-.06.15-.09.32-.09.51,0,.35.1.62.29.81.19.19.46.29.8.29l-1.07.11c-.33-.17-.59-.39-.77-.66-.19-.27-.28-.58-.28-.91,0-.25.04-.48.11-.69.07-.21.18-.39.33-.54l.97.71Zm4.25,3.07h-5.58v-1.1h5.58v1.1Z"/>
    <path class="cls-2" d="m156.78,221.84c0,.78-.22,1.38-.65,1.8-.43.43-1.05.64-1.85.64h-.63c-.83,0-1.47-.21-1.93-.62-.45-.41-.68-.99-.68-1.73,0-.7.26-1.25.77-1.63s1.24-.58,2.17-.58h.37v3.76h-.88v-2.72c-.45.03-.8.15-1.06.35-.25.2-.38.47-.38.81,0,.41.14.73.41.96s.66.34,1.15.34h.71c.46,0,.82-.12,1.06-.37s.37-.59.37-1.03c0-.22-.04-.44-.13-.66s-.21-.41-.38-.59l.72-.72c.27.28.47.58.62.93.14.34.22.69.22,1.04Z"/>
    <path class="cls-2" d="m156.69,218.06h-6.33c-.49,0-.86-.11-1.11-.34-.25-.23-.37-.58-.37-1.05v-.81h1.04v.79c0,.11.04.19.13.24.08.05.18.08.3.08h6.34v1.1Zm-4.64.59h-.93v-2.79h.93v2.79Z"/>
    <path class="cls-2" d="m148.89,213.64h6.37c.13,0,.24-.03.31-.09.08-.06.11-.14.11-.25v-.52h1.04v.64c0,.41-.13.73-.39.96-.26.23-.62.34-1.09.34h-6.36v-1.1Z"/>
    <path class="cls-2" d="m156.78,209.27c0,.78-.22,1.38-.65,1.8-.43.43-1.05.64-1.85.64h-.63c-.83,0-1.47-.21-1.93-.62-.45-.41-.68-.99-.68-1.73,0-.7.26-1.25.77-1.63s1.24-.58,2.17-.58h.37v3.76h-.88v-2.72c-.45.03-.8.15-1.06.35-.25.2-.38.47-.38.81,0,.41.14.73.41.96s.66.34,1.15.34h.71c.46,0,.82-.12,1.06-.37s.37-.59.37-1.03c0-.22-.04-.44-.13-.66s-.21-.41-.38-.59l.72-.72c.27.28.47.58.62.93.14.34.22.69.22,1.04Z"/>
    <path class="cls-2" d="m156.78,203.4c0,.77-.21,1.36-.63,1.78-.42.42-1.02.63-1.79.63h-.92c-.76,0-1.35-.21-1.77-.63-.42-.42-.63-1.01-.63-1.78,0-.44.08-.83.23-1.18.15-.35.37-.63.66-.84l.71.79c-.18.15-.32.34-.41.55s-.15.43-.15.67c0,.42.12.75.35.98.24.23.57.35,1,.35h.92c.44,0,.78-.12,1.02-.35.24-.23.36-.56.36-.98,0-.23-.05-.46-.16-.67s-.25-.39-.44-.55l.76-.79c.28.21.5.49.65.84.15.35.23.75.23,1.18Z"/>
    <path class="cls-2" d="m156.72,198.72c0,.46-.13.79-.38,1-.25.21-.62.31-1.1.31h-5.75v-1.1h5.76c.13,0,.24-.03.31-.08s.11-.13.11-.24v-.53h1.04v.63Zm-4.61,1.88h-.99v-2.51h.99v2.51Z"/>
    <path class="cls-2" d="m149.98,196.59h-1.1v-1.1h1.1v1.1Zm6.71,0h-5.58v-1.1h5.58v1.1Z"/>
    <path class="cls-2" d="m156.78,191.54c0,.78-.22,1.38-.65,1.8-.43.43-1.05.64-1.85.64h-.63c-.83,0-1.47-.21-1.93-.62-.45-.41-.68-.99-.68-1.73,0-.7.26-1.25.77-1.63s1.24-.58,2.17-.58h.37v3.76h-.88v-2.72c-.45.03-.8.15-1.06.35-.25.2-.38.47-.38.81,0,.41.14.73.41.96s.66.34,1.15.34h.71c.46,0,.82-.12,1.06-.37s.37-.59.37-1.03c0-.22-.04-.44-.13-.66s-.21-.41-.38-.59l.72-.72c.27.28.47.58.62.93.14.34.22.69.22,1.04Z"/>
  </g>
  <g>
    <path class="cls-7" d="m258.79,102.16c-.29-.23-.53-.5-.7-.82-.17-.31-.32-.64-.43-.99s-.22-.7-.3-1.05c-.08-.35-.18-.68-.3-.99.08-.13.17-.2.25-.2.08,0,.17.02.25.07.03.11.09.28.19.53.1.25.21.5.33.77.12.27.24.51.36.73.12.22.21.37.28.43.19.21.33.3.43.27.1-.03.17-.14.21-.32.04-.19.05-.43.03-.73s-.05-.62-.09-.96c-.04-.34-.1-.67-.17-1.01-.07-.33-.13-.63-.18-.88l.33-.51c.13.08.24.18.34.3.09.12.18.23.27.35.09.12.17.24.26.35.09.11.2.21.32.29.18.11.32.13.43.04.11-.09.21-.2.3-.35.13-.2.22-.43.28-.7.06-.27.08-.54.05-.82s-.09-.53-.2-.77c-.11-.24-.28-.43-.5-.57-.2-.13-.4-.22-.6-.27-.2-.05-.4-.14-.6-.26-.24-.15-.27-.36-.11-.62.07-.11.19-.18.34-.2.15-.02.32-.01.49.02.17.03.34.08.51.15s.29.13.38.19c.4.26.69.58.87.97.18.39.28.8.3,1.23.02.43-.04.87-.17,1.3-.13.43-.3.82-.52,1.17-.19.29-.44.45-.76.49-.32.03-.62-.04-.91-.21-.07.27-.09.55-.04.83.05.29.1.58.15.88s.08.58.08.87c0,.28-.07.54-.23.78-.04.06-.12.12-.22.17-.11.05-.23.1-.36.13-.13.03-.25.05-.38.04-.12,0-.22-.03-.28-.08Z"/>
    <path class="cls-7" d="m263.72,94.49c-.39-.35-.71-.74-.96-1.17-.24-.43-.42-.85-.54-1.28-.11-.42-.16-.84-.15-1.24.01-.4.08-.76.21-1.07.13-.31.3-.55.53-.74s.5-.28.83-.27c.18.11.32.26.43.45s.21.38.31.58c.1.2.21.39.33.58.12.19.27.35.46.47.2.13.39.19.56.17s.33-.13.48-.35c.12-.18.21-.38.26-.59.06-.21.14-.4.26-.58.02-.03.05-.08.11-.15.05-.07.08-.12.1-.14.07.18.11.37.1.57,0,.21-.02.41-.06.61-.04.2-.1.4-.18.59s-.17.36-.26.51c-.09.14-.2.24-.33.31-.13.07-.27.11-.42.12-.15.01-.3,0-.46-.04-.15-.04-.29-.1-.41-.18.06.2.11.41.17.64.06.23.09.45.11.67.02.22.01.45-.02.67-.04.22-.11.42-.23.61-.13.2-.31.32-.56.37-.24.05-.47,0-.67-.12Zm.13-.99c.06.04.13.08.21.13.08.05.16.03.24-.05.08-.22.12-.5.12-.85,0-.35-.04-.69-.11-1.04-.07-.35-.18-.68-.33-.98-.15-.3-.33-.52-.55-.67-.02,0-.04-.02-.08-.04-.04-.02-.06-.03-.08-.04-.17.26-.28.56-.35.9-.07.34-.07.67-.02,1.01.05.34.15.65.31.94.16.29.37.52.64.7Z"/>
    <path class="cls-7" d="m266.53,89.47c-.05-.03-.13-.09-.24-.18-.1-.08-.2-.17-.3-.25s-.19-.16-.26-.23c-.08-.07-.12-.12-.14-.15l-2.84-4.78c-.04-.07-.09-.18-.14-.34-.05-.16-.11-.33-.16-.51-.05-.18-.1-.35-.13-.52s-.06-.31-.08-.42c.05-.04.1-.06.15-.06.05,0,.11.01.16.04.05.02.1.05.15.09.04.03.08.06.11.08.04.02.09.06.16.1.07.04.1.07.1.08.16.21.33.49.51.83.18.34.37.72.56,1.12.19.41.4.83.61,1.26.21.44.44.85.66,1.24.23.39.47.74.71,1.06.24.31.5.55.76.72.14.09.27.12.4.09.13-.03.26-.07.38-.12.12-.05.24-.1.35-.14s.22-.03.33.04c.07.04.1.11.1.19,0,.08-.03.17-.09.25-.21.32-.48.54-.81.67-.33.12-.67.07-1-.14Z"/>
    <path class="cls-7" d="m268.89,84.5c.06.17.15.34.27.5.11.16.22.32.3.49.09.17.14.33.17.5.02.17-.02.34-.13.51-.09.15-.18.23-.27.25-.08.02-.2-.02-.36-.12-.18-.12-.35-.3-.51-.55-.15-.25-.29-.51-.41-.79-.12-.28-.22-.56-.3-.83s-.15-.49-.21-.67l-3.23-5.08c-.1-.14-.16-.31-.18-.53-.02-.22.01-.4.11-.55l.38.24,2.03,3.03.28.18c.08-.13.14-.27.17-.41.03-.14.06-.29.08-.44.02-.15.05-.3.09-.45.04-.15.11-.31.21-.46.18-.08.34-.08.48,0,.14.08.26.21.37.38s.2.39.27.62c.07.24.14.48.2.72.06.24.1.47.13.67.03.21.05.37.07.48.02.17.01.32-.01.44s-.05.22-.06.31c-.01.09,0,.17.04.24.04.07.13.16.28.25.21.14.43.19.63.16.21-.03.41-.11.61-.25s.38-.32.56-.53c.18-.22.34-.44.49-.68s.29-.47.41-.7c.12-.23.22-.42.29-.59l.23-.05c.06.16.09.36.08.6,0,.24-.04.49-.09.74-.05.25-.11.5-.19.73-.08.23-.16.41-.24.54-.16.25-.35.46-.58.64-.23.18-.48.32-.75.41-.27.1-.55.15-.84.16-.29.01-.58-.03-.86-.12Zm-1.13-3.93c-.04.07-.08.19-.12.36s-.05.35-.06.55c0,.19.01.37.05.53.04.16.1.28.2.34l.08.05c.01-.07.03-.19.07-.36.03-.17.05-.35.07-.54,0-.19,0-.38-.04-.56-.04-.18-.12-.3-.24-.38Z"/>
    <path class="cls-7" d="m272.9,78.56c-.12.18-.29.37-.5.58s-.44.38-.69.53c-.25.15-.51.24-.79.28-.27.04-.54-.03-.79-.19-.14-.09-.22-.19-.25-.31-.03-.12-.02-.24.01-.36.04-.12.09-.25.16-.37.07-.12.14-.23.2-.32.17-.26.32-.45.45-.58.13-.13.25-.21.36-.25.11-.04.21-.05.31-.03.1.02.2.04.32.06.12.02.24.03.38.02.13,0,.29-.05.47-.15,0-.15-.06-.34-.19-.57-.12-.23-.28-.47-.46-.72s-.37-.51-.58-.77-.39-.51-.55-.74c-.16-.23-.28-.44-.37-.61-.09-.17-.1-.31-.04-.4.05-.08.11-.12.17-.13.07-.01.13,0,.2.03.07.03.13.06.2.11.06.05.12.08.16.11.04.02.1.07.18.12.08.06.13.1.14.11l1.42,2.37.13.08c.17-.26.26-.57.29-.92.03-.35.03-.7,0-1.04-.02-.34-.05-.65-.07-.93-.02-.28,0-.48.07-.6.25.16.42.37.52.63.1.26.16.55.18.85s0,.62-.04.94c-.04.32-.09.62-.14.89-.05.28-.09.51-.12.7-.03.19-.02.31.03.37l1.21,1.4s0,.02-.02.06c-.02.03-.04.06-.05.08-.03.04-.07.09-.13.15-.06.06-.12.12-.2.17-.07.05-.14.09-.21.12-.07.03-.13.02-.17,0l-1.2-.77Zm-2.29.51c.13.08.27.1.42.05s.29-.13.42-.24c.13-.11.26-.23.37-.35s.19-.23.24-.29c0,0-.02-.01-.03-.03s-.02-.02-.03-.03c-.13-.08-.27-.1-.41-.04-.15.06-.28.15-.41.26-.13.12-.24.24-.34.37s-.17.23-.22.3Z"/>
    <path class="cls-7" d="m276.1,74.42c-.22-.14-.42-.33-.58-.56-.17-.23-.33-.47-.47-.72-.14-.26-.29-.51-.42-.77-.14-.26-.29-.48-.46-.68,0,.2-.04.35-.1.47-.06.11-.13.24-.22.39-.01.02-.04.06-.1.14-.05.08-.09.13-.1.15-.14-.15-.24-.34-.29-.54-.05-.21-.08-.42-.07-.64,0-.22.03-.44.08-.65.04-.21.09-.4.14-.57-.21-.46-.45-.88-.72-1.26-.27-.38-.53-.76-.78-1.13-.25-.37-.47-.76-.66-1.17-.19-.41-.3-.87-.35-1.39l.47.22,2.45,3.6c.03-.1.08-.22.13-.35.06-.14.11-.28.17-.42.06-.14.12-.28.17-.41.06-.13.1-.25.13-.35,0,0,.02-.03.04-.07.02-.04.04-.07.05-.1.07-.11.14-.18.23-.23.08-.04.21-.05.37-.01-.18.62-.32,1.2-.43,1.73-.1.53-.12,1.04-.04,1.52.07.49.25.96.55,1.42.29.46.74.94,1.34,1.44.14.09.27.16.39.22.12.06.25,0,.39-.15.11-.18.18-.36.21-.56.03-.2.05-.4.06-.59.01-.2.03-.39.06-.59.03-.19.1-.38.21-.56.18.12.3.31.35.57.05.26.06.54.03.84-.03.3-.09.59-.18.87-.09.28-.19.49-.28.65-.1.15-.22.27-.36.35-.14.08-.29.13-.44.15s-.32,0-.48-.05c-.16-.05-.32-.12-.47-.21Z"/>
    <path class="cls-7" d="m278.51,71.49c-.39-.35-.71-.74-.96-1.17-.25-.43-.42-.85-.54-1.28-.11-.42-.16-.84-.15-1.24.01-.4.08-.76.21-1.07.13-.31.3-.55.53-.74.23-.18.5-.28.83-.27.18.11.32.26.43.45s.21.38.31.57c.1.2.21.39.33.58s.27.34.46.47c.2.13.39.19.56.18.17-.01.33-.13.48-.35.12-.18.21-.38.26-.59.06-.21.14-.4.26-.57.02-.03.05-.08.11-.15s.08-.12.1-.14c.07.18.11.37.11.57,0,.21-.02.41-.06.61-.04.2-.1.4-.18.59-.08.19-.17.36-.26.51-.09.14-.2.24-.33.31-.13.07-.27.11-.42.12s-.3,0-.46-.04c-.15-.04-.29-.1-.41-.18.06.2.11.41.17.64.06.23.09.45.11.67s.01.45-.02.67c-.04.22-.11.42-.23.61-.13.2-.31.32-.56.37-.24.05-.47,0-.67-.13Zm.13-.99c.06.04.13.08.21.13.08.05.16.03.24-.05.08-.22.12-.5.12-.85,0-.35-.04-.69-.11-1.04-.07-.35-.18-.68-.33-.98-.15-.3-.33-.52-.55-.67-.02,0-.04-.02-.08-.04-.04-.02-.06-.03-.08-.04-.17.26-.28.56-.35.9-.07.34-.07.67-.02,1.01.05.34.15.65.31.94.16.29.37.52.64.7Z"/>
    <path class="cls-7" d="m281.31,66.46c-.05-.03-.13-.09-.24-.18-.1-.08-.2-.17-.3-.25s-.19-.16-.26-.23c-.08-.07-.12-.12-.14-.15l-2.84-4.78c-.04-.07-.09-.19-.14-.35-.05-.16-.11-.33-.16-.51-.05-.18-.1-.35-.13-.52-.04-.17-.06-.31-.08-.42.05-.04.1-.07.15-.06.05,0,.11.01.16.04.05.02.1.05.15.09.04.03.08.06.11.08.04.02.09.06.16.1.07.04.1.07.1.08.16.21.33.49.51.83.18.34.37.72.56,1.12.19.41.4.83.61,1.26.21.44.43.85.66,1.24.23.39.47.74.71,1.06.24.31.5.55.76.72.14.09.27.12.4.09.13-.03.26-.07.38-.12.12-.05.24-.1.35-.14s.22-.03.33.04c.07.04.1.11.1.19,0,.08-.03.17-.09.25-.21.32-.48.54-.81.67-.33.12-.67.08-1.01-.14Z"/>
    <path class="cls-7" d="m283.67,61.5c.06.17.15.34.27.5.12.16.22.32.3.49.09.17.14.33.17.5.02.17-.02.34-.14.51-.09.15-.18.23-.27.25-.08.02-.2-.02-.36-.12-.18-.12-.35-.3-.51-.55-.16-.25-.29-.51-.41-.79-.12-.28-.22-.56-.3-.83-.09-.27-.15-.49-.21-.67l-3.23-5.08c-.1-.14-.16-.31-.18-.53s.01-.4.11-.55l.38.24,2.03,3.03.28.18c.08-.13.14-.27.17-.41s.06-.29.08-.44c.02-.15.05-.3.09-.45.04-.15.11-.31.21-.46.18-.08.34-.08.48,0,.14.08.26.21.37.38.11.18.2.39.27.62.07.24.14.48.2.72.06.24.1.47.13.67.03.21.05.37.07.48.02.17.01.32-.01.44-.03.12-.05.22-.06.31-.01.09,0,.17.04.24s.13.16.28.25c.21.14.43.19.63.16.21-.03.41-.11.61-.25.2-.14.38-.32.56-.53.18-.22.34-.44.49-.68.15-.24.29-.47.41-.7.12-.23.21-.42.29-.59l.23-.05c.06.16.09.36.08.6,0,.24-.04.49-.09.74-.05.26-.11.5-.19.73-.08.23-.16.41-.24.54-.16.25-.35.46-.58.64s-.48.32-.75.42c-.27.1-.55.15-.84.16-.29.01-.58-.03-.86-.12Zm-1.13-3.93c-.04.07-.08.19-.12.36-.04.17-.05.36-.06.55,0,.19.01.37.05.53.04.16.1.28.2.34l.08.05c.01-.07.03-.19.07-.36.03-.17.05-.35.07-.54,0-.19,0-.38-.04-.56-.04-.18-.12-.3-.24-.38Z"/>
  </g>
  <g>
    <path class="cls-7" d="m139.78,264.84c.07-.09.18-.18.32-.26.14-.08.27-.1.4-.06.02,0,.04.02.07.03.03.02.06.03.08.04.03.02.06.03.08.05l-.47.59c.08,0,.2-.04.38-.08s.37-.09.57-.15c.2-.05.39-.11.57-.17.18-.06.3-.1.38-.13l6.36-2.88c.15-.02.25-.02.32,0,.07.03.12.08.16.17.04.09.02.23-.04.42l-3.95,1.85-.1.13c.18.19.33.38.46.56.13.19.22.38.26.58.04.2.04.4,0,.6-.05.2-.15.41-.31.61-.28.35-.63.6-1.05.76-.42.16-.87.24-1.33.23-.46,0-.92-.07-1.37-.22-.45-.14-.84-.34-1.16-.6-.14-.11-.28-.25-.41-.42-.13-.17-.24-.35-.31-.54-.07-.19-.11-.39-.11-.59,0-.2.07-.38.2-.55Zm4.72.33c-.1-.08-.25-.12-.44-.12-.19,0-.4.03-.63.08-.23.06-.47.13-.72.23-.25.1-.49.2-.71.31-.22.11-.42.23-.6.35-.17.12-.3.22-.37.32.2.16.46.29.79.4.32.11.65.17.99.19.34.02.66-.01.97-.1.31-.09.55-.24.73-.46.15-.19.25-.39.29-.6.04-.21-.06-.4-.29-.58Z"/>
    <path class="cls-7" d="m144.64,268.83s.07-.09.15-.17c.07-.09.12-.14.15-.17.64-.34,1.32-.59,2.03-.75.71-.16,1.42-.23,2.15-.21.01.01.04.02.08.04s.07.03.08.04c.19.15.32.32.38.5.06.18.07.37.04.56-.03.19-.09.38-.19.56-.1.18-.21.35-.33.5-.22.28-.52.52-.89.72-.37.2-.76.34-1.18.42-.42.08-.83.09-1.24.03s-.76-.21-1.06-.45-.46-.5-.48-.77c-.02-.28.09-.56.31-.84Zm.94.54c-.06.08-.07.16-.03.24.04.08.09.14.16.2.18.14.39.23.63.27s.49.04.74,0c.25-.04.48-.12.7-.24.22-.12.4-.26.53-.42.06-.08.13-.17.19-.28.07-.1.11-.21.13-.31.02-.1.02-.21-.03-.31-.04-.1-.14-.19-.3-.27-.12-.06-.31-.05-.56,0-.26.06-.53.16-.82.28-.29.12-.56.26-.81.42-.25.15-.43.3-.53.42Z"/>
    <path class="cls-7" d="m150.54,273.64c.17-.21.37-.38.61-.49.23-.11.47-.21.71-.29.24-.08.47-.16.69-.26.22-.09.4-.23.55-.42.03-.04.07-.1.12-.16.04-.06.08-.13.12-.19.03-.07.05-.13.05-.2,0-.06-.03-.12-.08-.16,0,0-.02-.01-.04-.02-.02-.01-.03-.01-.04,0-.21.06-.45.11-.72.17s-.55.11-.84.14c-.29.04-.57.07-.83.11-.27.03-.5.05-.7.05-.15.01-.35.03-.6.04-.25.02-.51.04-.76.05s-.47.03-.66.04c-.19.01-.29.01-.31,0l-.16-.81c.06.05.14.09.22.11.08.02.17.03.25.04.65.05,1.3.04,1.94-.06.64-.1,1.3-.22,1.98-.39.03,0,.12-.04.26-.1.14-.05.3-.12.48-.2.18-.08.35-.15.53-.23s.31-.14.41-.19c.12-.06.2-.11.26-.16.06-.05.1-.08.14-.11s.07-.03.11-.02c.04,0,.11.05.2.12.01.01.05.04.09.09.05.05.08.08.08.1-.06.27-.11.5-.16.71-.05.21-.1.39-.15.57s-.12.34-.21.49c-.08.15-.19.31-.32.48-.28.16-.57.32-.88.48-.31.15-.59.31-.85.47-.26.16-.46.32-.62.48-.16.16-.23.34-.22.52s.13.37.36.56.6.39,1.13.61c.07.15.02.23-.13.23-.16,0-.36-.03-.61-.11-.25-.08-.5-.19-.76-.32-.26-.13-.46-.27-.59-.41-.14-.11-.23-.22-.28-.34-.05-.12-.07-.24-.06-.36,0-.12.04-.24.1-.36.05-.12.12-.23.21-.34Z"/>
    <path class="cls-7" d="m152.54,274.85c.28-.36.66-.62,1.14-.81.48-.18.97-.28,1.5-.29.52-.01,1.04.05,1.54.19.51.14.93.35,1.27.62.14.11.24.23.33.38.08.15.19.27.33.38l.06.05c.1-.05.28-.13.54-.25s.54-.24.83-.37.57-.25.83-.36c.26-.11.45-.19.56-.22.19-.07.43-.16.73-.25.3-.1.59-.19.87-.28s.53-.16.74-.21c.21-.06.32-.08.33-.07l.08.75s-.09.06-.23.13c-.14.07-.33.16-.56.28-.23.11-.49.24-.78.37s-.58.27-.86.39c-.29.13-.57.26-.83.38-.26.12-.49.22-.68.29-.49.16-.98.32-1.48.49-.5.17-.93.35-1.3.54-.37.19-.64.4-.81.62-.17.22-.17.47,0,.75.49.26.84.48,1.04.67.2.19.31.33.31.43,0,.1-.06.17-.2.19-.14.03-.31,0-.51-.05-.21-.06-.42-.16-.63-.29-.22-.14-.4-.32-.55-.54-.15-.22-.24-.48-.26-.79-.03-.3.04-.65.21-1.04l-2.76.06c-.13-.06-.24-.11-.32-.15s-.17-.09-.26-.14c-.09-.05-.16-.09-.22-.12l-.06-.05c-.16-.13-.27-.27-.33-.41-.06-.14-.07-.29-.05-.43.02-.14.07-.29.16-.43.08-.14.18-.28.29-.42Zm.79.44s-.08.09-.12.14c-.05.05-.09.11-.11.16s-.04.11-.03.17c0,.06.04.12.1.17.09.07.23.13.42.17.19.04.38.06.58.07.2,0,.4.01.58,0,.18,0,.32,0,.4-.01.09-.01.25-.03.5-.05.24-.02.49-.05.76-.09s.51-.06.74-.09c.23-.03.39-.05.49-.07l.03-.03s.02-.02.03-.02c0,0,.01,0,.02-.01.05-.06.07-.13.06-.19-.01-.06-.04-.12-.09-.17s-.1-.1-.16-.14c-.06-.04-.11-.08-.14-.11-.26-.21-.57-.37-.94-.49-.37-.12-.75-.18-1.13-.19s-.75.05-1.1.17c-.35.12-.64.32-.86.6Z"/>
    <path class="cls-7" d="m157.75,279.85c.09-.11.24-.23.46-.38.22-.14.47-.29.76-.44.28-.14.59-.28.91-.41.32-.13.62-.24.91-.32.29-.08.54-.14.76-.16.22-.02.37,0,.47.07.2.16.22.33.07.53-.07.08-.14.14-.22.18s-.16.05-.24.07-.17.03-.25.03c-.09,0-.17.03-.26.06-.15.06-.34.14-.58.25-.24.11-.47.22-.7.32-.23.11-.43.2-.6.28-.17.09-.26.13-.28.15l-.11.14c.32.17.68.27,1.09.28.41.01.83-.01,1.27-.09.44-.07.87-.16,1.31-.28s.84-.22,1.22-.31c.38-.09.71-.15,1-.18.29-.03.5.02.65.13-.21.26-.45.46-.73.59-.28.13-.56.25-.85.35s-.57.23-.85.36c-.28.13-.53.33-.74.61-.09.11-.1.27-.03.47s.17.4.3.61.27.39.41.56c.14.17.24.29.3.35l-.22.28c-.17-.12-.38-.29-.62-.48-.24-.2-.46-.42-.66-.66-.2-.24-.36-.5-.46-.78-.1-.27-.1-.55.02-.83-.28-.03-.57-.03-.88,0-.3.03-.6.04-.9.04-.29,0-.58-.03-.86-.09-.28-.06-.54-.18-.77-.37-.14-.11-.21-.27-.21-.47,0-.2.05-.36.14-.48Z"/>
    <path class="cls-7" d="m165.47,285.51c.17-.21.37-.38.61-.49.23-.11.47-.21.71-.29.24-.08.46-.16.69-.26.22-.09.4-.23.55-.42.03-.04.07-.1.12-.16.04-.06.08-.13.12-.19.03-.06.05-.13.05-.2,0-.06-.03-.12-.08-.16,0,0-.02-.01-.04-.03-.02,0-.03-.01-.04,0-.21.06-.45.11-.72.17-.27.06-.55.11-.84.14-.29.04-.57.07-.83.11-.27.03-.5.05-.7.05-.15,0-.35.03-.6.04s-.51.04-.76.05c-.25.02-.47.03-.66.04-.19.01-.29.01-.31,0l-.16-.81c.06.05.14.09.22.11s.17.03.25.04c.66.05,1.3.04,1.94-.06.64-.1,1.3-.22,1.98-.39.03,0,.12-.04.26-.1.14-.06.3-.12.48-.2.17-.07.35-.15.53-.22.18-.08.31-.14.41-.19.12-.06.2-.11.26-.16s.1-.08.14-.11.07-.03.11-.02c.04,0,.11.05.2.12.01.01.04.04.09.09.05.05.08.08.08.1-.06.27-.12.5-.16.71-.05.21-.1.39-.15.57-.06.17-.12.34-.21.49-.08.16-.19.32-.32.48-.28.16-.57.32-.88.47-.31.16-.59.31-.85.47-.25.16-.46.32-.62.49s-.23.34-.22.52c.01.18.13.37.36.56.23.19.6.39,1.13.61.07.15.02.23-.13.23s-.36-.03-.61-.11c-.25-.08-.5-.19-.76-.32-.26-.13-.46-.27-.59-.41-.14-.11-.23-.22-.28-.34s-.07-.24-.06-.36c0-.12.04-.24.1-.36.05-.12.12-.23.21-.34Z"/>
    <path class="cls-7" d="m167.11,287.25c.09-.37.25-.68.47-.93.22-.25.48-.45.76-.6.29-.15.59-.25.91-.31.32-.05.63-.08.93-.06.3.01.58.06.83.15.25.08.45.19.59.32.14.13.22.28.22.45s-.09.34-.28.53c-.22.28-.5.45-.84.52-.34.07-.68.1-1.02.1-.34,0-.65,0-.93-.02-.28,0-.47.05-.56.16-.05.06-.05.14,0,.24s.11.19.2.29.18.19.27.28.16.15.2.19c.78.39,1.36.7,1.72.94s.57.41.62.51c.05.11-.01.15-.19.14-.18-.01-.43-.07-.75-.17s-.66-.25-1.04-.43-.73-.4-1.05-.63-.59-.5-.8-.78c-.21-.29-.3-.58-.27-.88Zm3.81-.95c-.14-.11-.31-.18-.5-.21-.19-.02-.38-.02-.58.02-.2.04-.39.1-.57.18-.18.08-.34.17-.47.26,0,.02.02.03.02.04l.03.03c.1.08.25.13.45.14.2.02.4,0,.61-.03.21-.03.41-.09.6-.16.19-.07.32-.16.41-.27Z"/>
    <path class="cls-7" d="m170.82,290.32c.05-.06.09-.11.12-.15s.06-.07.1-.09c.04-.02.08-.04.13-.06.05-.02.11-.04.2-.07.14-.05.38-.14.74-.27.36-.12.73-.25,1.13-.39.4-.14.78-.27,1.14-.39.36-.12.61-.21.75-.26.01,0,.04,0,.07.04s.05.04.07.06c.01,0,.04.03.07.06s.05.05.06.06c0,.01,0,.04,0,.09s0,.1.01.16c0,.06.01.11.01.16,0,.05,0,.08.02.09.06.05.15.08.25.1.1.01.22.02.33.03s.23.02.34.04.21.06.3.13c.09.07.16.16.21.27s.07.21.08.32,0,.22-.04.32c-.03.11-.08.2-.14.27-.13.17-.28.3-.44.42-.17.11-.34.22-.51.32-.17.1-.34.21-.5.32-.16.11-.31.24-.43.4-.12.16-.2.29-.21.38-.02.1.05.21.22.34.19.15.4.27.62.35s.42.2.61.34c-.14.17-.3.27-.5.31-.19.03-.4.02-.6-.04-.21-.05-.41-.14-.6-.25-.2-.11-.36-.23-.51-.34-.27-.21-.41-.45-.41-.7,0-.25.1-.51.3-.76.14-.17.29-.31.47-.41s.36-.19.55-.28c.19-.08.37-.17.55-.26.18-.09.33-.22.46-.38.03-.04.07-.11.12-.19.04-.08.02-.15-.05-.22-.24-.19-.51-.28-.82-.28-.31,0-.63.05-.96.16-.34.11-.67.24-1.01.41-.33.17-.65.32-.94.46-.29.14-.55.24-.77.31s-.38.06-.49-.02c-.15-.12-.23-.26-.25-.43-.02-.17.03-.32.14-.46Z"/>
  </g>
  <g>
    <path class="cls-4" d="m130.72,144.7c-.55,0-1.04-.08-1.49-.24-.45-.16-.84-.4-1.2-.72l.72-.88c.34.25.67.44,1,.57.33.13.65.19.97.19.48,0,.84-.07,1.08-.22s.36-.37.36-.67c0-.23-.08-.39-.24-.49-.16-.09-.37-.16-.63-.19-.26-.03-.54-.05-.83-.07-.25-.02-.5-.05-.74-.09-.25-.04-.47-.12-.67-.23-.2-.11-.36-.27-.48-.48-.12-.21-.18-.5-.18-.86,0-.65.2-1.14.6-1.47.4-.32,1-.49,1.79-.49.48,0,.93.07,1.35.2.42.13.81.33,1.17.6l-.73.88c-.31-.2-.61-.35-.91-.45-.3-.1-.59-.15-.88-.15-.41,0-.72.07-.93.21s-.31.35-.31.63c0,.19.07.32.21.4s.33.13.56.16c.23.02.48.05.75.07.26.02.52.04.78.09.26.04.51.12.73.24.22.12.4.3.53.53s.2.55.2.96c0,.66-.21,1.16-.64,1.48-.43.33-1.08.49-1.94.49Z"/>
    <path class="cls-4" d="m136.06,135.98v7.04c0,.15.03.26.1.34.07.08.16.12.28.12h.57v1.15h-.71c-.46,0-.81-.14-1.06-.43-.25-.29-.38-.69-.38-1.21v-7.03h1.21Z"/>
    <path class="cls-4" d="m140.73,144.7c-.81,0-1.43-.23-1.88-.7-.44-.47-.67-1.13-.67-1.98v-1c0-.84.22-1.5.67-1.96.44-.46,1.07-.69,1.88-.69s1.43.23,1.88.69c.44.46.67,1.12.67,1.96v1.02c0,.85-.22,1.5-.67,1.97-.44.46-1.07.7-1.88.7Zm0-1.15c.42,0,.75-.13.98-.4.23-.27.35-.64.35-1.12v-1.02c0-.48-.12-.85-.35-1.11-.23-.26-.56-.39-.98-.39s-.75.13-.98.39c-.23.26-.35.63-.35,1.11v1.02c0,.48.12.85.35,1.12.23.27.56.4.98.4Z"/>
    <path class="cls-4" d="m146.13,144.61l-1.9-6.17h1.27l1.09,4.4,1.54-4.4h.84l1.54,4.4,1.09-4.4h1.27l-1.9,6.17h-.91l-1.5-4.26-1.5,4.26h-.91Z"/>
    <path class="cls-4" d="m159.39,144.72c-.68,0-1.21-.22-1.58-.66-.37-.44-.56-1.05-.56-1.85v-1.36c0-.8.18-1.42.54-1.86s.87-.66,1.53-.66c.36,0,.7.1,1,.29.3.19.55.46.73.8l-.12,1.26c0-.26-.05-.49-.14-.67-.09-.19-.23-.33-.41-.42-.18-.1-.4-.15-.66-.15-.4,0-.71.12-.93.37-.22.25-.33.6-.33,1.05v1.34c0,.45.11.79.33,1.04.22.24.53.37.93.37.26,0,.48-.05.66-.15.18-.1.32-.25.41-.44.1-.19.14-.42.14-.68l.08,1.3c-.11.28-.3.53-.57.75-.27.22-.62.33-1.06.33Zm1.55-.11v-8.64h1.21v8.64h-1.21Z"/>
    <path class="cls-4" d="m165.97,144.7c-.76,0-1.32-.16-1.7-.47s-.57-.79-.57-1.44.17-1.07.52-1.38c.35-.3.87-.45,1.56-.45h1.75l.08.97h-1.83c-.31,0-.55.07-.71.21s-.24.36-.24.64c0,.31.1.54.31.7.21.15.53.23.94.23.46,0,.8-.05,1.03-.15.23-.1.34-.25.34-.46l.12.87c-.11.17-.24.3-.4.41-.16.11-.34.19-.54.24s-.43.08-.69.08Zm1.51-.09v-3.91c0-.4-.11-.72-.32-.94s-.52-.34-.92-.34c-.24,0-.48.04-.72.11-.24.07-.45.18-.63.32l-.89-.61c.23-.28.54-.5.92-.66s.81-.23,1.27-.23c.77,0,1.37.2,1.79.6.42.4.63.96.63,1.69v3.96h-1.15Z"/>
    <path class="cls-4" d="m169.99,139.54v-1.09h2.78v1.09h-2.78Zm2.08,5.1c-.51,0-.87-.14-1.1-.42s-.34-.69-.34-1.21v-6.36h1.21v6.37c0,.15.03.26.09.34s.15.12.26.12h.58v1.15h-.7Z"/>
    <path class="cls-4" d="m176.41,144.7c-.76,0-1.32-.16-1.7-.47s-.57-.79-.57-1.44.17-1.07.52-1.38c.35-.3.87-.45,1.56-.45h1.75l.08.97h-1.83c-.31,0-.55.07-.71.21s-.24.36-.24.64c0,.31.1.54.31.7.21.15.53.23.94.23.46,0,.8-.05,1.03-.15.23-.1.34-.25.34-.46l.12.87c-.11.17-.24.3-.4.41-.16.11-.34.19-.54.24s-.43.08-.69.08Zm1.51-.09v-3.91c0-.4-.11-.72-.32-.94s-.52-.34-.92-.34c-.24,0-.48.04-.72.11-.24.07-.45.18-.63.32l-.89-.61c.23-.28.54-.5.92-.66s.81-.23,1.27-.23c.77,0,1.37.2,1.79.6.42.4.63.96.63,1.69v3.96h-1.15Z"/>
    <path class="cls-4" d="m126.06,157.45l1.51-4.4h1.27l-2.32,6.17h-.91l-2.32-6.17h1.27l1.51,4.4Z"/>
    <path class="cls-4" d="m130.02,151.79v-1.21h1.21v1.21h-1.21Zm0,7.42v-6.17h1.21v6.17h-1.21Z"/>
    <path class="cls-4" d="m135.25,159.3c-.55,0-1.04-.08-1.49-.24-.45-.16-.84-.4-1.2-.72l.72-.88c.34.25.67.44,1,.57.33.13.65.19.97.19.48,0,.84-.07,1.08-.22s.36-.37.36-.67c0-.23-.08-.39-.24-.49-.16-.09-.37-.16-.63-.19-.26-.03-.54-.05-.83-.07-.25-.02-.5-.05-.74-.09-.25-.04-.47-.12-.67-.23-.2-.11-.36-.27-.48-.48-.12-.21-.18-.5-.18-.86,0-.65.2-1.14.6-1.47.4-.32,1-.49,1.79-.49.48,0,.93.07,1.35.2.42.13.81.33,1.17.6l-.73.88c-.31-.2-.61-.35-.91-.45-.3-.1-.59-.15-.88-.15-.41,0-.72.07-.93.21s-.31.35-.31.63c0,.19.07.32.21.4s.33.13.56.16c.23.02.48.05.75.07.26.02.52.04.78.09.26.04.51.12.73.24.22.12.4.3.53.53s.2.55.2.96c0,.66-.21,1.16-.64,1.48-.43.33-1.08.49-1.94.49Z"/>
    <path class="cls-4" d="m140.59,153.04v3.75c0,.43.11.76.33,1,.22.24.53.35.93.35s.71-.11.92-.32.32-.51.32-.89l.08,1.29c-.11.28-.3.53-.58.75s-.64.33-1.09.33c-.68,0-1.21-.22-1.58-.66-.37-.44-.56-1.05-.56-1.85v-3.75h1.21Zm2.51,6.17v-6.17h1.21v6.17h-1.21Z"/>
    <path class="cls-4" d="m148.11,159.3c-.76,0-1.32-.16-1.7-.47-.38-.31-.57-.79-.57-1.44s.17-1.07.52-1.38c.35-.3.87-.45,1.56-.45h1.75l.08.97h-1.83c-.31,0-.55.07-.71.21s-.24.36-.24.64c0,.31.1.54.31.7.21.15.52.23.94.23.46,0,.8-.05,1.03-.15.23-.1.34-.25.34-.46l.12.87c-.11.17-.24.3-.4.41-.16.11-.34.19-.54.24-.2.05-.43.08-.69.08Zm1.51-.09v-3.91c0-.4-.11-.72-.32-.94s-.52-.34-.92-.34c-.24,0-.48.04-.72.11-.24.07-.45.18-.63.32l-.89-.61c.23-.28.54-.5.92-.66.38-.16.81-.23,1.27-.23.77,0,1.37.2,1.79.6.42.4.64.96.64,1.69v3.96h-1.15Z"/>
    <path class="cls-4" d="m153.83,150.57v7.04c0,.15.03.26.1.34.07.08.16.12.28.12h.57v1.15h-.71c-.46,0-.81-.14-1.06-.43-.25-.29-.38-.69-.38-1.21v-7.03h1.21Z"/>
    <path class="cls-4" d="m156.14,151.79v-1.21h1.21v1.21h-1.21Zm0,7.42v-6.17h1.21v6.17h-1.21Z"/>
    <path class="cls-4" d="m161.37,159.3c-.55,0-1.04-.08-1.49-.24-.45-.16-.84-.4-1.2-.72l.72-.88c.34.25.67.44,1,.57.33.13.65.19.97.19.48,0,.84-.07,1.08-.22.24-.15.36-.37.36-.67,0-.23-.08-.39-.24-.49-.16-.09-.37-.16-.63-.19-.26-.03-.54-.05-.83-.07-.25-.02-.5-.05-.74-.09-.25-.04-.47-.12-.67-.23-.2-.11-.36-.27-.48-.48s-.18-.5-.18-.86c0-.65.2-1.14.6-1.47.4-.32,1-.49,1.79-.49.48,0,.93.07,1.35.2.42.13.81.33,1.17.6l-.73.88c-.31-.2-.61-.35-.91-.45-.3-.1-.59-.15-.88-.15-.41,0-.72.07-.93.21s-.31.35-.31.63c0,.19.07.32.21.4s.33.13.56.16.49.05.75.07c.26.02.52.04.78.09.26.04.51.12.73.24.22.12.4.3.54.53s.2.55.2.96c0,.66-.21,1.16-.64,1.48-.43.33-1.08.49-1.94.49Z"/>
    <path class="cls-4" d="m167.47,159.3c-.76,0-1.32-.16-1.7-.47-.38-.31-.57-.79-.57-1.44s.17-1.07.52-1.38.87-.45,1.56-.45h1.75l.08.97h-1.83c-.31,0-.55.07-.71.21s-.24.36-.24.64c0,.31.11.54.32.7.21.15.52.23.94.23.46,0,.8-.05,1.03-.15.23-.1.34-.25.34-.46l.12.87c-.11.17-.24.3-.4.41-.16.11-.34.19-.54.24-.2.05-.43.08-.69.08Zm1.51-.09v-3.91c0-.4-.11-.72-.32-.94s-.52-.34-.92-.34c-.24,0-.48.04-.72.11s-.45.18-.63.32l-.88-.61c.23-.28.54-.5.92-.66.38-.16.81-.23,1.27-.23.77,0,1.37.2,1.79.6.42.4.64.96.64,1.69v3.96h-1.15Z"/>
    <path class="cls-4" d="m171.5,154.14v-1.09h2.78v1.09h-2.78Zm2.08,5.1c-.51,0-.87-.14-1.1-.42s-.34-.69-.34-1.21v-6.36h1.21v6.37c0,.15.03.26.09.34s.15.12.26.12h.58v1.15h-.7Z"/>
    <path class="cls-4" d="m175.94,151.79v-1.21h1.21v1.21h-1.21Zm0,7.42v-6.17h1.21v6.17h-1.21Z"/>
    <path class="cls-4" d="m181.52,159.3c-.86,0-1.52-.24-2-.72-.47-.48-.71-1.16-.71-2.04v-.69c0-.92.23-1.63.68-2.13.45-.5,1.09-.75,1.92-.75.78,0,1.38.29,1.8.86.43.57.64,1.37.64,2.4v.4h-4.16v-.97h3c-.04-.5-.17-.89-.39-1.17s-.52-.42-.9-.42c-.46,0-.81.15-1.06.45-.25.3-.38.73-.38,1.28v.78c0,.51.14.9.41,1.18.27.27.65.41,1.14.41.25,0,.49-.05.73-.15.24-.1.46-.24.65-.42l.8.8c-.31.29-.65.52-1.03.68-.38.16-.76.24-1.15.24Z"/>
  </g>
  <g>
    <path class="cls-2" d="m193.32,130.04l-.86-4.12.98-.58,1.05,5.86-.71.42-4.65-3.72.98-.58,3.21,2.72Z"/>
    <path class="cls-2" d="m199.12,128.54c-.67.4-1.29.52-1.88.36s-1.09-.58-1.49-1.26l-.32-.54c-.42-.71-.58-1.37-.46-1.97.12-.6.5-1.09,1.14-1.47.6-.36,1.2-.41,1.8-.17.59.25,1.13.77,1.61,1.57l.19.31-3.23,1.92-.45-.76,2.34-1.39c-.26-.37-.54-.61-.84-.73-.3-.12-.6-.09-.89.09-.35.21-.56.49-.62.84-.06.35.04.74.29,1.17l.36.61c.24.4.52.64.86.73.34.09.7.02,1.08-.21.19-.11.36-.26.5-.45.14-.19.25-.4.31-.62l.99.25c-.1.37-.26.7-.48,1-.22.3-.48.54-.78.72Z"/>
    <path class="cls-2" d="m202.19,126.62l-2.85-4.79.94-.56,2.85,4.79-.94.56Zm.46-5.22c-.14-.05-.29-.07-.45-.04-.16.02-.32.08-.49.18-.3.18-.48.4-.55.66s-.01.54.16.83l-.65-.87c-.02-.37.04-.7.18-1,.14-.3.35-.53.63-.7.22-.13.44-.22.65-.26.21-.04.43-.04.63,0l-.12,1.2Z"/>
    <path class="cls-2" d="m206.22,124.22l-3.99-6.71.94-.56,3.99,6.71-.94.56Zm2.19-1.21c-.3.18-.6.26-.91.25-.31-.01-.59-.12-.85-.32l-.53-1.04c.12.21.26.36.42.46.16.1.33.15.52.14.19,0,.38-.07.58-.19.31-.18.49-.42.55-.71.06-.29-.01-.61-.22-.95l-.62-1.04c-.21-.35-.46-.57-.74-.67-.29-.09-.59-.05-.9.14-.2.12-.35.26-.45.41-.1.16-.14.33-.13.51,0,.18.08.38.2.58l-.65-.87c-.02-.37.04-.69.18-.99.14-.29.36-.52.64-.69.51-.31,1.01-.37,1.49-.2s.91.57,1.28,1.19l.62,1.04c.36.61.5,1.17.41,1.68-.09.51-.39.92-.92,1.24Z"/>
    <path class="cls-2" d="m207.93,115.4l-.56-.94.94-.56.56.94-.94.56Zm3.43,5.77l-2.85-4.79.94-.56,2.85,4.79-.94.56Z"/>
    <path class="cls-2" d="m213.74,119.76l-2.85-4.79.94-.56,2.85,4.79-.94.56Zm2.91-1.73l-1.73-2.9c-.2-.34-.44-.55-.73-.63-.28-.08-.58-.03-.9.16-.31.18-.5.41-.57.67-.07.26-.02.54.16.84l-.65-.87c-.02-.38.04-.71.18-1.01.14-.3.36-.53.65-.71.52-.31,1.02-.38,1.51-.21.49.17.91.57,1.29,1.19l1.73,2.91-.94.56Z"/>
    <path class="cls-2" d="m220.58,115.79c-.53.31-1.04.39-1.53.22s-.92-.56-1.29-1.18l-.63-1.06c-.37-.62-.51-1.19-.44-1.69.08-.51.38-.91.89-1.22.28-.17.59-.25.91-.24.32,0,.64.1.94.28l.48,1.04c-.12-.2-.26-.35-.42-.46-.16-.1-.33-.15-.52-.14-.19,0-.38.07-.58.19-.31.19-.49.42-.55.72-.05.29.02.62.23.97l.62,1.04c.21.35.45.56.74.65.28.09.58.04.89-.15.2-.12.35-.26.44-.42.09-.16.13-.34.12-.53-.01-.19-.08-.39-.2-.6l.66.97c.04.27,0,.55-.1.84-.11.3-.33.54-.67.75Zm1.16-.8l-3.99-6.71.94-.56,3.99,6.71-.94.56Z"/>
    <path class="cls-2" d="m220.68,107.81l-.56-.94.94-.56.56.94-.94.56Zm3.43,5.77l-2.85-4.79.94-.56,2.85,4.79-.94.56Z"/>
    <path class="cls-2" d="m226.49,112.17l-2.85-4.79.94-.56,2.85,4.79-.94.56Zm2.91-1.73l-1.73-2.9c-.2-.34-.44-.55-.73-.63-.28-.08-.58-.03-.9.16-.31.18-.5.41-.57.67-.07.26-.02.54.16.84l-.65-.87c-.02-.38.04-.71.18-1.01s.36-.53.65-.71c.52-.31,1.02-.38,1.51-.21.49.17.91.57,1.29,1.19l1.73,2.91-.94.56Z"/>
    <path class="cls-2" d="m233.33,108.21c-.53.31-1.04.39-1.53.22s-.92-.56-1.29-1.18l-.63-1.06c-.37-.62-.51-1.19-.44-1.69.08-.51.38-.91.89-1.22.28-.17.59-.25.91-.24.32,0,.64.1.94.28l.48,1.04c-.12-.2-.26-.35-.42-.46-.16-.1-.33-.15-.52-.14-.18,0-.38.07-.58.19-.31.18-.49.42-.55.72-.05.3.02.62.23.97l.62,1.04c.21.35.45.57.74.65.28.09.58.04.89-.15.2-.12.35-.26.44-.42.09-.16.13-.34.12-.53-.01-.19-.08-.39-.2-.6l.67.97c.04.27,0,.55-.1.84-.11.29-.33.54-.67.75Zm1.2,1.81c-.36.21-.72.34-1.09.37-.37.04-.7-.02-1-.17l.29-.96c.22.1.45.14.67.13.22,0,.43-.07.62-.18.36-.21.58-.48.66-.79.08-.32.01-.65-.21-1.02l-2.85-4.79.94-.56,2.76,4.65c.4.66.52,1.29.38,1.86-.14.58-.54,1.06-1.2,1.45Z"/>
  </g>
  <path class="cls-1" d="m97.81,71.25c10.2,5.69,18.84,13.11,25.74,21.69-15.84-4.94-32.41-5.19-47.92-1.26-3.59.89-7.13,2.04-10.58,3.38-18.42,7.21-34.55,20.63-44.94,39.26-1.42,2.55-2.7,5.13-3.84,7.75l1.29-42.22.98-32.09c1.28-.58,2.58-1.11,3.89-1.63,2.52-.99,5.08-1.86,7.69-2.6,11.41-3.31,23.5-4.33,35.49-2.84,11,1.36,21.93,4.83,32.2,10.55Z"/>
  <g>
    <path class="cls-7" d="m7.49,91.24c-.18.12-.33.34-.47.67-.14.33-.25.7-.32,1.11-.08.41-.1.83-.08,1.25.02.42.1.78.25,1.08.12.24.26.37.43.4.17.03.37,0,.6-.12.25-.12.47-.27.67-.45.2-.18.4-.36.6-.54.2-.19.4-.37.6-.54s.42-.33.67-.45c.06.11.09.22.09.31,0,.09,0,.2-.02.32-.32.42-.67.82-1.03,1.21-.36.39-.79.71-1.28.96-.15.07-.32.12-.5.15-.19.03-.38.03-.57,0-.19-.03-.36-.09-.53-.18-.16-.09-.29-.22-.37-.39-.18-.37-.31-.75-.38-1.15-.07-.4-.09-.8-.05-1.2.03-.4.11-.8.25-1.2.13-.39.31-.77.52-1.12h0c.08-.15.19-.29.31-.44.12-.15.25-.26.39-.35.13-.08.26-.11.4-.08.13.03.25.15.36.36.05.1.1.23.17.4.06.17.07.3.03.4-.05.07-.11.15-.2.24-.04.04-.08.08-.13.11l-.39-.77Z"/>
    <path class="cls-7" d="m10.57,93.94s-.05-.1-.09-.2c-.05-.1-.08-.17-.09-.21-.04-.72.02-1.44.17-2.15.15-.71.39-1.39.71-2.04.02,0,.04-.03.07-.06.03-.03.05-.05.07-.06.22-.11.43-.15.62-.13.19.02.37.09.53.2.16.11.3.25.43.41s.23.34.32.51c.16.32.25.69.28,1.11s-.01.84-.11,1.25c-.1.41-.27.79-.5,1.13-.23.34-.51.6-.85.77s-.64.21-.9.11c-.26-.1-.47-.31-.63-.64Zm.88-.62c.04.09.11.13.2.13.09,0,.17-.02.24-.06.2-.1.37-.26.51-.46.14-.21.24-.43.3-.67.07-.24.09-.49.08-.74-.01-.25-.07-.47-.16-.65-.04-.09-.1-.19-.17-.29-.07-.1-.14-.19-.23-.25-.08-.07-.18-.1-.29-.11-.11,0-.23.05-.37.16-.1.08-.18.25-.23.51s-.08.55-.09.87,0,.62.04.91c.04.29.09.51.16.66Z"/>
    <path class="cls-7" d="m15.09,92.27c-.04-.07-.07-.13-.09-.17-.02-.04-.03-.08-.04-.12s0-.09,0-.14c0-.05,0-.12.02-.21,0-.15.03-.41.07-.78s.08-.77.12-1.19c.04-.42.09-.82.13-1.2.04-.38.07-.64.08-.79,0-.01.02-.03.06-.05.04-.02.06-.03.08-.04.02,0,.04-.02.09-.04s.07-.03.08-.02c.01,0,.04.02.08.03.04.02.09.04.15.06.05.02.1.04.15.05.04.02.08.02.09.02.07-.04.14-.1.2-.19.06-.09.11-.19.17-.29.05-.1.11-.2.18-.3.07-.09.15-.17.24-.21.11-.05.22-.08.33-.07.11,0,.22.03.32.07.1.04.19.1.28.17.08.07.15.15.19.24.09.19.16.38.19.58.03.2.06.4.08.6.02.2.04.4.07.59.03.19.09.38.18.56.09.18.17.3.25.35.08.06.21.04.4-.06.22-.11.41-.25.58-.41.17-.17.36-.3.57-.41.1.2.12.39.07.58-.05.19-.15.37-.28.53-.14.17-.3.31-.48.44-.18.13-.36.23-.52.32-.31.16-.58.18-.81.08-.23-.1-.42-.3-.57-.6-.1-.2-.16-.4-.17-.6s-.02-.41-.02-.62,0-.41,0-.61c0-.2-.06-.39-.15-.58-.02-.05-.07-.11-.12-.18-.06-.07-.13-.09-.22-.04-.27.13-.47.34-.6.62s-.22.59-.26.94c-.04.35-.06.71-.05,1.08,0,.37.01.72.02,1.05,0,.32,0,.6-.04.83-.03.23-.1.37-.23.43-.17.09-.34.1-.5.05-.16-.05-.28-.16-.36-.32Z"/>
    <path class="cls-7" d="m20.26,89.41s-.03-.06-.05-.11c-.02-.05-.03-.07-.03-.08-.1-.26-.23-.58-.38-.98-.16-.4-.3-.78-.44-1.15-.14-.37-.31-.82-.52-1.36l.17-.48c.16-.03.29-.02.39.01.1.04.18.09.25.16.07.07.12.15.17.25s.1.2.15.29c.17.34.31.69.41,1.04.1.35.23.7.4,1.03,0,.02.03.05.06.11.03.06.06.1.06.11l1.42-4.67s.02-.03.06-.05l.08-.04c.08-.04.17-.06.26-.07.09,0,.16.05.21.15,0,0,0,.02,0,.02,0,0,0,.01,0,.02l.02.04c0,.09-.03.23-.05.42-.03.2-.06.41-.09.64-.03.23-.06.45-.09.65s-.05.34-.06.42c-.05.24-.11.52-.18.85-.06.33-.14.66-.23,1.01-.09.34-.19.68-.3,1.01-.12.33-.25.61-.41.85-.03.04-.07.11-.13.19-.06.08-.09.12-.1.13-.09.05-.19.06-.29.05-.1-.01-.21-.05-.31-.1s-.19-.11-.27-.18c-.08-.07-.14-.14-.17-.21Z"/>
    <path class="cls-7" d="m25.28,87.06c-.29-.24-.51-.51-.64-.82-.13-.31-.21-.62-.22-.94-.01-.32.02-.64.1-.95.08-.31.2-.6.34-.87.14-.27.3-.5.48-.69.18-.19.36-.33.54-.4.18-.07.34-.08.5-.01.16.07.28.22.36.48.16.32.2.65.12.98-.08.34-.2.66-.34.97-.15.31-.28.59-.41.84-.12.25-.15.44-.09.57.04.07.11.11.21.11.11,0,.22-.02.35-.06s.25-.08.36-.13c.12-.05.2-.08.26-.1.68-.55,1.21-.93,1.57-1.16.36-.23.61-.34.73-.35.12,0,.14.07.05.24-.09.16-.25.36-.47.6-.23.24-.5.49-.83.76-.33.27-.67.49-1.02.69-.35.19-.7.32-1.05.4-.35.07-.65.03-.91-.12Zm.74-3.86c-.16.08-.29.2-.4.37-.1.16-.18.34-.23.54-.05.19-.08.39-.08.59,0,.2.01.38.04.54.02,0,.03,0,.04,0l.04-.02c.11-.06.22-.17.32-.34.1-.17.18-.36.23-.57.06-.21.09-.41.11-.61.01-.2-.01-.36-.07-.48Z"/>
    <path class="cls-7" d="m31.95,83.33c-.12-.24-.18-.5-.19-.76,0-.26.01-.51.04-.76.03-.25.05-.49.05-.73s-.04-.46-.15-.68c-.02-.05-.06-.11-.09-.17-.04-.07-.08-.13-.13-.19-.04-.06-.1-.1-.16-.13-.06-.03-.12-.03-.17,0,0,0-.02.01-.04.03-.02.01-.03.03-.02.03-.04.21-.09.45-.15.73-.06.27-.14.55-.22.82-.09.28-.17.54-.26.8-.08.26-.17.48-.25.66-.05.14-.12.33-.21.57-.09.24-.18.48-.27.71-.09.23-.17.44-.24.62-.07.18-.11.27-.13.28l-.8-.19c.07-.04.14-.09.19-.16.05-.07.1-.14.15-.21.33-.57.58-1.17.76-1.79.18-.62.34-1.27.48-1.95,0-.03.01-.13.02-.28,0-.15.02-.33.02-.52,0-.19.01-.38.02-.58,0-.19,0-.34,0-.45,0-.13-.02-.23-.04-.3s-.03-.13-.04-.17c0-.04,0-.08.03-.11.02-.03.09-.08.2-.13.02,0,.06-.02.12-.05.06-.02.11-.03.13-.03.22.17.41.32.58.45.17.13.32.26.45.38.13.12.25.25.36.39s.21.3.3.49c.03.32.05.66.06,1s.03.67.07.97c.04.3.1.55.18.77.08.21.21.35.38.42s.39.03.66-.09c.27-.12.61-.38,1.03-.77.16,0,.21.07.16.22s-.18.32-.35.5c-.17.19-.38.38-.61.56s-.44.3-.62.36c-.16.08-.3.12-.42.11-.13,0-.25-.03-.35-.09-.11-.06-.2-.14-.29-.24-.09-.1-.16-.21-.22-.33Z"/>
    <path class="cls-7" d="m33.81,81.88c-.08-.16-.12-.3-.14-.44s.08-.25.26-.35c.02,0,.06-.03.12-.05s.11-.04.14-.05c.18.39.39.64.62.77.23.13.52.1.88-.08.29-.15.56-.34.8-.57.24-.23.43-.49.58-.79.14-.29.22-.6.24-.92.02-.32-.06-.64-.21-.96-.1-.2-.23-.3-.41-.31-.18-.01-.36,0-.54.03-.19.03-.36.05-.53.06-.17,0-.29-.07-.36-.22-.09-.19-.07-.42.07-.71.14-.29.33-.57.58-.86.24-.29.5-.55.76-.78.27-.23.48-.39.64-.47.12.24.15.43.1.58-.05.15-.14.29-.26.42-.12.13-.24.26-.36.39-.12.13-.2.29-.22.49.18.04.34.08.47.12.13.04.24.1.34.17s.19.17.26.27c.08.11.16.25.24.41.21.42.31.85.3,1.29,0,.44-.1.86-.27,1.25-.17.4-.41.75-.71,1.08-.31.32-.66.58-1.05.78-.21.11-.43.18-.66.23-.23.05-.44.05-.65.01-.21-.04-.4-.12-.57-.25-.18-.13-.32-.31-.44-.54Z"/>
    <path class="cls-7" d="m40.02,79.47c-.16-.5-.24-1-.23-1.49,0-.49.07-.95.19-1.37s.29-.8.5-1.15c.21-.34.46-.61.72-.81s.54-.32.83-.36c.29-.04.57.02.85.19.09.19.14.39.14.6s0,.43-.02.65c-.02.22-.02.44-.02.67,0,.22.06.44.16.64.11.21.24.36.4.44.16.08.35.06.59-.06.2-.1.37-.22.53-.37.15-.15.33-.27.51-.36.03-.02.09-.04.17-.08.08-.03.13-.06.16-.07-.03.19-.09.37-.2.54-.11.18-.23.34-.36.5s-.29.29-.46.42c-.17.12-.33.23-.48.3-.15.07-.29.11-.44.1-.15,0-.29-.04-.42-.11-.13-.06-.26-.15-.37-.27-.11-.11-.2-.23-.27-.36-.05.2-.11.41-.18.63-.07.22-.15.43-.25.64-.1.2-.22.39-.36.56-.14.17-.31.31-.51.41-.21.11-.44.12-.67.04-.24-.08-.41-.23-.52-.45Zm.62-.78c.03.07.07.14.12.22s.12.11.23.08c.18-.15.36-.38.53-.67.18-.3.32-.62.44-.95.12-.34.19-.67.21-1.01.03-.33-.02-.62-.14-.86,0-.02-.02-.04-.05-.08-.02-.03-.04-.06-.05-.08-.28.14-.53.34-.76.59-.23.26-.41.54-.53.86-.13.31-.2.64-.21.97-.01.33.05.64.2.93Z"/>
    <path class="cls-7" d="m44.96,76.5c-.12-.24-.19-.49-.22-.78-.03-.28-.04-.57-.04-.86,0-.29.01-.59.03-.88s0-.56-.05-.82c-.11.17-.22.28-.32.35-.1.07-.23.14-.39.22-.02,0-.07.03-.16.07-.09.04-.14.06-.17.08-.04-.2-.03-.41.03-.62s.15-.4.26-.59.25-.36.4-.52c.15-.16.29-.3.41-.41.05-.51.06-.99.02-1.46-.04-.46-.07-.92-.1-1.37-.03-.45-.02-.9.03-1.35.05-.45.18-.9.41-1.37l.29.43.27,4.35c.08-.07.17-.15.29-.24.12-.09.24-.18.36-.27.12-.09.24-.18.36-.26.12-.08.21-.16.29-.23,0,0,.03-.02.07-.04s.07-.04.09-.06c.11-.06.22-.08.31-.08.09,0,.2.06.32.18-.47.44-.89.86-1.25,1.27-.36.4-.63.83-.81,1.29-.19.46-.27.96-.26,1.5.02.55.16,1.19.42,1.92.07.15.15.28.23.39.08.11.22.14.42.07.19-.09.34-.22.47-.37.13-.16.25-.31.36-.48.11-.16.23-.32.35-.47.12-.15.28-.28.46-.37.1.2.1.42.01.67s-.22.49-.4.74c-.18.24-.38.46-.6.65-.22.19-.41.33-.57.41-.16.08-.33.12-.49.12s-.31-.03-.46-.1c-.14-.07-.27-.16-.39-.29s-.22-.26-.29-.42Z"/>
    <path class="cls-7" d="m48.37,75.28c-.06-.11-.1-.22-.11-.32-.02-.1-.03-.23-.03-.4.02-.11.04-.32.08-.62.04-.3.07-.62.11-.96.04-.33.08-.65.12-.95.04-.3.06-.51.08-.63.02-.14.05-.23.08-.26.04-.03.11-.07.23-.13.07-.04.16-.07.24-.11.09-.03.17,0,.25.09.03.33,0,.67-.06,1.02-.07.34-.13.69-.19,1.02-.06.34-.1.67-.11.99-.01.33.06.64.21.93.03-.02.09-.04.16-.06.07-.03.15-.06.24-.09.09-.03.17-.06.24-.09.07-.03.12-.05.15-.08.04-.03.12-.09.22-.18.1-.09.21-.18.33-.28.12-.1.23-.2.34-.29.11-.09.18-.16.22-.2,0,.02.02.04.04.08.02.03.04.06.05.08.08.16.07.34-.02.52-.1.18-.23.35-.4.51-.17.16-.35.3-.55.43-.2.12-.35.22-.47.27-.12.06-.25.11-.39.14-.14.04-.28.04-.41.03-.13-.02-.25-.06-.36-.13-.11-.07-.21-.18-.28-.33Zm-.03-8.95c.11-.05.21-.1.3-.13.09-.04.18-.05.26-.06.08,0,.16.02.23.07s.14.12.2.24c.02.05.05.1.08.16.03.06.05.11.06.17.01.06.01.12,0,.17-.01.05-.06.1-.13.13-.11.06-.23.06-.34.02-.11-.05-.21-.12-.3-.21s-.16-.19-.23-.31-.11-.19-.14-.25Z"/>
    <path class="cls-7" d="m51.31,73.52s-.05-.1-.1-.2c-.05-.1-.08-.17-.09-.21-.04-.72.02-1.44.17-2.15.15-.71.39-1.39.71-2.04.02,0,.04-.03.07-.06.03-.03.05-.05.07-.06.22-.11.42-.15.61-.13.19.02.37.09.53.2.16.11.3.25.43.41.12.17.23.34.32.51.16.32.25.69.28,1.11.03.42-.01.84-.12,1.25s-.27.79-.49,1.13c-.23.34-.51.6-.85.77-.34.17-.64.21-.9.11s-.47-.31-.63-.64Zm.88-.62c.04.09.11.13.2.13.09,0,.17-.02.24-.06.2-.1.37-.26.51-.46.14-.21.24-.43.3-.67.07-.24.09-.49.08-.74-.01-.25-.07-.47-.16-.65-.04-.09-.1-.19-.17-.29s-.14-.19-.23-.25c-.08-.07-.18-.1-.29-.11-.11,0-.23.05-.37.16-.1.08-.18.25-.23.51-.05.26-.08.55-.09.87s0,.62.04.91c.04.29.09.51.16.66Z"/>
    <path class="cls-7" d="m55.83,71.85l-.09-.17s-.03-.08-.04-.12c0-.04,0-.09,0-.14,0-.05.01-.12.02-.21,0-.15.03-.41.07-.78s.08-.77.12-1.19c.04-.42.09-.82.13-1.2.04-.38.07-.64.08-.79,0-.01.02-.03.06-.05.04-.02.06-.03.08-.04.02,0,.04-.02.08-.04s.07-.03.08-.02c.01,0,.04.02.08.03.04.02.1.04.15.06.05.02.11.04.15.05.04.02.07.02.09.02.07-.04.14-.1.2-.19.06-.09.11-.19.17-.29.06-.1.12-.2.18-.3.06-.09.15-.17.24-.21.11-.05.22-.08.33-.07.11,0,.22.03.32.07.1.04.19.1.28.17.08.07.14.15.19.24.09.19.16.38.19.58.03.2.06.4.08.6.02.2.04.4.07.59.03.19.09.38.18.56.09.18.17.3.25.35.08.06.21.04.4-.05.22-.11.41-.25.58-.41.17-.17.36-.3.57-.41.1.2.12.39.07.58-.05.19-.15.37-.28.53-.14.17-.3.31-.48.44-.19.13-.36.23-.52.32-.31.16-.58.18-.81.08-.23-.1-.42-.3-.57-.6-.1-.2-.16-.4-.17-.6-.02-.21-.02-.41-.02-.62,0-.21,0-.41,0-.61,0-.2-.06-.39-.15-.58-.02-.05-.06-.11-.12-.18-.06-.07-.13-.09-.22-.04-.27.13-.47.34-.6.62-.13.28-.22.59-.26.94-.04.35-.06.71-.05,1.08,0,.37.02.72.02,1.05,0,.32,0,.6-.04.83-.03.23-.1.37-.23.43-.17.09-.34.1-.5.05-.16-.05-.28-.16-.36-.32Z"/>
    <path class="cls-7" d="m14.49,116.34s0-.03-.02-.05c0-.03-.01-.04-.02-.05,0-.03,0-.07-.01-.12,0-.05-.01-.11-.02-.17,0-.06-.02-.11-.02-.17,0-.05,0-.09,0-.11,0-.14-.02-.36-.03-.67,0-.31-.02-.65-.03-1.04,0-.39-.02-.79-.03-1.21s-.02-.83-.04-1.21c-.01-.39-.02-.73-.03-1.04,0-.31-.01-.54-.02-.69.02-.22.07-.5.15-.82.08-.32.17-.66.29-1.02.12-.35.26-.71.42-1.07.16-.36.33-.69.51-1,.18-.31.36-.58.56-.82.2-.24.39-.4.59-.5.29-.15.53-.2.7-.15.18.04.35.23.51.56.18.35.28.73.32,1.15.04.41.02.83-.05,1.26-.07.42-.2.84-.38,1.24-.18.41-.4.78-.65,1.11-.26.33-.55.62-.88.86-.33.24-.68.4-1.05.49l-.08.24.4,4.76c.01.09-.03.17-.14.25-.1.08-.19.13-.27.17-.11.05-.23.07-.37.05-.14-.02-.24-.08-.3-.21Zm2.74-8.82c.18-.6.26-1.05.26-1.35,0-.3-.07-.48-.18-.54-.11-.07-.26-.04-.45.09-.18.12-.37.3-.56.54-.19.24-.36.51-.51.82-.16.31-.26.62-.31.92-.03.12-.07.27-.11.46-.04.19-.08.37-.11.56-.04.19-.06.35-.08.49-.02.14-.03.22-.02.24l.13.26c.56-.28,1-.61,1.32-.97s.52-.87.62-1.51Z"/>
    <path class="cls-7" d="m20.06,108.27c-.06-.11-.09-.22-.11-.32s-.03-.23-.03-.4c.02-.11.04-.32.08-.62.04-.3.08-.62.12-.96.04-.34.08-.65.12-.95.04-.3.06-.51.08-.63.02-.14.05-.23.08-.26.04-.03.11-.07.23-.13.07-.04.15-.07.24-.11.09-.03.17,0,.25.09.02.33,0,.67-.06,1.02s-.13.69-.19,1.02c-.06.34-.1.67-.11.99-.01.33.06.64.21.93.03-.02.09-.04.16-.06.07-.03.15-.06.24-.09.08-.03.17-.06.24-.09.07-.03.12-.05.15-.08.04-.03.12-.09.22-.18.1-.09.21-.18.33-.28.12-.1.23-.2.34-.29.11-.09.18-.16.22-.2,0,.02.02.04.05.08.02.04.04.06.05.08.08.16.07.34-.02.52-.1.18-.23.35-.4.51s-.35.3-.55.43-.35.22-.47.27c-.12.06-.25.11-.39.14-.14.03-.28.04-.41.03-.13-.02-.25-.06-.36-.13-.11-.07-.21-.18-.28-.33Zm-.03-8.95c.11-.05.21-.1.3-.13.09-.04.18-.05.26-.06.08,0,.16.02.23.07.07.04.14.12.2.24.02.05.05.1.08.16.03.06.05.12.06.17s.01.12,0,.17c-.01.05-.06.1-.13.13-.11.06-.23.06-.34.02-.11-.05-.21-.12-.3-.21-.09-.09-.17-.2-.23-.31-.06-.11-.11-.19-.14-.25Z"/>
    <path class="cls-7" d="m23.17,106.91c-.29-.24-.51-.51-.64-.82s-.21-.62-.22-.94c-.01-.32.02-.64.1-.95.08-.31.19-.6.33-.87.14-.27.3-.5.49-.69.18-.19.36-.33.54-.4s.34-.08.5-.01c.16.06.28.22.36.48.16.32.2.64.12.98s-.2.66-.34.97c-.15.31-.28.59-.41.84-.12.25-.15.44-.09.57.04.07.11.11.21.11.11,0,.22-.02.35-.06.12-.04.25-.08.36-.13.12-.05.2-.08.26-.1.68-.55,1.21-.93,1.57-1.16.36-.23.61-.34.73-.35.12,0,.14.07.05.24-.09.16-.24.36-.47.6-.23.24-.5.49-.83.76s-.67.49-1.02.69c-.35.19-.7.32-1.05.4-.35.07-.65.03-.91-.12Zm.74-3.86c-.16.08-.29.2-.4.37-.1.16-.18.34-.23.54-.05.19-.08.39-.08.59,0,.2.01.38.04.54.02,0,.03,0,.04,0l.04-.02c.12-.06.22-.17.32-.34s.18-.36.23-.57c.06-.21.09-.41.11-.61.01-.2-.01-.36-.07-.48Z"/>
    <path class="cls-7" d="m28.36,99.56c-.18.12-.33.34-.47.67-.14.33-.25.7-.32,1.11-.08.41-.1.83-.08,1.25.02.42.1.78.25,1.08.12.24.26.37.43.4.17.03.37,0,.6-.12.25-.12.47-.27.67-.45.2-.18.4-.36.6-.55.2-.19.4-.37.6-.54.2-.18.42-.33.67-.45.06.11.09.22.1.31,0,.09,0,.2-.02.32-.32.42-.66.82-1.03,1.21-.36.39-.79.71-1.28.96-.15.07-.32.12-.5.15-.19.03-.38.03-.57,0-.19-.03-.36-.09-.53-.18-.16-.09-.29-.22-.37-.39-.18-.37-.31-.75-.38-1.15-.07-.4-.08-.8-.05-1.2s.12-.8.25-1.2c.13-.39.31-.77.52-1.12h0c.08-.15.19-.29.31-.44.12-.15.25-.26.38-.35.13-.08.26-.11.4-.08.13.03.25.15.36.36.05.1.11.23.17.4.06.17.07.3.03.4-.04.07-.11.15-.2.24-.04.04-.08.08-.13.11l-.39-.77Z"/>
    <path class="cls-7" d="m31.62,102.67c-.29-.24-.51-.51-.64-.82s-.21-.62-.22-.94c-.01-.32.02-.64.1-.95.08-.31.2-.6.33-.87.14-.27.3-.5.49-.69.18-.19.36-.33.54-.4s.34-.08.5-.01c.16.07.28.22.36.48.16.32.2.65.12.98s-.2.66-.34.97c-.15.31-.28.59-.41.84-.12.25-.15.44-.09.57.04.07.11.11.21.11.11,0,.22-.02.35-.06s.25-.08.36-.13c.12-.05.2-.08.26-.1.68-.55,1.21-.93,1.57-1.16.37-.23.61-.34.73-.35.12,0,.14.07.05.24-.09.16-.24.36-.47.6-.23.24-.5.49-.83.76s-.67.49-1.02.69c-.35.19-.7.32-1.05.4-.35.07-.65.03-.91-.12Zm.74-3.86c-.16.08-.29.2-.4.37-.1.16-.18.34-.23.54-.05.19-.08.39-.08.59,0,.2.01.38.04.54.02,0,.03,0,.04,0l.04-.02c.11-.06.22-.17.32-.34.1-.17.18-.36.24-.57.06-.21.09-.41.11-.61.01-.2-.01-.36-.07-.48Z"/>
  </g>
</svg>