<?xml version="1.0" encoding="UTF-8"?>
<svg id="tekst" xmlns="http://www.w3.org/2000/svg" viewBox="0 0 294.93 298.86">
  <defs>
    <style>
      .cls-1 {
        opacity: .91;
      }

      .cls-1, .cls-2 {
        fill: #81ccdb;
      }

      .cls-3 {
        fill: #de5543;
      }

      .cls-4 {
        fill: #2a5135;
      }

      .cls-5 {
        fill: #ec5f60;
      }

      .cls-6 {
        fill: #ad4241;
      }

      .cls-7 {
        fill: #f39e9e;
      }

      .cls-8 {
        fill: #1d1d1b;
      }
    </style>
  </defs>
  <path class="cls-7" d="m238.39,88.44c0,13-2.81,25.35-7.85,36.47-3.84,8.49-8.99,16.25-15.17,23.05-2.87,3.14-5.96,6.08-9.24,8.79-7.26,5.97-15.49,10.81-24.42,14.24-9.86,3.8-20.57,5.88-31.76,5.88-25.92,0-49.23-11.15-65.41-28.91-14.3-15.71-23.02-36.6-23.02-59.52C61.52,39.6,101.11,0,149.95,0c21.33,0,40.91,7.55,56.18,20.12,19.7,16.23,32.26,40.81,32.26,68.32Z"/>
  <g>
    <path class="cls-3" d="m179.86,177.27c0,27.51-12.56,52.09-32.26,68.31-15.27,12.58-34.85,20.13-56.18,20.13-48.84,0-88.43-39.6-88.43-88.44,0-22.92,8.72-43.8,23.02-59.51,16.17-17.78,39.49-28.93,65.41-28.93,11.19,0,21.9,2.08,31.76,5.88,8.93,3.43,17.16,8.28,24.42,14.25,3.29,2.71,6.38,5.65,9.24,8.8,6.19,6.79,11.33,14.56,15.17,23.04,5.04,11.12,7.85,23.47,7.85,36.47Z"/>
    <path class="cls-5" d="m294.93,177.27c0,48.84-39.6,88.44-88.44,88.44-21.33,0-40.89-7.55-56.16-20.13-19.71-16.21-32.27-40.8-32.27-68.31,0-13.01,2.81-25.36,7.85-36.48,3.85-8.48,8.99-16.24,15.17-23.03,2.87-3.15,5.96-6.1,9.25-8.8,7.26-5.98,15.48-10.82,24.41-14.25,9.86-3.8,20.56-5.88,31.75-5.88,25.92,0,49.24,11.15,65.42,28.93,14.3,15.71,23.02,36.59,23.02,59.51Z"/>
  </g>
  <path class="cls-1" d="m239.48,145.54c-10.24,5.62-21.11,9.01-32.05,10.3,12.6-10.8,21.6-24.71,26.5-39.94,1.15-3.52,2.06-7.12,2.75-10.76,3.67-19.44.86-40.23-9.41-58.93-1.41-2.56-2.92-5.02-4.53-7.37l35.09,23.51,26.68,17.86c-.19,1.39-.43,2.78-.68,4.16-.5,2.66-1.12,5.29-1.88,7.9-3.25,11.43-8.8,22.21-16.43,31.58-6.99,8.6-15.73,16.02-26.04,21.68Z"/>
  <path class="cls-1" d="m112.87,227.46c.16-11.68,2.58-22.81,6.85-32.96,3.18,16.28,10.84,30.98,21.67,42.76,2.49,2.73,5.18,5.3,8.01,7.7,15.1,12.78,34.57,20.59,55.9,20.88,2.92.04,5.8-.06,8.64-.3l-37.76,18.93-28.7,14.39c-1.12-.86-2.21-1.74-3.28-2.65-2.07-1.75-4.05-3.59-5.95-5.53-8.34-8.46-14.98-18.62-19.36-29.88-4.03-10.33-6.18-21.59-6.02-33.35Z"/>
  <path class="cls-1" d="m93.55,70.87c10.11,5.84,18.64,13.39,25.42,22.07-15.76-5.18-32.33-5.67-47.9-1.97-3.6.84-7.15,1.93-10.63,3.23-18.52,6.94-34.85,20.12-45.52,38.59-1.46,2.53-2.78,5.09-3.96,7.69l1.92-42.2,1.46-32.07c1.29-.56,2.6-1.08,3.91-1.57,2.53-.95,5.11-1.78,7.73-2.49,11.46-3.14,23.56-3.98,35.53-2.31,10.98,1.53,21.85,5.15,32.04,11.03Z"/>
  <path class="cls-4" d="m238.19,94.66c-.75,10.71-3.41,20.9-7.63,30.22-3.84,8.49-8.99,16.25-15.17,23.05-2.87,3.14-5.96,6.08-9.24,8.79-7.26,5.97-15.49,10.81-24.42,14.24-.68.26-1.35.51-2.04.75.12,1.83.18,3.67.18,5.53,0,26.87-11.98,50.94-30.89,67.16-18.93-16.2-30.91-40.29-30.91-67.16,0-2.1.07-4.19.22-6.25-13-4.98-24.52-12.95-33.73-23.06-13.14-14.44-21.57-33.26-22.84-54.01,9.29-3.32,19.29-5.12,29.71-5.12,11.19,0,21.9,2.08,31.76,5.88,8.93,3.43,17.16,8.28,24.42,14.25.46.38.91.76,1.36,1.15.45-.39.91-.77,1.37-1.15,7.26-5.98,15.48-10.82,24.41-14.25,9.86-3.8,20.56-5.88,31.75-5.88s21.85,2.07,31.69,5.86Z"/>
  <circle class="cls-2" cx="148.01" cy="149.18" r="35.15"/>
  <g>
    <path class="cls-8" d="m113.4,58.28l2.23-6.51h1.87l-3.43,9.12h-1.35l-3.43-9.12h1.87l2.23,6.51Z"/>
    <path class="cls-8" d="m122.82,61.02c-1.27,0-2.26-.35-2.95-1.06s-1.05-1.72-1.05-3.02v-1.03c0-1.36.33-2.41,1.01-3.16s1.62-1.12,2.83-1.12c1.15,0,2.04.42,2.67,1.27s.95,2.03.95,3.55v.6h-6.15v-1.44h4.45c-.05-.74-.25-1.32-.58-1.73s-.77-.62-1.33-.62c-.67,0-1.2.22-1.57.67s-.56,1.08-.56,1.89v1.16c0,.76.2,1.34.6,1.74s.97.61,1.69.61c.36,0,.72-.07,1.08-.22s.68-.35.96-.62l1.18,1.18c-.45.43-.96.77-1.52,1.01s-1.13.36-1.7.36Z"/>
    <path class="cls-8" d="m128.73,60.89v-9.12h1.79v9.12h-1.79Zm5.02-6.96c-.16-.19-.36-.34-.6-.44s-.52-.15-.83-.15c-.57,0-1.01.16-1.32.47-.31.31-.47.75-.47,1.31l-.18-1.76c.28-.54.64-.96,1.08-1.27.45-.3.94-.46,1.48-.46.42,0,.79.06,1.13.18.34.12.63.3.88.53l-1.17,1.58Z"/>
    <path class="cls-8" d="m136.42,60.89v-12.78h1.79v12.78h-1.79Zm.66-1.34l.11-2.13,4.69-5.66h2.11l-6.92,7.79Zm5.41,1.34l-3.18-5.26,1.15-1.2,3.98,6.46h-1.95Z"/>
    <path class="cls-8" d="m149.67,61.02c-1.27,0-2.26-.35-2.95-1.06s-1.05-1.72-1.05-3.02v-1.03c0-1.36.33-2.41,1.01-3.16s1.62-1.12,2.83-1.12c1.15,0,2.04.42,2.67,1.27s.95,2.03.95,3.55v.6h-6.15v-1.44h4.45c-.05-.74-.25-1.32-.58-1.73s-.77-.62-1.33-.62c-.67,0-1.2.22-1.57.67s-.56,1.08-.56,1.89v1.16c0,.76.2,1.34.6,1.74s.97.61,1.69.61c.36,0,.72-.07,1.08-.22s.68-.35.96-.62l1.18,1.18c-.45.43-.96.77-1.52,1.01s-1.13.36-1.7.36Z"/>
    <path class="cls-8" d="m155.58,60.89v-9.12h1.79v9.12h-1.79Zm5.54,0v-5.53c0-.64-.17-1.14-.5-1.49-.33-.35-.8-.53-1.41-.53s-1.04.16-1.36.47-.48.75-.48,1.31l-.18-1.76c.28-.55.65-.98,1.1-1.27s.96-.45,1.51-.45c.99,0,1.76.32,2.3.97.54.65.81,1.56.81,2.75v5.54h-1.79Z"/>
    <path class="cls-8" d="m165.64,60.89v-9.12h1.79v9.12h-1.79Zm5.54,0v-5.53c0-.64-.17-1.14-.5-1.49-.33-.35-.8-.53-1.41-.53s-1.04.16-1.36.47-.48.75-.48,1.31l-.18-1.76c.28-.55.65-.98,1.1-1.27s.96-.45,1.51-.45c.99,0,1.76.32,2.3.97.54.65.81,1.56.81,2.75v5.54h-1.79Z"/>
    <path class="cls-8" d="m179.43,61.02c-1.27,0-2.26-.35-2.95-1.06s-1.05-1.72-1.05-3.02v-1.03c0-1.36.33-2.41,1.01-3.16s1.62-1.12,2.83-1.12c1.15,0,2.04.42,2.67,1.27s.95,2.03.95,3.55v.6h-6.15v-1.44h4.45c-.05-.74-.25-1.32-.58-1.73s-.77-.62-1.33-.62c-.67,0-1.2.22-1.57.67s-.56,1.08-.56,1.89v1.16c0,.76.2,1.34.6,1.74s.97.61,1.69.61c.36,0,.72-.07,1.08-.22s.68-.35.96-.62l1.18,1.18c-.45.43-.96.77-1.52,1.01s-1.13.36-1.7.36Z"/>
    <path class="cls-8" d="m185.34,60.89v-9.12h1.79v9.12h-1.79Zm5.54,0v-5.53c0-.64-.17-1.14-.5-1.49-.33-.35-.8-.53-1.41-.53s-1.04.16-1.36.47-.48.75-.48,1.31l-.18-1.76c.28-.55.65-.98,1.1-1.27s.96-.45,1.51-.45c.99,0,1.76.32,2.3.97.54.65.81,1.56.81,2.75v5.54h-1.79Z"/>
  </g>
  <g>
    <path class="cls-8" d="m194.02,197.91l2.23-6.51h1.87l-3.43,9.12h-1.35l-3.43-9.12h1.87l2.23,6.51Z"/>
    <path class="cls-8" d="m203.44,200.65c-1.27,0-2.26-.35-2.95-1.06s-1.05-1.72-1.05-3.02v-1.03c0-1.36.33-2.41,1.01-3.16s1.62-1.12,2.83-1.12c1.15,0,2.04.42,2.67,1.27s.95,2.03.95,3.55v.6h-6.15v-1.44h4.45c-.05-.74-.25-1.32-.58-1.73s-.77-.62-1.33-.62c-.67,0-1.2.22-1.57.67s-.56,1.08-.56,1.89v1.16c0,.76.2,1.34.6,1.74s.97.61,1.69.61c.36,0,.72-.07,1.08-.22s.68-.35.96-.62l1.18,1.18c-.45.43-.96.77-1.52,1.01-.56.24-1.13.36-1.7.36Z"/>
    <path class="cls-8" d="m209.36,200.52v-9.12h1.79v9.12h-1.79Zm5.02-6.96c-.16-.19-.36-.34-.6-.44s-.52-.15-.83-.15c-.57,0-1.01.16-1.32.47s-.47.75-.47,1.31l-.18-1.76c.28-.54.64-.96,1.08-1.27.45-.3.94-.46,1.48-.46.42,0,.79.06,1.13.18.34.12.63.3.88.53l-1.17,1.58Z"/>
    <path class="cls-8" d="m217.04,200.52v-12.78h1.79v12.78h-1.79Zm4.09.13c-.57,0-1.06-.14-1.49-.41-.42-.27-.73-.66-.93-1.16l.12-1.91c0,.39.07.73.21,1s.34.49.61.63c.27.15.59.22.97.22.59,0,1.05-.18,1.38-.54.33-.36.49-.87.49-1.53v-1.98c0-.67-.16-1.19-.49-1.56-.32-.37-.78-.55-1.38-.55-.38,0-.71.07-.97.21-.27.14-.47.35-.61.62s-.21.6-.21.98l-.18-1.76c.28-.53.64-.94,1.08-1.24.45-.29.94-.43,1.49-.43.98,0,1.73.32,2.27.97s.8,1.56.8,2.75v1.99c0,1.17-.28,2.07-.83,2.72s-1.33.97-2.33.97Z"/>
    <path class="cls-8" d="m230.57,200.65c-1.27,0-2.26-.35-2.95-1.06s-1.05-1.72-1.05-3.02v-1.03c0-1.36.33-2.41,1.01-3.16s1.62-1.12,2.83-1.12c1.15,0,2.04.42,2.67,1.27s.95,2.03.95,3.55v.6h-6.15v-1.44h4.45c-.05-.74-.25-1.32-.58-1.73s-.77-.62-1.33-.62c-.67,0-1.2.22-1.57.67s-.56,1.08-.56,1.89v1.16c0,.76.2,1.34.6,1.74s.97.61,1.69.61c.36,0,.72-.07,1.08-.22s.68-.35.96-.62l1.18,1.18c-.45.43-.96.77-1.52,1.01-.56.24-1.13.36-1.7.36Z"/>
    <path class="cls-8" d="m240.22,200.65c-1.27,0-2.26-.35-2.95-1.06s-1.05-1.72-1.05-3.02v-1.03c0-1.36.33-2.41,1.01-3.16s1.62-1.12,2.83-1.12c1.15,0,2.04.42,2.67,1.27s.95,2.03.95,3.55v.6h-6.15v-1.44h4.45c-.05-.74-.25-1.32-.58-1.73s-.77-.62-1.33-.62c-.67,0-1.2.22-1.57.67s-.56,1.08-.56,1.89v1.16c0,.76.2,1.34.6,1.74s.97.61,1.69.61c.36,0,.72-.07,1.08-.22s.68-.35.96-.62l1.18,1.18c-.45.43-.96.77-1.52,1.01-.56.24-1.13.36-1.7.36Z"/>
    <path class="cls-8" d="m247.93,187.74v10.42c0,.22.05.39.14.51.1.12.23.18.41.18h.84v1.71h-1.05c-.67,0-1.2-.21-1.57-.63s-.56-1.02-.56-1.78v-10.41h1.79Z"/>
    <path class="cls-8" d="m254.24,200.68c-1.01,0-1.79-.32-2.33-.97-.55-.65-.82-1.56-.82-2.74v-2.01c0-1.18.27-2.1.8-2.75.54-.65,1.29-.97,2.26-.97.54,0,1.03.14,1.48.42.45.28.81.68,1.08,1.19l-.18,1.86c0-.39-.07-.72-.21-.99s-.34-.48-.61-.63c-.27-.14-.59-.21-.97-.21-.59,0-1.05.18-1.38.55-.33.37-.49.89-.49,1.56v1.99c0,.66.16,1.17.49,1.53.32.36.78.54,1.38.54.38,0,.7-.07.97-.22.27-.15.47-.36.61-.65s.21-.62.21-1.01l.12,1.92c-.16.41-.45.78-.85,1.1-.4.33-.92.49-1.57.49Zm2.29-.16v-12.78h1.79v12.78h-1.79Z"/>
    <path class="cls-8" d="m264.78,200.65c-1.27,0-2.26-.35-2.95-1.06s-1.05-1.72-1.05-3.02v-1.03c0-1.36.33-2.41,1.01-3.16s1.62-1.12,2.83-1.12c1.15,0,2.04.42,2.67,1.27s.95,2.03.95,3.55v.6h-6.15v-1.44h4.45c-.05-.74-.25-1.32-.58-1.73s-.77-.62-1.33-.62c-.67,0-1.2.22-1.57.67s-.56,1.08-.56,1.89v1.16c0,.76.2,1.34.6,1.74s.97.61,1.69.61c.36,0,.72-.07,1.08-.22s.68-.35.96-.62l1.18,1.18c-.45.43-.96.77-1.52,1.01-.56.24-1.13.36-1.7.36Z"/>
    <path class="cls-8" d="m270.7,200.52v-9.12h1.79v9.12h-1.79Zm5.54,0v-5.53c0-.64-.17-1.14-.5-1.49-.33-.35-.8-.53-1.41-.53s-1.04.16-1.36.47-.48.75-.48,1.31l-.18-1.76c.28-.55.65-.98,1.1-1.27s.96-.45,1.51-.45c.99,0,1.76.32,2.3.97.54.65.81,1.56.81,2.75v5.54h-1.79Z"/>
  </g>
  <g>
    <path class="cls-8" d="m29.89,197.91l2.23-6.51h1.87l-3.43,9.12h-1.35l-3.43-9.12h1.87l2.23,6.51Z"/>
    <path class="cls-8" d="m39.31,200.65c-1.27,0-2.26-.35-2.95-1.06s-1.05-1.72-1.05-3.02v-1.03c0-1.36.34-2.41,1.01-3.16s1.62-1.12,2.83-1.12c1.15,0,2.04.42,2.67,1.27s.94,2.03.94,3.55v.6h-6.15v-1.44h4.45c-.05-.74-.24-1.32-.58-1.73s-.77-.62-1.33-.62c-.67,0-1.2.22-1.57.67s-.56,1.08-.56,1.89v1.16c0,.76.2,1.34.6,1.74s.97.61,1.69.61c.36,0,.72-.07,1.08-.22s.68-.35.96-.62l1.18,1.18c-.45.43-.96.77-1.52,1.01-.56.24-1.13.36-1.7.36Z"/>
    <path class="cls-8" d="m45.22,200.52v-9.12h1.79v9.12h-1.79Zm5.02-6.96c-.16-.19-.36-.34-.6-.44s-.52-.15-.83-.15c-.57,0-1.01.16-1.32.47-.31.31-.47.75-.47,1.31l-.18-1.76c.28-.54.64-.96,1.09-1.27s.94-.46,1.48-.46c.42,0,.79.06,1.13.18s.63.3.88.53l-1.17,1.58Z"/>
    <path class="cls-8" d="m55.62,200.68c-1.01,0-1.79-.32-2.33-.97s-.82-1.56-.82-2.74v-2.01c0-1.18.27-2.1.8-2.75.54-.65,1.29-.97,2.26-.97.54,0,1.03.14,1.48.42s.81.68,1.09,1.19l-.18,1.86c0-.39-.07-.72-.21-.99s-.34-.48-.61-.63c-.27-.14-.59-.21-.97-.21-.59,0-1.05.18-1.38.55s-.49.89-.49,1.56v1.99c0,.66.16,1.17.49,1.53.33.36.78.54,1.38.54.38,0,.7-.07.97-.22.27-.15.47-.36.61-.65s.21-.62.21-1.01l.12,1.92c-.16.41-.45.78-.85,1.1-.4.33-.92.49-1.57.49Zm2.29-.16v-12.78h1.79v12.78h-1.79Z"/>
    <path class="cls-8" d="m62.43,189.53v-1.79h1.79v1.79h-1.79Zm0,10.99v-9.12h1.79v9.12h-1.79Z"/>
    <path class="cls-8" d="m70.68,200.65c-1.27,0-2.26-.35-2.95-1.06s-1.05-1.72-1.05-3.02v-1.03c0-1.36.34-2.41,1.01-3.16s1.62-1.12,2.83-1.12c1.15,0,2.04.42,2.67,1.27s.94,2.03.94,3.55v.6h-6.15v-1.44h4.45c-.05-.74-.24-1.32-.58-1.73s-.77-.62-1.33-.62c-.67,0-1.2.22-1.57.67s-.56,1.08-.56,1.89v1.16c0,.76.2,1.34.6,1.74s.97.61,1.69.61c.36,0,.72-.07,1.08-.22s.68-.35.96-.62l1.18,1.18c-.45.43-.96.77-1.52,1.01-.56.24-1.13.36-1.7.36Z"/>
    <path class="cls-8" d="m76.6,204.23v-12.83h1.79v12.83h-1.79Zm4.09-3.58c-.57,0-1.06-.14-1.49-.41-.42-.27-.73-.66-.93-1.16l.12-1.91c0,.39.07.73.21,1s.34.49.61.63.59.22.97.22c.59,0,1.05-.18,1.38-.54.33-.36.49-.87.49-1.53v-1.98c0-.67-.16-1.19-.49-1.56s-.78-.55-1.38-.55c-.38,0-.7.07-.97.21s-.47.35-.61.62-.21.6-.21.98l-.18-1.76c.28-.53.64-.94,1.08-1.24.45-.29.94-.43,1.49-.43.98,0,1.73.32,2.27.97s.8,1.56.8,2.75v1.99c0,1.17-.28,2.07-.83,2.72s-1.33.97-2.33.97Z"/>
    <path class="cls-8" d="m90.13,200.65c-1.27,0-2.26-.35-2.95-1.06s-1.05-1.72-1.05-3.02v-1.03c0-1.36.34-2.41,1.01-3.16s1.62-1.12,2.83-1.12c1.15,0,2.04.42,2.67,1.27s.94,2.03.94,3.55v.6h-6.15v-1.44h4.45c-.05-.74-.24-1.32-.58-1.73s-.77-.62-1.33-.62c-.67,0-1.2.22-1.57.67s-.56,1.08-.56,1.89v1.16c0,.76.2,1.34.6,1.74s.97.61,1.69.61c.36,0,.72-.07,1.08-.22s.68-.35.96-.62l1.18,1.18c-.45.43-.96.77-1.52,1.01-.56.24-1.13.36-1.7.36Z"/>
    <path class="cls-8" d="m96.04,200.52v-9.12h1.79v9.12h-1.79Zm5.54,0v-5.53c0-.64-.17-1.14-.5-1.49s-.8-.53-1.41-.53-1.04.16-1.36.47-.48.75-.48,1.31l-.18-1.76c.28-.55.65-.98,1.1-1.27s.96-.45,1.51-.45c.99,0,1.76.32,2.3.97s.81,1.56.81,2.75v5.54h-1.79Z"/>
  </g>
  <g>
    <path class="cls-2" d="m68.99,105.03c-.28-.02-.85-.16-1.46-.54-1.37-.84-1.69-2.32-.83-3.7.86-1.4,2.44-1.82,3.92-.91.49.3.84.69,1,.94l-.58.52c-.13-.23-.37-.53-.82-.8-1.04-.64-2.07-.22-2.66.73-.65,1.05-.37,2.11.53,2.67.47.29.85.36,1.15.4l-.24.7Z"/>
    <path class="cls-2" d="m75.32,105.98c-1.03,1.68-2.64,1.69-3.74,1.02-1.23-.75-1.62-2.24-.74-3.67.93-1.52,2.48-1.8,3.73-1.02,1.3.8,1.6,2.29.75,3.68Zm-3.63-2.17c-.61.99-.5,2.1.31,2.59.79.48,1.83.11,2.46-.91.47-.77.69-1.98-.29-2.58-.98-.6-1.95.04-2.48.9Z"/>
    <path class="cls-2" d="m76.98,105.62c.29-.47.51-.86.72-1.25l.72.44-.41.75.03.02c.52-.28,1.19-.42,1.94.04.62.38.86,1.04.72,1.7h.02c.3-.15.6-.24.87-.27.4-.04.77.03,1.2.3.6.37,1.25,1.31.28,2.88l-1.64,2.67-.81-.5,1.58-2.57c.54-.87.54-1.59-.12-2-.47-.29-1.05-.17-1.44.15-.11.09-.23.22-.32.37l-1.72,2.8-.81-.5,1.67-2.72c.44-.72.45-1.44-.18-1.83-.52-.32-1.14-.13-1.53.2-.12.09-.23.22-.31.36l-1.68,2.74-.81-.5,2.04-3.31Z"/>
    <path class="cls-2" d="m84.63,110.68c.36-.58.63-1.06.87-1.5l.74.46-.44.8h.02c.68-.33,1.41-.33,2.15.12,1.1.67,1.35,2.11.5,3.49-1,1.63-2.49,1.82-3.56,1.17-.6-.37-.96-.95-.96-1.57h-.02s-1.52,2.45-1.52,2.45l-.81-.5,3.02-4.91Zm.07,1.71c-.08.12-.13.25-.17.36-.2.66.05,1.36.64,1.73.87.54,1.82.14,2.46-.9.56-.91.56-1.98-.31-2.52-.56-.35-1.33-.27-1.88.25-.09.09-.19.19-.26.3l-.48.78Z"/>
    <path class="cls-2" d="m92.18,110.36l.82.51-4.09,6.65-.82-.51,4.09-6.65Z"/>
    <path class="cls-2" d="m92.06,116.54c-.67,1.13-.24,2.02.59,2.53.59.36,1.01.48,1.4.54l-.22.68c-.37-.05-.96-.2-1.68-.65-1.4-.86-1.66-2.29-.82-3.66.84-1.37,2.31-1.95,3.63-1.14,1.48.91,1.07,2.46.56,3.29-.1.17-.2.29-.27.37l-3.19-1.96Zm2.78.9c.33-.52.61-1.47-.32-2.04-.83-.51-1.67.03-2.09.56l2.41,1.48Z"/>
    <path class="cls-2" d="m98.13,116.95l.05,1.37c.01.36,0,.68,0,1.02l.03.02c.32-.18.61-.32.91-.47l1.23-.57.89.55-2.9,1.24.15,3.32-.94-.58-.04-1.43c-.02-.37-.01-.72,0-1.09h-.02c-.32.17-.63.31-.96.48l-1.28.62-.91-.56,3.04-1.32-.17-3.17.92.56Z"/>
    <path class="cls-2" d="m99.3,123.92l2.79-4.54.82.51-2.79,4.53-.82-.51Zm4.49-5.24c-.16.29-.51.38-.84.18-.29-.18-.36-.53-.18-.81.18-.29.53-.38.83-.2.31.19.37.54.19.83Z"/>
    <path class="cls-2" d="m106.07,120.04l-.8,1.3,1.18.73-.39.63-1.18-.73-1.5,2.45c-.35.56-.38.98.08,1.26.22.13.39.2.51.24l-.34.64c-.2-.03-.48-.14-.8-.34-.38-.24-.62-.55-.68-.89-.08-.39.08-.84.41-1.38l1.52-2.47-.7-.43.39-.63.7.43.67-1.09.94.28Z"/>
    <path class="cls-2" d="m106.29,125.31c-.67,1.12-.24,2.02.59,2.53.59.36,1.01.48,1.4.54l-.22.68c-.37-.05-.96-.2-1.68-.65-1.4-.86-1.66-2.29-.82-3.66s2.31-1.95,3.63-1.14c1.48.91,1.07,2.46.56,3.29-.1.17-.2.29-.27.37l-3.19-1.96Zm2.78.9c.33-.52.61-1.47-.32-2.04-.83-.51-1.67.03-2.09.56l2.41,1.48Z"/>
    <path class="cls-2" d="m109.22,130.03l2.79-4.54.82.51-2.79,4.54-.82-.51Zm4.49-5.24c-.16.29-.51.38-.84.18-.29-.18-.36-.53-.19-.81.18-.29.53-.38.83-.2.31.19.37.54.19.83Z"/>
    <path class="cls-2" d="m116,126.15l-.8,1.3,1.18.73-.39.63-1.18-.73-1.5,2.45c-.35.56-.38.98.08,1.26.22.13.39.2.51.24l-.34.64c-.2-.03-.48-.14-.8-.34-.38-.24-.62-.55-.68-.89-.08-.39.08-.84.41-1.38l1.52-2.47-.7-.43.39-.63.7.43.67-1.09.94.28Z"/>
  </g>
  <g>
    <path class="cls-2" d="m147.26,228.76c-.63,0-1.17.01-1.66.04v-.85l1.04-.03v-.04c-.71-.24-1.17-.83-1.17-1.47,0-.11.01-.19.03-.28h.91c-.02.1-.03.2-.03.33,0,.68.52,1.17,1.24,1.3.13.02.29.04.45.04h2.84v.96h-3.66Z"/>
    <path class="cls-2" d="m148.44,224.74c1.31-.02,1.85-.86,1.85-1.83,0-.69-.12-1.11-.27-1.47l.69-.16c.15.34.33.92.33,1.77,0,1.64-1.08,2.62-2.68,2.62s-2.87-.95-2.87-2.5c0-1.74,1.53-2.2,2.51-2.2.2,0,.35.02.45.03v3.74Zm-.69-2.84c-.62-.01-1.57.25-1.57,1.34,0,.98.9,1.41,1.57,1.49v-2.83Z"/>
    <path class="cls-2" d="m150.93,219.67h-4.59v.75h-.74v-.75h-.23c-.74,0-1.4-.25-1.84-.75-.35-.42-.54-.97-.54-1.71,0-.62.13-1.2.35-1.59h7.58v.96h-7.04c-.09.16-.14.42-.14.79,0,1.01.74,1.34,1.6,1.34h.26v-1.24h.74v1.24h4.59v.96Z"/>
    <path class="cls-2" d="m148.44,213.47c1.31-.02,1.85-.86,1.85-1.83,0-.69-.12-1.11-.27-1.47l.69-.17c.15.34.33.92.33,1.77,0,1.64-1.08,2.62-2.68,2.62s-2.87-.95-2.87-2.5c0-1.74,1.53-2.2,2.51-2.2.2,0,.35.02.45.03v3.74Zm-.69-2.84c-.62-.01-1.57.25-1.57,1.34,0,.98.9,1.41,1.57,1.48v-2.83Z"/>
    <path class="cls-2" d="m150.73,204.71c.13.25.31.81.31,1.53,0,1.61-1.09,2.65-2.72,2.65s-2.83-1.12-2.83-2.86c0-.57.14-1.08.27-1.34l.75.22c-.13.23-.25.59-.25,1.12,0,1.22.9,1.88,2.01,1.88,1.23,0,1.99-.79,1.99-1.85,0-.55-.14-.91-.26-1.19l.73-.17Z"/>
    <path class="cls-2" d="m144.07,202.26h1.53v-1.39h.74v1.39h2.87c.66,0,1.03-.19,1.03-.73,0-.25-.03-.44-.07-.56l.73-.04c.08.19.13.48.13.86,0,.45-.14.81-.41,1.04-.29.28-.76.37-1.39.37h-2.9v.83h-.74v-.83h-1.28l-.25-.95Z"/>
    <path class="cls-2" d="m144.11,198.71c.33-.01.59.23.59.62,0,.34-.26.58-.59.58s-.61-.25-.61-.61.26-.59.61-.59Zm6.82,1.08h-5.32v-.97h5.32v.97Z"/>
    <path class="cls-2" d="m148.44,196.68c1.31-.02,1.85-.86,1.85-1.83,0-.69-.12-1.11-.27-1.47l.69-.16c.15.34.33.92.33,1.77,0,1.64-1.08,2.62-2.68,2.62s-2.87-.95-2.87-2.5c0-1.74,1.53-2.2,2.51-2.2.2,0,.35.02.45.03v3.74Zm-.69-2.84c-.62-.01-1.57.25-1.57,1.34,0,.98.9,1.41,1.57,1.49v-2.83Z"/>
  </g>
  <g>
    <path class="cls-6" d="m253.02,102.16c-.29-.23-.53-.5-.7-.82-.17-.31-.32-.64-.43-.99s-.22-.7-.3-1.05c-.08-.35-.18-.68-.3-.99.08-.13.17-.2.25-.2.08,0,.17.02.25.07.03.11.09.28.19.53.1.25.21.5.33.77.12.27.24.51.36.73.12.22.21.37.28.43.19.21.33.3.43.27.1-.03.17-.14.21-.32.04-.19.05-.43.03-.73s-.05-.62-.09-.96c-.04-.34-.1-.67-.17-1.01-.07-.33-.13-.63-.18-.88l.33-.51c.13.08.24.18.34.3.09.12.18.23.27.35.09.12.17.24.26.35.09.11.2.21.32.29.18.11.32.13.43.04.11-.09.21-.2.3-.35.13-.2.22-.43.28-.7.06-.27.08-.54.05-.82s-.09-.53-.2-.77c-.11-.24-.28-.43-.5-.57-.2-.13-.4-.22-.6-.27-.2-.05-.4-.14-.6-.26-.24-.15-.27-.36-.11-.62.07-.11.19-.18.34-.2.15-.02.32-.01.49.02.17.03.34.08.51.15s.29.13.38.19c.4.26.69.58.87.97.18.39.28.8.3,1.23.02.43-.04.87-.17,1.3-.13.43-.3.82-.52,1.17-.19.29-.44.45-.76.49-.32.03-.62-.04-.91-.21-.07.27-.09.55-.04.83.05.29.1.58.15.88s.08.58.08.87c0,.28-.07.54-.23.78-.04.06-.12.12-.22.17-.11.05-.23.1-.36.13-.13.03-.25.05-.38.04-.12,0-.22-.03-.28-.08Z"/>
    <path class="cls-6" d="m257.95,94.49c-.39-.35-.71-.74-.96-1.17-.24-.43-.42-.85-.54-1.28-.11-.42-.16-.84-.15-1.24.01-.4.08-.76.21-1.07.13-.31.3-.55.53-.74s.5-.28.83-.27c.18.11.32.26.43.45s.21.38.31.58c.1.2.21.39.33.58.12.19.27.35.46.47.2.13.39.19.56.17s.33-.13.48-.35c.12-.18.21-.38.26-.59.06-.21.14-.4.26-.58.02-.03.05-.08.11-.15.05-.07.08-.12.1-.14.07.18.11.37.1.57,0,.21-.02.41-.06.61-.04.2-.1.4-.18.59s-.17.36-.26.51c-.09.14-.2.24-.33.31-.13.07-.27.11-.42.12-.15.01-.3,0-.46-.04-.15-.04-.29-.1-.41-.18.06.2.11.41.17.64.06.23.09.45.11.67.02.22.01.45-.02.67-.04.22-.11.42-.23.61-.13.2-.31.32-.56.37-.24.05-.47,0-.67-.12Zm.13-.99c.06.04.13.08.21.13.08.05.16.03.24-.05.08-.22.12-.5.12-.85,0-.35-.04-.69-.11-1.04-.07-.35-.18-.68-.33-.98-.15-.3-.33-.52-.55-.67-.02,0-.04-.02-.08-.04-.04-.02-.06-.03-.08-.04-.17.26-.28.56-.35.9-.07.34-.07.67-.02,1.01.05.34.15.65.31.94.16.29.37.52.64.7Z"/>
    <path class="cls-6" d="m260.76,89.47c-.05-.03-.13-.09-.24-.18-.1-.08-.2-.17-.3-.25s-.19-.16-.26-.23c-.08-.07-.12-.12-.14-.15l-2.84-4.78c-.04-.07-.09-.18-.14-.34-.05-.16-.11-.33-.16-.51-.05-.18-.1-.35-.13-.52s-.06-.31-.08-.42c.05-.04.1-.06.15-.06.05,0,.11.01.16.04.05.02.1.05.15.09.04.03.08.06.11.08.04.02.09.06.16.1.07.04.1.07.1.08.16.21.33.49.51.83.18.34.37.72.56,1.12.19.41.4.83.61,1.26.21.44.44.85.66,1.24.23.39.47.74.71,1.06.24.31.5.55.76.72.14.09.27.12.4.09.13-.03.26-.07.38-.12.12-.05.24-.1.35-.14s.22-.03.33.04c.07.04.1.11.1.19,0,.08-.03.17-.09.25-.21.32-.48.54-.81.67-.33.12-.67.07-1-.14Z"/>
    <path class="cls-6" d="m263.12,84.5c.06.17.15.34.27.5.11.16.22.32.3.49.09.17.14.33.17.5.02.17-.02.34-.13.51-.09.15-.18.23-.27.25-.08.02-.2-.02-.36-.12-.18-.12-.35-.3-.51-.55-.15-.25-.29-.51-.41-.79-.12-.28-.22-.56-.3-.83s-.15-.49-.21-.67l-3.23-5.08c-.1-.14-.16-.31-.18-.53-.02-.22.01-.4.11-.55l.38.24,2.03,3.03.28.18c.08-.13.14-.27.17-.41.03-.14.06-.29.08-.44.02-.15.05-.3.09-.45.04-.15.11-.31.21-.46.18-.08.34-.08.48,0,.14.08.26.21.37.38s.2.39.27.62c.07.24.14.48.2.72.06.24.1.47.13.67.03.21.05.37.07.48.02.17.01.32-.01.44s-.05.22-.06.31c-.01.09,0,.17.04.24.04.07.13.16.28.25.21.14.43.19.63.16.21-.03.41-.11.61-.25s.38-.32.56-.53c.18-.22.34-.44.49-.68s.29-.47.41-.7c.12-.23.22-.42.29-.59l.23-.05c.06.16.09.36.08.6,0,.24-.04.49-.09.74-.05.25-.11.5-.19.73-.08.23-.16.41-.24.54-.16.25-.35.46-.58.64-.23.18-.48.32-.75.41-.27.1-.55.15-.84.16-.29.01-.58-.03-.86-.12Zm-1.13-3.93c-.04.07-.08.19-.12.36s-.05.35-.06.55c0,.19.01.37.05.53.04.16.1.28.2.34l.08.05c.01-.07.03-.19.07-.36.03-.17.05-.35.07-.54,0-.19,0-.38-.04-.56-.04-.18-.12-.3-.24-.38Z"/>
    <path class="cls-6" d="m267.13,78.56c-.12.18-.29.37-.5.58s-.44.38-.69.53c-.25.15-.51.24-.79.28-.27.04-.54-.03-.79-.19-.14-.09-.22-.19-.25-.31-.03-.12-.02-.24.01-.36.04-.12.09-.25.16-.37.07-.12.14-.23.2-.32.17-.26.32-.45.45-.58.13-.13.25-.21.36-.25.11-.04.21-.05.31-.03.1.02.2.04.32.06.12.02.24.03.38.02.13,0,.29-.05.47-.15,0-.15-.06-.34-.19-.57-.12-.23-.28-.47-.46-.72s-.37-.51-.58-.77-.39-.51-.55-.74c-.16-.23-.28-.44-.37-.61-.09-.17-.1-.31-.04-.4.05-.08.11-.12.17-.13.07-.01.13,0,.2.03.07.03.13.06.2.11.06.05.12.08.16.11.04.02.1.07.18.12.08.06.13.1.14.11l1.42,2.37.13.08c.17-.26.26-.57.29-.92.03-.35.03-.7,0-1.04-.02-.34-.05-.65-.07-.93-.02-.28,0-.48.07-.6.25.16.42.37.52.63.1.26.16.55.18.85s0,.62-.04.94c-.04.32-.09.62-.14.89-.05.28-.09.51-.12.7-.03.19-.02.31.03.37l1.21,1.4s0,.02-.02.06c-.02.03-.04.06-.05.08-.03.04-.07.09-.13.15-.06.06-.12.12-.2.17-.07.05-.14.09-.21.12-.07.03-.13.02-.17,0l-1.2-.77Zm-2.29.51c.13.08.27.1.42.05s.29-.13.42-.24c.13-.11.26-.23.37-.35s.19-.23.24-.29c0,0-.02-.01-.03-.03s-.02-.02-.03-.03c-.13-.08-.27-.1-.41-.04-.15.06-.28.15-.41.26-.13.12-.24.24-.34.37s-.17.23-.22.3Z"/>
    <path class="cls-6" d="m270.33,74.42c-.22-.14-.42-.33-.58-.56-.17-.23-.33-.47-.47-.72-.14-.26-.29-.51-.42-.77-.14-.26-.29-.48-.46-.68,0,.2-.04.35-.1.47-.06.11-.13.24-.22.39-.01.02-.04.06-.1.14-.05.08-.09.13-.1.15-.14-.15-.24-.34-.29-.54-.05-.21-.08-.42-.07-.64,0-.22.03-.44.08-.65.04-.21.09-.4.14-.57-.21-.46-.45-.88-.72-1.26-.27-.38-.53-.76-.78-1.13-.25-.37-.47-.76-.66-1.17-.19-.41-.3-.87-.35-1.39l.47.22,2.45,3.6c.03-.1.08-.22.13-.35.06-.14.11-.28.17-.42.06-.14.12-.28.17-.41.06-.13.1-.25.13-.35,0,0,.02-.03.04-.07.02-.04.04-.07.05-.1.07-.11.14-.18.23-.23.08-.04.21-.05.37-.01-.18.62-.32,1.2-.43,1.73-.1.53-.12,1.04-.04,1.52.07.49.25.96.55,1.42.29.46.74.94,1.34,1.44.14.09.27.16.39.22.12.06.25,0,.39-.15.11-.18.18-.36.21-.56.03-.2.05-.4.06-.59.01-.2.03-.39.06-.59.03-.19.1-.38.21-.56.18.12.3.31.35.57.05.26.06.54.03.84-.03.3-.09.59-.18.87-.09.28-.19.49-.28.65-.1.15-.22.27-.36.35-.14.08-.29.13-.44.15s-.32,0-.48-.05c-.16-.05-.32-.12-.47-.21Z"/>
    <path class="cls-6" d="m272.74,71.49c-.39-.35-.71-.74-.96-1.17-.25-.43-.42-.85-.54-1.28-.11-.42-.16-.84-.15-1.24.01-.4.08-.76.21-1.07.13-.31.3-.55.53-.74.23-.18.5-.28.83-.27.18.11.32.26.43.45s.21.38.31.57c.1.2.21.39.33.58s.27.34.46.47c.2.13.39.19.56.18.17-.01.33-.13.48-.35.12-.18.21-.38.26-.59.06-.21.14-.4.26-.57.02-.03.05-.08.11-.15s.08-.12.1-.14c.07.18.11.37.11.57,0,.21-.02.41-.06.61-.04.2-.1.4-.18.59-.08.19-.17.36-.26.51-.09.14-.2.24-.33.31-.13.07-.27.11-.42.12s-.3,0-.46-.04c-.15-.04-.29-.1-.41-.18.06.2.11.41.17.64.06.23.09.45.11.67s.01.45-.02.67c-.04.22-.11.42-.23.61-.13.2-.31.32-.56.37-.24.05-.47,0-.67-.13Zm.13-.99c.06.04.13.08.21.13.08.05.16.03.24-.05.08-.22.12-.5.12-.85,0-.35-.04-.69-.11-1.04-.07-.35-.18-.68-.33-.98-.15-.3-.33-.52-.55-.67-.02,0-.04-.02-.08-.04-.04-.02-.06-.03-.08-.04-.17.26-.28.56-.35.9-.07.34-.07.67-.02,1.01.05.34.15.65.31.94.16.29.37.52.64.7Z"/>
    <path class="cls-6" d="m275.54,66.46c-.05-.03-.13-.09-.24-.18-.1-.08-.2-.17-.3-.25s-.19-.16-.26-.23c-.08-.07-.12-.12-.14-.15l-2.84-4.78c-.04-.07-.09-.19-.14-.35-.05-.16-.11-.33-.16-.51-.05-.18-.1-.35-.13-.52-.04-.17-.06-.31-.08-.42.05-.04.1-.07.15-.06.05,0,.11.01.16.04.05.02.1.05.15.09.04.03.08.06.11.08.04.02.09.06.16.1.07.04.1.07.1.08.16.21.33.49.51.83.18.34.37.72.56,1.12.19.41.4.83.61,1.26.21.44.43.85.66,1.24.23.39.47.74.71,1.06.24.31.5.55.76.72.14.09.27.12.4.09.13-.03.26-.07.38-.12.12-.05.24-.1.35-.14s.22-.03.33.04c.07.04.1.11.1.19,0,.08-.03.17-.09.25-.21.32-.48.54-.81.67-.33.12-.67.08-1.01-.14Z"/>
    <path class="cls-6" d="m277.9,61.5c.06.17.15.34.27.5.12.16.22.32.3.49.09.17.14.33.17.5.02.17-.02.34-.14.51-.09.15-.18.23-.27.25-.08.02-.2-.02-.36-.12-.18-.12-.35-.3-.51-.55-.16-.25-.29-.51-.41-.79-.12-.28-.22-.56-.3-.83-.09-.27-.15-.49-.21-.67l-3.23-5.08c-.1-.14-.16-.31-.18-.53s.01-.4.11-.55l.38.24,2.03,3.03.28.18c.08-.13.14-.27.17-.41s.06-.29.08-.44c.02-.15.05-.3.09-.45.04-.15.11-.31.21-.46.18-.08.34-.08.48,0,.14.08.26.21.37.38.11.18.2.39.27.62.07.24.14.48.2.72.06.24.1.47.13.67.03.21.05.37.07.48.02.17.01.32-.01.44-.03.12-.05.22-.06.31-.01.09,0,.17.04.24s.13.16.28.25c.21.14.43.19.63.16.21-.03.41-.11.61-.25.2-.14.38-.32.56-.53.18-.22.34-.44.49-.68.15-.24.29-.47.41-.7.12-.23.21-.42.29-.59l.23-.05c.06.16.09.36.08.6,0,.24-.04.49-.09.74-.05.26-.11.5-.19.73-.08.23-.16.41-.24.54-.16.25-.35.46-.58.64s-.48.32-.75.42c-.27.1-.55.15-.84.16-.29.01-.58-.03-.86-.12Zm-1.13-3.93c-.04.07-.08.19-.12.36-.04.17-.05.36-.06.55,0,.19.01.37.05.53.04.16.1.28.2.34l.08.05c.01-.07.03-.19.07-.36.03-.17.05-.35.07-.54,0-.19,0-.38-.04-.56-.04-.18-.12-.3-.24-.38Z"/>
  </g>
  <g>
    <path class="cls-6" d="m134.01,264.84c.07-.09.18-.18.32-.26.14-.08.27-.1.4-.06.02,0,.04.02.07.03.03.02.06.03.08.04.03.02.06.03.08.05l-.47.59c.08,0,.2-.04.38-.08s.37-.09.57-.15c.2-.05.39-.11.57-.17.18-.06.3-.1.38-.13l6.36-2.88c.15-.02.25-.02.32,0,.07.03.12.08.16.17.04.09.02.23-.04.42l-3.95,1.85-.1.13c.18.19.33.38.46.56.13.19.22.38.26.58.04.2.04.4,0,.6-.05.2-.15.41-.31.61-.28.35-.63.6-1.05.76-.42.16-.87.24-1.33.23-.46,0-.92-.07-1.37-.22-.45-.14-.84-.34-1.16-.6-.14-.11-.28-.25-.41-.42-.13-.17-.24-.35-.31-.54-.07-.19-.11-.39-.11-.59,0-.2.07-.38.2-.55Zm4.72.33c-.1-.08-.25-.12-.44-.12-.19,0-.4.03-.63.08-.23.06-.47.13-.72.23-.25.1-.49.2-.71.31-.22.11-.42.23-.6.35-.17.12-.3.22-.37.32.2.16.46.29.79.4.32.11.65.17.99.19.34.02.66-.01.97-.1.31-.09.55-.24.73-.46.15-.19.25-.39.29-.6.04-.21-.06-.4-.29-.58Z"/>
    <path class="cls-6" d="m138.87,268.83s.07-.09.15-.17c.07-.09.12-.14.15-.17.64-.34,1.32-.59,2.03-.75.71-.16,1.42-.23,2.15-.21.01.01.04.02.08.04s.07.03.08.04c.19.15.32.32.38.5.06.18.07.37.04.56-.03.19-.09.38-.19.56-.1.18-.21.35-.33.5-.22.28-.52.52-.89.72-.37.2-.76.34-1.18.42-.42.08-.83.09-1.24.03s-.76-.21-1.06-.45-.46-.5-.48-.77c-.02-.28.09-.56.31-.84Zm.94.54c-.06.08-.07.16-.03.24.04.08.09.14.16.2.18.14.39.23.63.27s.49.04.74,0c.25-.04.48-.12.7-.24.22-.12.4-.26.53-.42.06-.08.13-.17.19-.28.07-.1.11-.21.13-.31.02-.1.02-.21-.03-.31-.04-.1-.14-.19-.3-.27-.12-.06-.31-.05-.56,0-.26.06-.53.16-.82.28-.29.12-.56.26-.81.42-.25.15-.43.3-.53.42Z"/>
    <path class="cls-6" d="m144.78,273.64c.17-.21.37-.38.61-.49.23-.11.47-.21.71-.29.24-.08.47-.16.69-.26.22-.09.4-.23.55-.42.03-.04.07-.1.12-.16.04-.06.08-.13.12-.19.03-.07.05-.13.05-.2,0-.06-.03-.12-.08-.16,0,0-.02-.01-.04-.02-.02-.01-.03-.01-.04,0-.21.06-.45.11-.72.17s-.55.11-.84.14c-.29.04-.57.07-.83.11-.27.03-.5.05-.7.05-.15.01-.35.03-.6.04-.25.02-.51.04-.76.05s-.47.03-.66.04c-.19.01-.29.01-.31,0l-.16-.81c.06.05.14.09.22.11.08.02.17.03.25.04.65.05,1.3.04,1.94-.06.64-.1,1.3-.22,1.98-.39.03,0,.12-.04.26-.1.14-.05.3-.12.48-.2.18-.08.35-.15.53-.23s.31-.14.41-.19c.12-.06.2-.11.26-.16.06-.05.1-.08.14-.11s.07-.03.11-.02c.04,0,.11.05.2.12.01.01.05.04.09.09.05.05.08.08.08.1-.06.27-.11.5-.16.71-.05.21-.1.39-.15.57s-.12.34-.21.49c-.08.15-.19.31-.32.48-.28.16-.57.32-.88.48-.31.15-.59.31-.85.47-.26.16-.46.32-.62.48-.16.16-.23.34-.22.52s.13.37.36.56.6.39,1.13.61c.07.15.02.23-.13.23-.16,0-.36-.03-.61-.11-.25-.08-.5-.19-.76-.32-.26-.13-.46-.27-.59-.41-.14-.11-.23-.22-.28-.34-.05-.12-.07-.24-.06-.36,0-.12.04-.24.1-.36.05-.12.12-.23.21-.34Z"/>
    <path class="cls-6" d="m146.77,274.85c.28-.36.66-.62,1.14-.81.48-.18.97-.28,1.5-.29.52-.01,1.04.05,1.54.19.51.14.93.35,1.27.62.14.11.24.23.33.38.08.15.19.27.33.38l.06.05c.1-.05.28-.13.54-.25s.54-.24.83-.37.57-.25.83-.36c.26-.11.45-.19.56-.22.19-.07.43-.16.73-.25.3-.1.59-.19.87-.28s.53-.16.74-.21c.21-.06.32-.08.33-.07l.08.75s-.09.06-.23.13c-.14.07-.33.16-.56.28-.23.11-.49.24-.78.37s-.58.27-.86.39c-.29.13-.57.26-.83.38-.26.12-.49.22-.68.29-.49.16-.98.32-1.48.49-.5.17-.93.35-1.3.54-.37.19-.64.4-.81.62-.17.22-.17.47,0,.75.49.26.84.48,1.04.67.2.19.31.33.31.43,0,.1-.06.17-.2.19-.14.03-.31,0-.51-.05-.21-.06-.42-.16-.63-.29-.22-.14-.4-.32-.55-.54-.15-.22-.24-.48-.26-.79-.03-.3.04-.65.21-1.04l-2.76.06c-.13-.06-.24-.11-.32-.15s-.17-.09-.26-.14c-.09-.05-.16-.09-.22-.12l-.06-.05c-.16-.13-.27-.27-.33-.41-.06-.14-.07-.29-.05-.43.02-.14.07-.29.16-.43.08-.14.18-.28.29-.42Zm.79.44s-.08.09-.12.14c-.05.05-.09.11-.11.16s-.04.11-.03.17c0,.06.04.12.1.17.09.07.23.13.42.17.19.04.38.06.58.07.2,0,.4.01.58,0,.18,0,.32,0,.4-.01.09-.01.25-.03.5-.05.24-.02.49-.05.76-.09s.51-.06.74-.09c.23-.03.39-.05.49-.07l.03-.03s.02-.02.03-.02c0,0,.01,0,.02-.01.05-.06.07-.13.06-.19-.01-.06-.04-.12-.09-.17s-.1-.1-.16-.14c-.06-.04-.11-.08-.14-.11-.26-.21-.57-.37-.94-.49-.37-.12-.75-.18-1.13-.19s-.75.05-1.1.17c-.35.12-.64.32-.86.6Z"/>
    <path class="cls-6" d="m151.98,279.85c.09-.11.24-.23.46-.38.22-.14.47-.29.76-.44.28-.14.59-.28.91-.41.32-.13.62-.24.91-.32.29-.08.54-.14.76-.16.22-.02.37,0,.47.07.2.16.22.33.07.53-.07.08-.14.14-.22.18s-.16.05-.24.07-.17.03-.25.03c-.09,0-.17.03-.26.06-.15.06-.34.14-.58.25-.24.11-.47.22-.7.32-.23.11-.43.2-.6.28-.17.09-.26.13-.28.15l-.11.14c.32.17.68.27,1.09.28.41.01.83-.01,1.27-.09.44-.07.87-.16,1.31-.28s.84-.22,1.22-.31c.38-.09.71-.15,1-.18.29-.03.5.02.65.13-.21.26-.45.46-.73.59-.28.13-.56.25-.85.35s-.57.23-.85.36c-.28.13-.53.33-.74.61-.09.11-.1.27-.03.47s.17.4.3.61.27.39.41.56c.14.17.24.29.3.35l-.22.28c-.17-.12-.38-.29-.62-.48-.24-.2-.46-.42-.66-.66-.2-.24-.36-.5-.46-.78-.1-.27-.1-.55.02-.83-.28-.03-.57-.03-.88,0-.3.03-.6.04-.9.04-.29,0-.58-.03-.86-.09-.28-.06-.54-.18-.77-.37-.14-.11-.21-.27-.21-.47,0-.2.05-.36.14-.48Z"/>
    <path class="cls-6" d="m159.7,285.51c.17-.21.37-.38.61-.49.23-.11.47-.21.71-.29.24-.08.46-.16.69-.26.22-.09.4-.23.55-.42.03-.04.07-.1.12-.16.04-.06.08-.13.12-.19.03-.06.05-.13.05-.2,0-.06-.03-.12-.08-.16,0,0-.02-.01-.04-.03-.02,0-.03-.01-.04,0-.21.06-.45.11-.72.17-.27.06-.55.11-.84.14-.29.04-.57.07-.83.11-.27.03-.5.05-.7.05-.15,0-.35.03-.6.04s-.51.04-.76.05c-.25.02-.47.03-.66.04-.19.01-.29.01-.31,0l-.16-.81c.06.05.14.09.22.11s.17.03.25.04c.66.05,1.3.04,1.94-.06.64-.1,1.3-.22,1.98-.39.03,0,.12-.04.26-.1.14-.06.3-.12.48-.2.17-.07.35-.15.53-.22.18-.08.31-.14.41-.19.12-.06.2-.11.26-.16s.1-.08.14-.11.07-.03.11-.02c.04,0,.11.05.2.12.01.01.04.04.09.09.05.05.08.08.08.1-.06.27-.12.5-.16.71-.05.21-.1.39-.15.57-.06.17-.12.34-.21.49-.08.16-.19.32-.32.48-.28.16-.57.32-.88.47-.31.16-.59.31-.85.47-.25.16-.46.32-.62.49s-.23.34-.22.52c.01.18.13.37.36.56.23.19.6.39,1.13.61.07.15.02.23-.13.23s-.36-.03-.61-.11c-.25-.08-.5-.19-.76-.32-.26-.13-.46-.27-.59-.41-.14-.11-.23-.22-.28-.34s-.07-.24-.06-.36c0-.12.04-.24.1-.36.05-.12.12-.23.21-.34Z"/>
    <path class="cls-6" d="m161.34,287.25c.09-.37.25-.68.47-.93.22-.25.48-.45.76-.6.29-.15.59-.25.91-.31.32-.05.63-.08.93-.06.3.01.58.06.83.15.25.08.45.19.59.32.14.13.22.28.22.45s-.09.34-.28.53c-.22.28-.5.45-.84.52-.34.07-.68.1-1.02.1-.34,0-.65,0-.93-.02-.28,0-.47.05-.56.16-.05.06-.05.14,0,.24s.11.19.2.29.18.19.27.28.16.15.2.19c.78.39,1.36.7,1.72.94s.57.41.62.51c.05.11-.01.15-.19.14-.18-.01-.43-.07-.75-.17s-.66-.25-1.04-.43-.73-.4-1.05-.63-.59-.5-.8-.78c-.21-.29-.3-.58-.27-.88Zm3.81-.95c-.14-.11-.31-.18-.5-.21-.19-.02-.38-.02-.58.02-.2.04-.39.1-.57.18-.18.08-.34.17-.47.26,0,.02.02.03.02.04l.03.03c.1.08.25.13.45.14.2.02.4,0,.61-.03.21-.03.41-.09.6-.16.19-.07.32-.16.41-.27Z"/>
    <path class="cls-6" d="m165.05,290.32c.05-.06.09-.11.12-.15s.06-.07.1-.09c.04-.02.08-.04.13-.06.05-.02.11-.04.2-.07.14-.05.38-.14.74-.27.36-.12.73-.25,1.13-.39.4-.14.78-.27,1.14-.39.36-.12.61-.21.75-.26.01,0,.04,0,.07.04s.05.04.07.06c.01,0,.04.03.07.06s.05.05.06.06c0,.01,0,.04,0,.09s0,.1.01.16c0,.06.01.11.01.16,0,.05,0,.08.02.09.06.05.15.08.25.1.1.01.22.02.33.03s.23.02.34.04.21.06.3.13c.09.07.16.16.21.27s.07.21.08.32,0,.22-.04.32c-.03.11-.08.2-.14.27-.13.17-.28.3-.44.42-.17.11-.34.22-.51.32-.17.1-.34.21-.5.32-.16.11-.31.24-.43.4-.12.16-.2.29-.21.38-.02.1.05.21.22.34.19.15.4.27.62.35s.42.2.61.34c-.14.17-.3.27-.5.31-.19.03-.4.02-.6-.04-.21-.05-.41-.14-.6-.25-.2-.11-.36-.23-.51-.34-.27-.21-.41-.45-.41-.7,0-.25.1-.51.3-.76.14-.17.29-.31.47-.41s.36-.19.55-.28c.19-.08.37-.17.55-.26.18-.09.33-.22.46-.38.03-.04.07-.11.12-.19.04-.08.02-.15-.05-.22-.24-.19-.51-.28-.82-.28-.31,0-.63.05-.96.16-.34.11-.67.24-1.01.41-.33.17-.65.32-.94.46-.29.14-.55.24-.77.31s-.38.06-.49-.02c-.15-.12-.23-.26-.25-.43-.02-.17.03-.32.14-.46Z"/>
  </g>
  <g>
    <path class="cls-6" d="m1.72,91.24c-.18.12-.33.34-.47.67-.14.33-.25.7-.32,1.11-.08.41-.1.83-.08,1.25.02.42.1.78.25,1.08.12.24.26.37.43.4.17.03.37,0,.6-.12.25-.12.47-.27.67-.45.2-.18.4-.36.6-.54.2-.19.4-.37.6-.54s.42-.33.67-.45c.06.11.09.22.09.31,0,.09,0,.2-.02.32-.32.42-.67.82-1.03,1.21-.36.39-.79.71-1.28.96-.15.07-.32.12-.5.15-.19.03-.38.03-.57,0-.19-.03-.36-.09-.53-.18-.16-.09-.29-.22-.37-.39-.18-.37-.31-.75-.38-1.15-.07-.4-.09-.8-.05-1.2.03-.4.11-.8.25-1.2.13-.39.31-.77.52-1.12h0c.08-.15.19-.29.31-.44.12-.15.25-.26.39-.35.13-.08.26-.11.4-.08.13.03.25.15.36.36.05.1.1.23.17.4.06.17.07.3.03.4-.05.07-.11.15-.2.24-.04.04-.08.08-.13.11l-.39-.77Z"/>
    <path class="cls-6" d="m4.8,93.94s-.05-.1-.09-.2c-.05-.1-.08-.17-.09-.21-.04-.72.02-1.44.17-2.15.15-.71.39-1.39.71-2.04.02,0,.04-.03.07-.06.03-.03.05-.05.07-.06.22-.11.43-.15.62-.13.19.02.37.09.53.2.16.11.3.25.43.41s.23.34.32.51c.16.32.25.69.28,1.11s-.01.84-.11,1.25c-.1.41-.27.79-.5,1.13-.23.34-.51.6-.85.77s-.64.21-.9.11c-.26-.1-.47-.31-.63-.64Zm.88-.62c.04.09.11.13.2.13.09,0,.17-.02.24-.06.2-.1.37-.26.51-.46.14-.21.24-.43.3-.67.07-.24.09-.49.08-.74-.01-.25-.07-.47-.16-.65-.04-.09-.1-.19-.17-.29-.07-.1-.14-.19-.23-.25-.08-.07-.18-.1-.29-.11-.11,0-.23.05-.37.16-.1.08-.18.25-.23.51s-.08.55-.09.87,0,.62.04.91c.04.29.09.51.16.66Z"/>
    <path class="cls-6" d="m9.32,92.27c-.04-.07-.07-.13-.09-.17-.02-.04-.03-.08-.04-.12s0-.09,0-.14c0-.05,0-.12.02-.21,0-.15.03-.41.07-.78s.08-.77.12-1.19c.04-.42.09-.82.13-1.2.04-.38.07-.64.08-.79,0-.01.02-.03.06-.05.04-.02.06-.03.08-.04.02,0,.04-.02.09-.04s.07-.03.08-.02c.01,0,.04.02.08.03.04.02.09.04.15.06.05.02.1.04.15.05.04.02.08.02.09.02.07-.04.14-.1.2-.19.06-.09.11-.19.17-.29.05-.1.11-.2.18-.3.07-.09.15-.17.24-.21.11-.05.22-.08.33-.07.11,0,.22.03.32.07.1.04.19.1.28.17.08.07.15.15.19.24.09.19.16.38.19.58.03.2.06.4.08.6.02.2.04.4.07.59.03.19.09.38.18.56.09.18.17.3.25.35.08.06.21.04.4-.06.22-.11.41-.25.58-.41.17-.17.36-.3.57-.41.1.2.12.39.07.58-.05.19-.15.37-.28.53-.14.17-.3.31-.48.44-.18.13-.36.23-.52.32-.31.16-.58.18-.81.08-.23-.1-.42-.3-.57-.6-.1-.2-.16-.4-.17-.6s-.02-.41-.02-.62,0-.41,0-.61c0-.2-.06-.39-.15-.58-.02-.05-.07-.11-.12-.18-.06-.07-.13-.09-.22-.04-.27.13-.47.34-.6.62s-.22.59-.26.94c-.04.35-.06.71-.05,1.08,0,.37.01.72.02,1.05,0,.32,0,.6-.04.83-.03.23-.1.37-.23.43-.17.09-.34.1-.5.05-.16-.05-.28-.16-.36-.32Z"/>
    <path class="cls-6" d="m14.49,89.41s-.03-.06-.05-.11c-.02-.05-.03-.07-.03-.08-.1-.26-.23-.58-.38-.98-.16-.4-.3-.78-.44-1.15-.14-.37-.31-.82-.52-1.36l.17-.48c.16-.03.29-.02.39.01.1.04.18.09.25.16.07.07.12.15.17.25s.1.2.15.29c.17.34.31.69.41,1.04.1.35.23.7.4,1.03,0,.02.03.05.06.11.03.06.06.1.06.11l1.42-4.67s.02-.03.06-.05l.08-.04c.08-.04.17-.06.26-.07.09,0,.16.05.21.15,0,0,0,.02,0,.02,0,0,0,.01,0,.02l.02.04c0,.09-.03.23-.05.42-.03.2-.06.41-.09.64-.03.23-.06.45-.09.65s-.05.34-.06.42c-.05.24-.11.52-.18.85-.06.33-.14.66-.23,1.01-.09.34-.19.68-.3,1.01-.12.33-.25.61-.41.85-.03.04-.07.11-.13.19-.06.08-.09.12-.1.13-.09.05-.19.06-.29.05-.1-.01-.21-.05-.31-.1s-.19-.11-.27-.18c-.08-.07-.14-.14-.17-.21Z"/>
    <path class="cls-6" d="m19.51,87.06c-.29-.24-.51-.51-.64-.82-.13-.31-.21-.62-.22-.94-.01-.32.02-.64.1-.95.08-.31.2-.6.34-.87.14-.27.3-.5.48-.69.18-.19.36-.33.54-.4.18-.07.34-.08.5-.01.16.07.28.22.36.48.16.32.2.65.12.98-.08.34-.2.66-.34.97-.15.31-.28.59-.41.84-.12.25-.15.44-.09.57.04.07.11.11.21.11.11,0,.22-.02.35-.06s.25-.08.36-.13c.12-.05.2-.08.26-.1.68-.55,1.21-.93,1.57-1.16.36-.23.61-.34.73-.35.12,0,.14.07.05.24-.09.16-.25.36-.47.6-.23.24-.5.49-.83.76-.33.27-.67.49-1.02.69-.35.19-.7.32-1.05.4-.35.07-.65.03-.91-.12Zm.74-3.86c-.16.08-.29.2-.4.37-.1.16-.18.34-.23.54-.05.19-.08.39-.08.59,0,.2.01.38.04.54.02,0,.03,0,.04,0l.04-.02c.11-.06.22-.17.32-.34.1-.17.18-.36.23-.57.06-.21.09-.41.11-.61.01-.2-.01-.36-.07-.48Z"/>
    <path class="cls-6" d="m26.19,83.33c-.12-.24-.18-.5-.19-.76,0-.26.01-.51.04-.76.03-.25.05-.49.05-.73s-.04-.46-.15-.68c-.02-.05-.06-.11-.09-.17-.04-.07-.08-.13-.13-.19-.04-.06-.1-.1-.16-.13-.06-.03-.12-.03-.17,0,0,0-.02.01-.04.03-.02.01-.03.03-.02.03-.04.21-.09.45-.15.73-.06.27-.14.55-.22.82-.09.28-.17.54-.26.8-.08.26-.17.48-.25.66-.05.14-.12.33-.21.57-.09.24-.18.48-.27.71-.09.23-.17.44-.24.62-.07.18-.11.27-.13.28l-.8-.19c.07-.04.14-.09.19-.16.05-.07.1-.14.15-.21.33-.57.58-1.17.76-1.79.18-.62.34-1.27.48-1.95,0-.03.01-.13.02-.28,0-.15.02-.33.02-.52,0-.19.01-.38.02-.58,0-.19,0-.34,0-.45,0-.13-.02-.23-.04-.3s-.03-.13-.04-.17c0-.04,0-.08.03-.11.02-.03.09-.08.2-.13.02,0,.06-.02.12-.05.06-.02.11-.03.13-.03.22.17.41.32.58.45.17.13.32.26.45.38.13.12.25.25.36.39s.21.3.3.49c.03.32.05.66.06,1s.03.67.07.97c.04.3.1.55.18.77.08.21.21.35.38.42s.39.03.66-.09c.27-.12.61-.38,1.03-.77.16,0,.21.07.16.22s-.18.32-.35.5c-.17.19-.38.38-.61.56s-.44.3-.62.36c-.16.08-.3.12-.42.11-.13,0-.25-.03-.35-.09-.11-.06-.2-.14-.29-.24-.09-.1-.16-.21-.22-.33Z"/>
    <path class="cls-6" d="m28.04,81.88c-.08-.16-.12-.3-.14-.44s.08-.25.26-.35c.02,0,.06-.03.12-.05s.11-.04.14-.05c.18.39.39.64.62.77.23.13.52.1.88-.08.29-.15.56-.34.8-.57.24-.23.43-.49.58-.79.14-.29.22-.6.24-.92.02-.32-.06-.64-.21-.96-.1-.2-.23-.3-.41-.31-.18-.01-.36,0-.54.03-.19.03-.36.05-.53.06-.17,0-.29-.07-.36-.22-.09-.19-.07-.42.07-.71.14-.29.33-.57.58-.86.24-.29.5-.55.76-.78.27-.23.48-.39.64-.47.12.24.15.43.1.58-.05.15-.14.29-.26.42-.12.13-.24.26-.36.39-.12.13-.2.29-.22.49.18.04.34.08.47.12.13.04.24.1.34.17s.19.17.26.27c.08.11.16.25.24.41.21.42.31.85.3,1.29,0,.44-.1.86-.27,1.25-.17.4-.41.75-.71,1.08-.31.32-.66.58-1.05.78-.21.11-.43.18-.66.23-.23.05-.44.05-.65.01-.21-.04-.4-.12-.57-.25-.18-.13-.32-.31-.44-.54Z"/>
    <path class="cls-6" d="m34.25,79.47c-.16-.5-.24-1-.23-1.49,0-.49.07-.95.19-1.37s.29-.8.5-1.15c.21-.34.46-.61.72-.81s.54-.32.83-.36c.29-.04.57.02.85.19.09.19.14.39.14.6s0,.43-.02.65c-.02.22-.02.44-.02.67,0,.22.06.44.16.64.11.21.24.36.4.44.16.08.35.06.59-.06.2-.1.37-.22.53-.37.15-.15.33-.27.51-.36.03-.02.09-.04.17-.08.08-.03.13-.06.16-.07-.03.19-.09.37-.2.54-.11.18-.23.34-.36.5s-.29.29-.46.42c-.17.12-.33.23-.48.3-.15.07-.29.11-.44.1-.15,0-.29-.04-.42-.11-.13-.06-.26-.15-.37-.27-.11-.11-.2-.23-.27-.36-.05.2-.11.41-.18.63-.07.22-.15.43-.25.64-.1.2-.22.39-.36.56-.14.17-.31.31-.51.41-.21.11-.44.12-.67.04-.24-.08-.41-.23-.52-.45Zm.62-.78c.03.07.07.14.12.22s.12.11.23.08c.18-.15.36-.38.53-.67.18-.3.32-.62.44-.95.12-.34.19-.67.21-1.01.03-.33-.02-.62-.14-.86,0-.02-.02-.04-.05-.08-.02-.03-.04-.06-.05-.08-.28.14-.53.34-.76.59-.23.26-.41.54-.53.86-.13.31-.2.64-.21.97-.01.33.05.64.2.93Z"/>
    <path class="cls-6" d="m39.19,76.5c-.12-.24-.19-.49-.22-.78-.03-.28-.04-.57-.04-.86,0-.29.01-.59.03-.88s0-.56-.05-.82c-.11.17-.22.28-.32.35-.1.07-.23.14-.39.22-.02,0-.07.03-.16.07-.09.04-.14.06-.17.08-.04-.2-.03-.41.03-.62s.15-.4.26-.59.25-.36.4-.52c.15-.16.29-.3.41-.41.05-.51.06-.99.02-1.46-.04-.46-.07-.92-.1-1.37-.03-.45-.02-.9.03-1.35.05-.45.18-.9.41-1.37l.29.43.27,4.35c.08-.07.17-.15.29-.24.12-.09.24-.18.36-.27.12-.09.24-.18.36-.26.12-.08.21-.16.29-.23,0,0,.03-.02.07-.04s.07-.04.09-.06c.11-.06.22-.08.31-.08.09,0,.2.06.32.18-.47.44-.89.86-1.25,1.27-.36.4-.63.83-.81,1.29-.19.46-.27.96-.26,1.5.02.55.16,1.19.42,1.92.07.15.15.28.23.39.08.11.22.14.42.07.19-.09.34-.22.47-.37.13-.16.25-.31.36-.48.11-.16.23-.32.35-.47.12-.15.28-.28.46-.37.1.2.1.42.01.67s-.22.49-.4.74c-.18.24-.38.46-.6.65-.22.19-.41.33-.57.41-.16.08-.33.12-.49.12s-.31-.03-.46-.1c-.14-.07-.27-.16-.39-.29s-.22-.26-.29-.42Z"/>
    <path class="cls-6" d="m42.6,75.28c-.06-.11-.1-.22-.11-.32-.02-.1-.03-.23-.03-.4.02-.11.04-.32.08-.62.04-.3.07-.62.11-.96.04-.33.08-.65.12-.95.04-.3.06-.51.08-.63.02-.14.05-.23.08-.26.04-.03.11-.07.23-.13.07-.04.16-.07.24-.11.09-.03.17,0,.25.09.03.33,0,.67-.06,1.02-.07.34-.13.69-.19,1.02-.06.34-.1.67-.11.99-.01.33.06.64.21.93.03-.02.09-.04.16-.06.07-.03.15-.06.24-.09.09-.03.17-.06.24-.09.07-.03.12-.05.15-.08.04-.03.12-.09.22-.18.1-.09.21-.18.33-.28.12-.1.23-.2.34-.29.11-.09.18-.16.22-.2,0,.02.02.04.04.08.02.03.04.06.05.08.08.16.07.34-.02.52-.1.18-.23.35-.4.51-.17.16-.35.3-.55.43-.2.12-.35.22-.47.27-.12.06-.25.11-.39.14-.14.04-.28.04-.41.03-.13-.02-.25-.06-.36-.13-.11-.07-.21-.18-.28-.33Zm-.03-8.95c.11-.05.21-.1.3-.13.09-.04.18-.05.26-.06.08,0,.16.02.23.07s.14.12.2.24c.02.05.05.1.08.16.03.06.05.11.06.17.01.06.01.12,0,.17-.01.05-.06.1-.13.13-.11.06-.23.06-.34.02-.11-.05-.21-.12-.3-.21s-.16-.19-.23-.31-.11-.19-.14-.25Z"/>
    <path class="cls-6" d="m45.54,73.52s-.05-.1-.1-.2c-.05-.1-.08-.17-.09-.21-.04-.72.02-1.44.17-2.15.15-.71.39-1.39.71-2.04.02,0,.04-.03.07-.06.03-.03.05-.05.07-.06.22-.11.42-.15.61-.13.19.02.37.09.53.2.16.11.3.25.43.41.12.17.23.34.32.51.16.32.25.69.28,1.11.03.42-.01.84-.12,1.25s-.27.79-.49,1.13c-.23.34-.51.6-.85.77-.34.17-.64.21-.9.11s-.47-.31-.63-.64Zm.88-.62c.04.09.11.13.2.13.09,0,.17-.02.24-.06.2-.1.37-.26.51-.46.14-.21.24-.43.3-.67.07-.24.09-.49.08-.74-.01-.25-.07-.47-.16-.65-.04-.09-.1-.19-.17-.29s-.14-.19-.23-.25c-.08-.07-.18-.1-.29-.11-.11,0-.23.05-.37.16-.1.08-.18.25-.23.51-.05.26-.08.55-.09.87s0,.62.04.91c.04.29.09.51.16.66Z"/>
    <path class="cls-6" d="m50.06,71.85l-.09-.17s-.03-.08-.04-.12c0-.04,0-.09,0-.14,0-.05.01-.12.02-.21,0-.15.03-.41.07-.78s.08-.77.12-1.19c.04-.42.09-.82.13-1.2.04-.38.07-.64.08-.79,0-.01.02-.03.06-.05.04-.02.06-.03.08-.04.02,0,.04-.02.08-.04s.07-.03.08-.02c.01,0,.04.02.08.03.04.02.1.04.15.06.05.02.11.04.15.05.04.02.07.02.09.02.07-.04.14-.1.2-.19.06-.09.11-.19.17-.29.06-.1.12-.2.18-.3.06-.09.15-.17.24-.21.11-.05.22-.08.33-.07.11,0,.22.03.32.07.1.04.19.1.28.17.08.07.14.15.19.24.09.19.16.38.19.58.03.2.06.4.08.6.02.2.04.4.07.59.03.19.09.38.18.56.09.18.17.3.25.35.08.06.21.04.4-.05.22-.11.41-.25.58-.41.17-.17.36-.3.57-.41.1.2.12.39.07.58-.05.19-.15.37-.28.53-.14.17-.3.31-.48.44-.19.13-.36.23-.52.32-.31.16-.58.18-.81.08-.23-.1-.42-.3-.57-.6-.1-.2-.16-.4-.17-.6-.02-.21-.02-.41-.02-.62,0-.21,0-.41,0-.61,0-.2-.06-.39-.15-.58-.02-.05-.06-.11-.12-.18-.06-.07-.13-.09-.22-.04-.27.13-.47.34-.6.62-.13.28-.22.59-.26.94-.04.35-.06.71-.05,1.08,0,.37.02.72.02,1.05,0,.32,0,.6-.04.83-.03.23-.1.37-.23.43-.17.09-.34.1-.5.05-.16-.05-.28-.16-.36-.32Z"/>
    <path class="cls-6" d="m8.72,116.34s0-.03-.02-.05c0-.03-.01-.04-.02-.05,0-.03,0-.07-.01-.12,0-.05-.01-.11-.02-.17,0-.06-.02-.11-.02-.17,0-.05,0-.09,0-.11,0-.14-.02-.36-.03-.67,0-.31-.02-.65-.03-1.04,0-.39-.02-.79-.03-1.21s-.02-.83-.04-1.21c-.01-.39-.02-.73-.03-1.04,0-.31-.01-.54-.02-.69.02-.22.07-.5.15-.82.08-.32.17-.66.29-1.02.12-.35.26-.71.42-1.07.16-.36.33-.69.51-1,.18-.31.36-.58.56-.82.2-.24.39-.4.59-.5.29-.15.53-.2.7-.15.18.04.35.23.51.56.18.35.28.73.32,1.15.04.41.02.83-.05,1.26-.07.42-.2.84-.38,1.24-.18.41-.4.78-.65,1.11-.26.33-.55.62-.88.86-.33.24-.68.4-1.05.49l-.08.24.4,4.76c.01.09-.03.17-.14.25-.1.08-.19.13-.27.17-.11.05-.23.07-.37.05-.14-.02-.24-.08-.3-.21Zm2.74-8.82c.18-.6.26-1.05.26-1.35,0-.3-.07-.48-.18-.54-.11-.07-.26-.04-.45.09-.18.12-.37.3-.56.54-.19.24-.36.51-.51.82-.16.31-.26.62-.31.92-.03.12-.07.27-.11.46-.04.19-.08.37-.11.56-.04.19-.06.35-.08.49-.02.14-.03.22-.02.24l.13.26c.56-.28,1-.61,1.32-.97s.52-.87.62-1.51Z"/>
    <path class="cls-6" d="m14.29,108.27c-.06-.11-.09-.22-.11-.32s-.03-.23-.03-.4c.02-.11.04-.32.08-.62.04-.3.08-.62.12-.96.04-.34.08-.65.12-.95.04-.3.06-.51.08-.63.02-.14.05-.23.08-.26.04-.03.11-.07.23-.13.07-.04.15-.07.24-.11.09-.03.17,0,.25.09.02.33,0,.67-.06,1.02s-.13.69-.19,1.02c-.06.34-.1.67-.11.99-.01.33.06.64.21.93.03-.02.09-.04.16-.06.07-.03.15-.06.24-.09.08-.03.17-.06.24-.09.07-.03.12-.05.15-.08.04-.03.12-.09.22-.18.1-.09.21-.18.33-.28.12-.1.23-.2.34-.29.11-.09.18-.16.22-.2,0,.02.02.04.05.08.02.04.04.06.05.08.08.16.07.34-.02.52-.1.18-.23.35-.4.51s-.35.3-.55.43-.35.22-.47.27c-.12.06-.25.11-.39.14-.14.03-.28.04-.41.03-.13-.02-.25-.06-.36-.13-.11-.07-.21-.18-.28-.33Zm-.03-8.95c.11-.05.21-.1.3-.13.09-.04.18-.05.26-.06.08,0,.16.02.23.07.07.04.14.12.2.24.02.05.05.1.08.16.03.06.05.12.06.17s.01.12,0,.17c-.01.05-.06.1-.13.13-.11.06-.23.06-.34.02-.11-.05-.21-.12-.3-.21-.09-.09-.17-.2-.23-.31-.06-.11-.11-.19-.14-.25Z"/>
    <path class="cls-6" d="m17.4,106.91c-.29-.24-.51-.51-.64-.82s-.21-.62-.22-.94c-.01-.32.02-.64.1-.95.08-.31.19-.6.33-.87.14-.27.3-.5.49-.69.18-.19.36-.33.54-.4s.34-.08.5-.01c.16.06.28.22.36.48.16.32.2.64.12.98s-.2.66-.34.97c-.15.31-.28.59-.41.84-.12.25-.15.44-.09.57.04.07.11.11.21.11.11,0,.22-.02.35-.06.12-.04.25-.08.36-.13.12-.05.2-.08.26-.1.68-.55,1.21-.93,1.57-1.16.36-.23.61-.34.73-.35.12,0,.14.07.05.24-.09.16-.24.36-.47.6-.23.24-.5.49-.83.76s-.67.49-1.02.69c-.35.19-.7.32-1.05.4-.35.07-.65.03-.91-.12Zm.74-3.86c-.16.08-.29.2-.4.37-.1.16-.18.34-.23.54-.05.19-.08.39-.08.59,0,.2.01.38.04.54.02,0,.03,0,.04,0l.04-.02c.12-.06.22-.17.32-.34s.18-.36.23-.57c.06-.21.09-.41.11-.61.01-.2-.01-.36-.07-.48Z"/>
    <path class="cls-6" d="m22.59,99.56c-.18.12-.33.34-.47.67-.14.33-.25.7-.32,1.11-.08.41-.1.83-.08,1.25.02.42.1.78.25,1.08.12.24.26.37.43.4.17.03.37,0,.6-.12.25-.12.47-.27.67-.45.2-.18.4-.36.6-.55.2-.19.4-.37.6-.54.2-.18.42-.33.67-.45.06.11.09.22.1.31,0,.09,0,.2-.02.32-.32.42-.66.82-1.03,1.21-.36.39-.79.71-1.28.96-.15.07-.32.12-.5.15-.19.03-.38.03-.57,0-.19-.03-.36-.09-.53-.18-.16-.09-.29-.22-.37-.39-.18-.37-.31-.75-.38-1.15-.07-.4-.08-.8-.05-1.2s.12-.8.25-1.2c.13-.39.31-.77.52-1.12h0c.08-.15.19-.29.31-.44.12-.15.25-.26.38-.35.13-.08.26-.11.4-.08.13.03.25.15.36.36.05.1.11.23.17.4.06.17.07.3.03.4-.04.07-.11.15-.2.24-.04.04-.08.08-.13.11l-.39-.77Z"/>
    <path class="cls-6" d="m25.85,102.67c-.29-.24-.51-.51-.64-.82s-.21-.62-.22-.94c-.01-.32.02-.64.1-.95.08-.31.2-.6.33-.87.14-.27.3-.5.49-.69.18-.19.36-.33.54-.4s.34-.08.5-.01c.16.07.28.22.36.48.16.32.2.65.12.98s-.2.66-.34.97c-.15.31-.28.59-.41.84-.12.25-.15.44-.09.57.04.07.11.11.21.11.11,0,.22-.02.35-.06s.25-.08.36-.13c.12-.05.2-.08.26-.1.68-.55,1.21-.93,1.57-1.16.37-.23.61-.34.73-.35.12,0,.14.07.05.24-.09.16-.24.36-.47.6-.23.24-.5.49-.83.76s-.67.49-1.02.69c-.35.19-.7.32-1.05.4-.35.07-.65.03-.91-.12Zm.74-3.86c-.16.08-.29.2-.4.37-.1.16-.18.34-.23.54-.05.19-.08.39-.08.59,0,.2.01.38.04.54.02,0,.03,0,.04,0l.04-.02c.11-.06.22-.17.32-.34.1-.17.18-.36.24-.57.06-.21.09-.41.11-.61.01-.2-.01-.36-.07-.48Z"/>
  </g>
  <g>
    <path class="cls-6" d="m120.55,146.29c-.63,0-1.2-.09-1.71-.28s-.97-.46-1.38-.83l.83-1.02c.39.29.77.51,1.15.66.38.15.75.22,1.12.22.55,0,.96-.08,1.24-.26s.41-.43.41-.77c0-.26-.09-.45-.28-.56s-.43-.18-.72-.21-.62-.06-.96-.09c-.29-.02-.57-.06-.85-.11s-.54-.13-.77-.26c-.23-.13-.42-.31-.56-.56s-.21-.58-.21-.99c0-.75.23-1.31.69-1.69.46-.37,1.15-.56,2.06-.56.56,0,1.07.08,1.55.23s.93.38,1.35.69l-.84,1.02c-.36-.23-.71-.4-1.05-.51-.34-.11-.68-.17-1.01-.17-.47,0-.83.08-1.07.24-.24.16-.36.4-.36.73,0,.21.08.37.25.46.16.09.38.15.65.18s.56.05.87.08c.3.02.6.05.9.1s.58.14.84.28.46.34.62.61c.15.27.23.64.23,1.1,0,.76-.25,1.33-.74,1.71-.49.38-1.24.57-2.23.57Z"/>
    <path class="cls-6" d="m126.7,136.24v8.11c0,.17.04.3.11.4s.18.14.32.14h.66v1.33h-.82c-.52,0-.93-.16-1.22-.49s-.44-.79-.44-1.39v-8.09h1.39Z"/>
    <path class="cls-6" d="m132.08,146.29c-.93,0-1.65-.27-2.16-.81s-.77-1.3-.77-2.28v-1.16c0-.97.26-1.72.77-2.26s1.23-.8,2.16-.8,1.65.27,2.16.8.77,1.29.77,2.26v1.18c0,.98-.26,1.73-.77,2.27-.51.54-1.23.8-2.16.8Zm0-1.33c.49,0,.86-.15,1.13-.46.27-.3.4-.73.4-1.29v-1.18c0-.55-.13-.98-.4-1.28s-.64-.45-1.13-.45-.86.15-1.13.45-.4.73-.4,1.28v1.18c0,.55.13.98.4,1.29.27.31.65.46,1.13.46Z"/>
    <path class="cls-6" d="m138.28,146.18l-2.19-7.1h1.46l1.26,5.07,1.77-5.07h.97l1.77,5.07,1.26-5.07h1.46l-2.19,7.1h-1.05l-1.73-4.9-1.73,4.9h-1.05Z"/>
    <path class="cls-6" d="m153.55,146.31c-.78,0-1.39-.25-1.81-.75-.43-.5-.64-1.21-.64-2.13v-1.57c0-.92.21-1.63.63-2.14.42-.5,1-.76,1.76-.76.42,0,.8.11,1.15.33s.63.53.84.92l-.14,1.45c0-.3-.05-.56-.16-.77-.11-.21-.27-.38-.48-.49-.21-.11-.46-.17-.75-.17-.46,0-.82.14-1.07.43-.25.29-.38.69-.38,1.21v1.54c0,.52.13.91.38,1.19.25.28.61.42,1.07.42.3,0,.55-.06.75-.17.21-.12.37-.28.48-.5s.16-.48.16-.79l.1,1.5c-.13.32-.35.61-.66.86-.31.25-.72.38-1.22.38Zm1.78-.12v-9.94h1.39v9.94h-1.39Z"/>
    <path class="cls-6" d="m161.12,146.29c-.87,0-1.52-.18-1.96-.54-.43-.36-.65-.91-.65-1.65s.2-1.23.6-1.58c.4-.35,1-.52,1.79-.52h2.02l.1,1.12h-2.11c-.36,0-.63.08-.81.24-.18.16-.27.41-.27.74,0,.36.12.63.36.8.24.17.6.26,1.09.26.53,0,.92-.06,1.19-.17.26-.11.4-.29.4-.53l.14,1c-.12.19-.28.35-.46.47-.18.12-.39.22-.63.28-.23.06-.5.09-.8.09Zm1.74-.1v-4.5c0-.46-.12-.83-.37-1.08-.25-.26-.6-.39-1.06-.39-.28,0-.55.04-.82.13-.27.08-.51.21-.73.37l-1.02-.7c.27-.32.62-.58,1.06-.75.44-.18.93-.27,1.47-.27.89,0,1.58.23,2.06.69.49.46.73,1.11.73,1.95v4.56h-1.33Z"/>
    <path class="cls-6" d="m165.75,140.35v-1.26h3.2v1.26h-3.2Zm2.39,5.87c-.58,0-1.01-.16-1.27-.49-.26-.32-.39-.79-.39-1.39v-7.31h1.39v7.33c0,.17.03.3.1.4s.17.14.3.14h.67v1.33h-.81Z"/>
    <path class="cls-6" d="m173.13,146.29c-.87,0-1.52-.18-1.96-.54-.43-.36-.65-.91-.65-1.65s.2-1.23.6-1.58c.4-.35,1-.52,1.79-.52h2.02l.1,1.12h-2.11c-.36,0-.63.08-.81.24-.18.16-.27.41-.27.74,0,.36.12.63.36.8.24.17.6.26,1.09.26.53,0,.92-.06,1.19-.17.26-.11.4-.29.4-.53l.14,1c-.12.19-.28.35-.46.47-.18.12-.39.22-.63.28-.23.06-.5.09-.8.09Zm1.74-.1v-4.5c0-.46-.12-.83-.37-1.08-.25-.26-.6-.39-1.06-.39-.28,0-.55.04-.82.13-.27.08-.51.21-.73.37l-1.02-.7c.27-.32.62-.58,1.06-.75.44-.18.93-.27,1.47-.27.89,0,1.58.23,2.06.69.49.46.73,1.11.73,1.95v4.56h-1.33Z"/>
    <path class="cls-6" d="m120.48,160.95l1.74-5.07h1.46l-2.67,7.1h-1.05l-2.67-7.1h1.46l1.74,5.07Z"/>
    <path class="cls-6" d="m125.04,154.44v-1.39h1.39v1.39h-1.39Zm0,8.54v-7.1h1.39v7.1h-1.39Z"/>
    <path class="cls-6" d="m131.07,163.09c-.63,0-1.2-.09-1.71-.28s-.97-.46-1.38-.83l.83-1.02c.39.29.77.51,1.15.66.38.15.75.22,1.12.22.55,0,.96-.08,1.24-.26s.41-.43.41-.77c0-.26-.09-.45-.28-.56s-.43-.18-.72-.21-.62-.06-.96-.09c-.29-.02-.57-.06-.85-.11s-.54-.13-.77-.26c-.23-.13-.42-.31-.56-.56s-.21-.58-.21-.99c0-.75.23-1.31.69-1.69.46-.37,1.15-.56,2.06-.56.56,0,1.07.08,1.55.23s.93.38,1.35.69l-.84,1.02c-.36-.23-.71-.4-1.05-.51-.34-.11-.68-.17-1.01-.17-.47,0-.83.08-1.07.24-.24.16-.36.4-.36.73,0,.21.08.37.25.46.16.09.38.15.65.18s.56.05.87.08c.3.02.6.05.9.1s.58.14.84.28.46.34.62.61c.15.27.23.64.23,1.1,0,.76-.25,1.33-.74,1.71-.49.38-1.24.57-2.23.57Z"/>
    <path class="cls-6" d="m137.21,155.89v4.31c0,.5.13.88.38,1.15.25.27.61.41,1.07.41s.81-.12,1.06-.37c.25-.24.37-.59.37-1.03l.1,1.48c-.13.32-.35.61-.67.86s-.74.38-1.25.38c-.78,0-1.39-.25-1.81-.75-.43-.5-.64-1.21-.64-2.13v-4.31h1.39Zm2.88,7.1v-7.1h1.39v7.1h-1.39Z"/>
    <path class="cls-6" d="m145.87,163.09c-.87,0-1.52-.18-1.96-.54-.44-.36-.65-.91-.65-1.65s.2-1.23.6-1.58,1-.52,1.79-.52h2.02l.1,1.12h-2.11c-.36,0-.63.08-.81.24-.18.16-.27.41-.27.74,0,.36.12.63.36.8.24.17.6.26,1.09.26.53,0,.93-.06,1.19-.17.26-.11.4-.29.4-.53l.14,1c-.12.19-.28.35-.46.47s-.39.22-.63.28-.5.09-.8.09Zm1.74-.1v-4.5c0-.46-.12-.83-.37-1.08-.25-.26-.6-.39-1.06-.39-.28,0-.55.04-.82.13-.27.08-.51.21-.73.37l-1.02-.7c.27-.32.62-.58,1.06-.75.44-.18.93-.27,1.47-.27.89,0,1.58.23,2.06.69.49.46.73,1.11.73,1.95v4.56h-1.33Z"/>
    <path class="cls-6" d="m152.45,153.04v8.11c0,.17.04.3.11.4s.18.14.32.14h.66v1.33h-.82c-.52,0-.93-.16-1.22-.49s-.44-.79-.44-1.39v-8.09h1.39Z"/>
    <path class="cls-6" d="m155.11,154.44v-1.39h1.39v1.39h-1.39Zm0,8.54v-7.1h1.39v7.1h-1.39Z"/>
    <path class="cls-6" d="m160.89,163.09c-.87,0-1.52-.18-1.96-.54-.43-.36-.65-.91-.65-1.65s.2-1.23.6-1.58c.4-.35,1-.52,1.79-.52h2.02l.1,1.12h-2.11c-.36,0-.63.08-.81.24-.18.16-.27.41-.27.74,0,.36.12.63.36.8.24.17.6.26,1.09.26.53,0,.92-.06,1.19-.17.26-.11.4-.29.4-.53l.14,1c-.12.19-.28.35-.46.47-.18.12-.39.22-.63.28-.23.06-.5.09-.8.09Zm1.74-.1v-4.5c0-.46-.12-.83-.37-1.08-.25-.26-.6-.39-1.06-.39-.28,0-.55.04-.82.13-.27.08-.51.21-.73.37l-1.02-.7c.27-.32.62-.58,1.06-.75.44-.18.93-.27,1.47-.27.89,0,1.58.23,2.06.69.49.46.73,1.11.73,1.95v4.56h-1.33Z"/>
    <path class="cls-6" d="m165.53,157.14v-1.26h3.2v1.26h-3.2Zm2.39,5.87c-.58,0-1.01-.16-1.27-.49-.26-.32-.39-.79-.39-1.39v-7.31h1.39v7.33c0,.17.03.3.1.4s.17.14.3.14h.67v1.33h-.81Z"/>
    <path class="cls-6" d="m170.64,154.44v-1.39h1.39v1.39h-1.39Zm0,8.54v-7.1h1.39v7.1h-1.39Z"/>
    <path class="cls-6" d="m177.06,163.09c-.99,0-1.75-.28-2.3-.83-.54-.55-.81-1.33-.81-2.35v-.8c0-1.06.26-1.88.78-2.45.52-.58,1.26-.87,2.21-.87.89,0,1.58.33,2.07.98.49.66.74,1.58.74,2.76v.46h-4.79v-1.12h3.46c-.04-.57-.19-1.02-.45-1.35-.26-.32-.6-.49-1.04-.49-.52,0-.93.17-1.22.52-.29.35-.44.84-.44,1.47v.9c0,.59.16,1.04.47,1.35.31.31.75.47,1.32.47.28,0,.56-.06.84-.17.28-.11.53-.27.75-.48l.92.92c-.35.34-.75.6-1.18.78s-.88.28-1.32.28Z"/>
  </g>
  <g>
    <path class="cls-2" d="m184.27,127.66l2.43,2.04c.4.33.75.63,1.06.95l.03-.02c-.12-.44-.21-.9-.31-1.4l-.64-3.1.87-.52.93,5.65-.79.47-4.46-3.54.89-.53Z"/>
    <path class="cls-2" d="m190.31,127.36c.69,1.11,1.68,1.15,2.52.65.59-.35.89-.67,1.12-.99l.5.51c-.21.31-.62.76-1.35,1.19-1.41.84-2.8.41-3.62-.97-.82-1.38-.65-2.95.68-3.75,1.49-.89,2.67.19,3.17,1.03.1.17.16.31.2.4l-3.21,1.91Zm2.09-2.05c-.31-.53-1.02-1.22-1.96-.67-.84.5-.75,1.5-.47,2.11l2.43-1.45Z"/>
    <path class="cls-2" d="m193.98,123.81c-.32-.54-.61-1-.89-1.41l.73-.43.56.88.04-.02c-.16-.74.11-1.42.67-1.76.1-.06.17-.09.25-.11l.47.79c-.1.03-.19.07-.3.14-.59.35-.74,1.04-.48,1.73.05.12.11.27.19.41l1.45,2.44-.82.49-1.87-3.15Z"/>
    <path class="cls-2" d="m198.95,125.12c-.17-.32-.42-.8-.67-1.2l-3.29-5.53.82-.49,1.71,2.87h.02c-.01-.7.32-1.34,1.06-1.78,1.13-.67,2.5-.21,3.32,1.19.97,1.64.43,3.06-.6,3.67-.66.39-1.34.45-2.04.05l-.03.02.41.78-.72.43Zm-.23-2.35c.06.1.14.2.22.28.5.48,1.22.59,1.83.23.87-.52.97-1.54.35-2.59-.55-.92-1.49-1.42-2.38-.89-.57.34-.87,1.04-.66,1.78.04.11.08.24.15.37l.49.82Z"/>
    <path class="cls-2" d="m201.8,115.49c.18.28.11.63-.22.83-.29.17-.64.07-.8-.21-.18-.29-.09-.65.21-.83.31-.19.65-.08.82.22Zm2.56,6.41l-2.72-4.58.83-.49,2.72,4.58-.83.5Z"/>
    <path class="cls-2" d="m204.59,117.24c-.28-.47-.52-.85-.77-1.22l.74-.44.5.73h.02c-.03-.58.25-1.32,1-1.77.63-.38,1.84-.58,2.78.99l1.62,2.73-.83.5-1.57-2.64c-.44-.74-1.08-1.19-1.86-.72-.55.33-.74.97-.61,1.51.02.13.09.28.17.42l1.64,2.75-.83.5-1.99-3.34Z"/>
    <path class="cls-2" d="m211.78,108.4l3.29,5.53c.24.41.53.86.74,1.16l-.75.44-.51-.77h-.02c.05.67-.28,1.39-1.03,1.84-1.11.66-2.51.23-3.34-1.16-.91-1.52-.53-3.02.59-3.68.7-.42,1.37-.37,1.8-.12h.02s-1.62-2.74-1.62-2.74l.83-.49Zm1.55,4.49c-.06-.1-.15-.24-.25-.33-.44-.46-1.15-.62-1.77-.25-.86.51-.92,1.57-.32,2.58.55.93,1.46,1.42,2.36.89.56-.33.85-1,.63-1.72-.04-.13-.1-.25-.18-.38l-.47-.79Z"/>
    <path class="cls-2" d="m214.59,107.88c.18.28.11.63-.22.83-.29.17-.64.07-.8-.21-.18-.29-.09-.65.21-.83.31-.19.65-.08.82.22Zm2.56,6.41l-2.72-4.58.83-.5,2.72,4.58-.83.49Z"/>
    <path class="cls-2" d="m217.38,109.64c-.28-.47-.52-.85-.77-1.22l.74-.44.5.73h.02c-.03-.58.25-1.32,1-1.77.63-.38,1.84-.58,2.78.99l1.62,2.73-.83.49-1.57-2.64c-.44-.74-1.08-1.19-1.86-.72-.55.33-.74.97-.61,1.51.02.13.09.28.17.42l1.64,2.75-.83.5-1.99-3.34Z"/>
    <path class="cls-2" d="m225.83,102.93c.18.34.38.72.71,1.28l1.58,2.66c.62,1.05.8,1.82.59,2.48-.2.68-.76,1.2-1.34,1.54-.55.33-1.23.55-1.75.53l-.17-.76c.42,0,.99-.1,1.56-.44.85-.51,1.21-1.32.53-2.47l-.3-.51h-.02c0,.59-.29,1.22-1,1.64-1.13.67-2.52.19-3.27-1.07-.92-1.55-.44-3.03.62-3.66.79-.47,1.48-.32,1.9-.05h.02s-.37-.72-.37-.72l.73-.43Zm.21,2.32c-.08-.14-.17-.26-.27-.35-.44-.39-1.08-.55-1.69-.19-.79.47-.96,1.48-.33,2.54.53.9,1.43,1.38,2.33.84.51-.3.78-.9.65-1.54-.04-.17-.11-.34-.2-.48l-.49-.82Z"/>
  </g>
</svg>